<svg width="1280" height="832" viewBox="0 0 1280 832" fill="none" xmlns="http://www.w3.org/2000/svg">
<rect width="1280" height="832" fill="#02066C"/>
<path d="M453.775 172V371.8H487.75V406.45H453.775V469H415.075V406.45H290.2V374.5L411.925 172H453.775ZM415.075 371.8V230.275H414.85L330.925 371.8H415.075Z" fill="#FFE6C1" fill-opacity="0.27"/>
<path d="M517.85 320.725C517.85 294.325 521 271.45 527.3 252.1C533.75 232.75 542.3 216.775 552.95 204.175C563.75 191.425 575.75 181.975 588.95 175.825C602.3 169.675 616.025 166.6 630.125 166.6C644.225 166.6 657.95 169.675 671.3 175.825C684.65 181.975 696.575 191.425 707.075 204.175C717.725 216.775 726.125 232.75 732.275 252.1C738.575 271.45 741.725 294.325 741.725 320.725C741.725 347.575 738.575 370.75 732.275 390.25C726.125 409.6 717.725 425.5 707.075 437.95C696.575 450.25 684.65 459.4 671.3 465.4C657.95 471.4 644.225 474.4 630.125 474.4C616.025 474.4 602.3 471.4 588.95 465.4C575.75 459.4 563.75 450.25 552.95 437.95C542.3 425.5 533.75 409.6 527.3 390.25C521 370.75 517.85 347.575 517.85 320.725ZM557.225 320.725C557.225 347.275 560.525 369.4 567.125 387.1C573.725 404.65 582.5 417.775 593.45 426.475C604.55 435.175 616.775 439.525 630.125 439.525C643.475 439.525 655.625 435.175 666.575 426.475C677.525 417.775 686.3 404.65 692.9 387.1C699.5 369.4 702.8 347.275 702.8 320.725C702.8 294.475 699.5 272.575 692.9 255.025C686.3 237.325 677.525 223.975 666.575 214.975C655.625 205.975 643.475 201.475 630.125 201.475C616.775 201.475 604.55 205.975 593.45 214.975C582.5 223.975 573.725 237.325 567.125 255.025C560.525 272.575 557.225 294.475 557.225 320.725Z" fill="#FFE6C1" fill-opacity="0.27"/>
<path d="M929.775 172V371.8H963.75V406.45H929.775V469H891.075V406.45H766.2V374.5L887.925 172H929.775ZM891.075 371.8V230.275H890.85L806.925 371.8H891.075Z" fill="#FFE6C1" fill-opacity="0.27"/>
<path d="M576.97 289.639C577.266 289.584 577.574 289.527 577.894 289.466M577.894 289.466C586.367 287.863 603.166 284.233 609.42 281.195C625.644 285.136 638.489 287.95 642.545 287.95C644.573 295.832 664.854 318.912 666.882 319.475C658.094 323.416 652.686 343.119 655.39 343.119C647.818 347.622 625.644 351.751 615.504 353.252C606.04 345.934 586.84 329.27 585.759 321.164C584.407 311.031 580.845 286.479 577.894 289.466Z" stroke="white" stroke-width="10"/>
<path d="M551.957 303.15C544.386 297.295 550.154 284.197 553.985 278.38C565.883 267.572 593.646 261.433 604.012 258.993C610.549 257.455 628.349 258.993 660.798 258.993C693.248 285.136 710.148 329.045 713.528 332.423C716.909 335.801 686.487 399.976 671.615 425.872C649.982 431.727 621.588 428.311 610.096 425.872L578.322 388.155C569.534 369.014 551.416 330.734 549.253 330.734C546.549 330.734 548.577 316.098 551.957 303.15Z" stroke="white" stroke-width="10"/>
<path d="M583.054 287.95C574.266 285.886 556.96 281.082 558.041 278.38" stroke="white" stroke-width="10"/>
<path d="M554.661 277.254C551.957 271.062 568.047 257.889 591.843 252.485C615.639 247.08 656.066 244.041 664.178 247.418C674.995 249.107 730.159 320.038 715.557 331.297" stroke="white" stroke-width="10"/>
<path d="M335 347C345.396 336.47 373.752 313.176 392.008 311.545C414.828 309.507 433.285 306.59 439.5 314.048C442 317.048 444.5 330 403.221 335.598C388.008 342.222 367.666 362.499 379.837 361.989" stroke="white" stroke-width="10"/>
<path d="M365.5 203C343.822 211.671 337.186 296.833 335.399 346.75C324.678 357.732 341.526 392.174 355.311 412.141C359.14 433.606 430.361 432.607 454.101 420.128C477.842 407.649 472.481 320.294 472.481 316.799C472.481 313.305 471.715 271.874 464.823 245.418C451.957 233.438 443.125 240.426 440.317 245.418C439.04 246.083 440.317 239 438 212.5C434 200.991 426.532 200.991 423.469 200.991C420.405 200.991 411.909 203.986 410.5 208.479C408 187.5 403.557 185.517 395.899 185.018C388.241 184.519 379.051 194.502 379.051 208.479C371.5 200.991 368 202 365.5 203Z" stroke="white" stroke-width="10"/>
<path d="M379 206C380.787 227.958 383.289 280.725 379 294M410.404 206L415 291.989" stroke="white" stroke-width="10"/>
<path d="M440 241L440.765 298.999" stroke="white" stroke-width="10"/>
<path d="M796 347C806.396 336.47 834.752 313.176 853.008 311.545C875.828 309.507 894.285 306.59 900.5 314.048C903 317.048 905.5 330 864.221 335.598C849.008 342.222 828.666 362.499 840.837 361.989" stroke="white" stroke-width="10"/>
<path d="M826.5 203C804.822 211.671 798.186 296.833 796.399 346.75C785.678 357.732 802.526 392.174 816.311 412.141C820.14 433.606 891.361 432.607 915.101 420.128C938.842 407.649 933.481 320.294 933.481 316.799C933.481 313.305 932.715 271.874 925.823 245.418C912.957 233.438 904.125 240.426 901.317 245.418C900.04 246.083 901.317 239 899 212.5C895 200.991 887.532 200.991 884.469 200.991C881.405 200.991 872.909 203.986 871.5 208.479C869 187.5 864.557 185.517 856.899 185.018C849.241 184.519 840.051 194.502 840.051 208.479C832.5 200.991 829 202 826.5 203Z" stroke="white" stroke-width="10"/>
<path d="M840 206C841.787 227.958 844.289 280.725 840 294M871.404 206L876 291.989" stroke="white" stroke-width="10"/>
<path d="M901 241L901.765 298.999" stroke="white" stroke-width="10"/>
<path d="M357.025 551.192C356.529 551.192 356.145 551.056 355.873 550.784C355.617 550.496 355.489 550.096 355.489 549.584V542.288L356.137 544.136L350.353 536C350.145 535.712 350.049 535.408 350.065 535.088C350.097 534.752 350.233 534.472 350.473 534.248C350.713 534.008 351.049 533.888 351.481 533.888C351.801 533.888 352.089 533.968 352.345 534.128C352.617 534.288 352.873 534.536 353.113 534.872L357.409 540.968H356.737L361.057 534.872C361.313 534.52 361.561 534.272 361.801 534.128C362.041 533.968 362.337 533.888 362.689 533.888C363.105 533.888 363.425 534 363.649 534.224C363.889 534.432 364.009 534.696 364.009 535.016C364.025 535.336 363.913 535.672 363.673 536.024L357.937 544.136L358.561 542.288V549.584C358.561 550.656 358.049 551.192 357.025 551.192ZM369.365 551.24C368.149 551.24 367.093 550.992 366.197 550.496C365.301 550 364.605 549.296 364.109 548.384C363.613 547.456 363.365 546.368 363.365 545.12C363.365 544.176 363.501 543.336 363.773 542.6C364.061 541.848 364.469 541.208 364.997 540.68C365.525 540.136 366.157 539.728 366.893 539.456C367.629 539.168 368.453 539.024 369.365 539.024C370.581 539.024 371.637 539.272 372.533 539.768C373.429 540.264 374.125 540.968 374.621 541.88C375.117 542.792 375.365 543.872 375.365 545.12C375.365 546.064 375.221 546.912 374.933 547.664C374.661 548.416 374.261 549.064 373.733 549.608C373.205 550.136 372.573 550.544 371.837 550.832C371.101 551.104 370.277 551.24 369.365 551.24ZM369.365 548.96C369.957 548.96 370.477 548.816 370.925 548.528C371.373 548.24 371.717 547.816 371.957 547.256C372.213 546.68 372.341 545.968 372.341 545.12C372.341 543.84 372.069 542.888 371.525 542.264C370.981 541.624 370.261 541.304 369.365 541.304C368.773 541.304 368.253 541.448 367.805 541.736C367.357 542.008 367.005 542.432 366.749 543.008C366.509 543.568 366.389 544.272 366.389 545.12C366.389 546.384 366.661 547.344 367.205 548C367.749 548.64 368.469 548.96 369.365 548.96ZM382.089 551.24C381.113 551.24 380.305 551.064 379.665 550.712C379.025 550.344 378.545 549.8 378.225 549.08C377.921 548.36 377.769 547.464 377.769 546.392V540.584C377.769 540.072 377.897 539.696 378.153 539.456C378.409 539.2 378.777 539.072 379.257 539.072C379.737 539.072 380.105 539.2 380.361 539.456C380.633 539.696 380.769 540.072 380.769 540.584V546.44C380.769 547.272 380.937 547.888 381.273 548.288C381.609 548.688 382.145 548.888 382.881 548.888C383.681 548.888 384.337 548.616 384.849 548.072C385.361 547.512 385.617 546.776 385.617 545.864V540.584C385.617 540.072 385.745 539.696 386.001 539.456C386.257 539.2 386.625 539.072 387.105 539.072C387.585 539.072 387.953 539.2 388.209 539.456C388.481 539.696 388.617 540.072 388.617 540.584V549.656C388.617 550.68 388.129 551.192 387.153 551.192C386.689 551.192 386.329 551.064 386.073 550.808C385.817 550.536 385.689 550.152 385.689 549.656V547.832L386.025 548.552C385.689 549.416 385.177 550.08 384.489 550.544C383.817 551.008 383.017 551.24 382.089 551.24ZM399.743 551.192C399.263 551.192 398.895 551.064 398.639 550.808C398.383 550.536 398.255 550.152 398.255 549.656V535.4C398.255 534.904 398.383 534.528 398.639 534.272C398.895 534.016 399.263 533.888 399.743 533.888C400.223 533.888 400.591 534.016 400.847 534.272C401.119 534.528 401.255 534.904 401.255 535.4V541.616H400.919C401.271 540.768 401.815 540.128 402.551 539.696C403.303 539.248 404.151 539.024 405.095 539.024C406.039 539.024 406.815 539.2 407.423 539.552C408.031 539.904 408.487 540.44 408.791 541.16C409.095 541.864 409.247 542.76 409.247 543.848V549.656C409.247 550.152 409.119 550.536 408.863 550.808C408.607 551.064 408.239 551.192 407.759 551.192C407.279 551.192 406.903 551.064 406.631 550.808C406.375 550.536 406.247 550.152 406.247 549.656V543.992C406.247 543.08 406.071 542.416 405.719 542C405.383 541.584 404.855 541.376 404.135 541.376C403.255 541.376 402.551 541.656 402.023 542.216C401.511 542.76 401.255 543.488 401.255 544.4V549.656C401.255 550.68 400.751 551.192 399.743 551.192ZM416.158 551.24C415.31 551.24 414.55 551.08 413.878 550.76C413.222 550.424 412.702 549.976 412.318 549.416C411.95 548.856 411.766 548.224 411.766 547.52C411.766 546.656 411.99 545.976 412.438 545.48C412.886 544.968 413.614 544.6 414.622 544.376C415.63 544.152 416.982 544.04 418.678 544.04H419.878V545.768H418.702C417.71 545.768 416.918 545.816 416.326 545.912C415.734 546.008 415.31 546.176 415.054 546.416C414.814 546.64 414.694 546.96 414.694 547.376C414.694 547.904 414.878 548.336 415.246 548.672C415.614 549.008 416.126 549.176 416.782 549.176C417.31 549.176 417.774 549.056 418.174 548.816C418.59 548.56 418.918 548.216 419.158 547.784C419.398 547.352 419.518 546.856 419.518 546.296V543.536C419.518 542.736 419.342 542.16 418.99 541.808C418.638 541.456 418.046 541.28 417.214 541.28C416.75 541.28 416.246 541.336 415.702 541.448C415.174 541.56 414.614 541.752 414.022 542.024C413.718 542.168 413.446 542.208 413.206 542.144C412.982 542.08 412.806 541.952 412.678 541.76C412.55 541.552 412.486 541.328 412.486 541.088C412.486 540.848 412.55 540.616 412.678 540.392C412.806 540.152 413.022 539.976 413.326 539.864C414.062 539.56 414.766 539.344 415.438 539.216C416.126 539.088 416.75 539.024 417.31 539.024C418.462 539.024 419.406 539.2 420.142 539.552C420.894 539.904 421.454 540.44 421.822 541.16C422.19 541.864 422.374 542.776 422.374 543.896V549.656C422.374 550.152 422.254 550.536 422.014 550.808C421.774 551.064 421.43 551.192 420.982 551.192C420.534 551.192 420.182 551.064 419.926 550.808C419.686 550.536 419.566 550.152 419.566 549.656V548.504H419.758C419.646 549.064 419.422 549.552 419.086 549.968C418.766 550.368 418.358 550.68 417.862 550.904C417.366 551.128 416.798 551.24 416.158 551.24ZM430.054 551.192C429.654 551.192 429.302 551.088 428.998 550.88C428.71 550.672 428.47 550.352 428.278 549.92L424.462 541.064C424.318 540.712 424.262 540.384 424.294 540.08C424.342 539.776 424.486 539.536 424.726 539.36C424.982 539.168 425.326 539.072 425.758 539.072C426.126 539.072 426.422 539.16 426.646 539.336C426.87 539.496 427.07 539.808 427.246 540.272L430.486 548.36H429.766L433.102 540.248C433.278 539.8 433.478 539.496 433.702 539.336C433.942 539.16 434.262 539.072 434.662 539.072C435.014 539.072 435.294 539.168 435.502 539.36C435.71 539.536 435.838 539.776 435.886 540.08C435.934 540.368 435.878 540.688 435.718 541.04L431.83 549.92C431.654 550.352 431.414 550.672 431.11 550.88C430.822 551.088 430.47 551.192 430.054 551.192ZM443.508 551.24C442.18 551.24 441.036 550.992 440.076 550.496C439.116 550 438.372 549.296 437.844 548.384C437.332 547.472 437.076 546.392 437.076 545.144C437.076 543.928 437.324 542.864 437.82 541.952C438.332 541.04 439.028 540.328 439.908 539.816C440.804 539.288 441.82 539.024 442.956 539.024C443.788 539.024 444.532 539.16 445.188 539.432C445.86 539.704 446.428 540.096 446.892 540.608C447.372 541.12 447.732 541.744 447.972 542.48C448.228 543.2 448.356 544.016 448.356 544.928C448.356 545.216 448.252 545.44 448.044 545.6C447.852 545.744 447.572 545.816 447.204 545.816H439.5V544.088H446.244L445.86 544.448C445.86 543.712 445.748 543.096 445.524 542.6C445.316 542.104 445.004 541.728 444.588 541.472C444.188 541.2 443.684 541.064 443.076 541.064C442.404 541.064 441.828 541.224 441.348 541.544C440.884 541.848 440.524 542.288 440.268 542.864C440.028 543.424 439.908 544.096 439.908 544.88V545.048C439.908 546.36 440.212 547.344 440.82 548C441.444 548.64 442.356 548.96 443.556 548.96C443.972 548.96 444.436 548.912 444.948 548.816C445.476 548.704 445.972 548.52 446.436 548.264C446.772 548.072 447.068 547.992 447.324 548.024C447.58 548.04 447.78 548.128 447.924 548.288C448.084 548.448 448.18 548.648 448.212 548.888C448.244 549.112 448.196 549.344 448.068 549.584C447.956 549.824 447.756 550.032 447.468 550.208C446.908 550.56 446.26 550.824 445.524 551C444.804 551.16 444.132 551.24 443.508 551.24ZM461.544 551.24C460.856 551.24 460.128 551.168 459.36 551.024C458.592 550.88 457.904 550.632 457.296 550.28C457.04 550.12 456.856 549.936 456.744 549.728C456.648 549.504 456.608 549.288 456.624 549.08C456.656 548.856 456.736 548.664 456.864 548.504C457.008 548.344 457.184 548.24 457.392 548.192C457.616 548.144 457.856 548.184 458.112 548.312C458.752 548.616 459.352 548.832 459.912 548.96C460.472 549.072 461.024 549.128 461.568 549.128C462.336 549.128 462.904 549 463.272 548.744C463.656 548.472 463.848 548.12 463.848 547.688C463.848 547.32 463.72 547.04 463.464 546.848C463.224 546.64 462.856 546.488 462.36 546.392L459.96 545.936C458.968 545.744 458.208 545.384 457.68 544.856C457.168 544.312 456.912 543.616 456.912 542.768C456.912 542 457.12 541.336 457.536 540.776C457.968 540.216 458.56 539.784 459.312 539.48C460.064 539.176 460.928 539.024 461.904 539.024C462.608 539.024 463.264 539.104 463.872 539.264C464.496 539.408 465.096 539.64 465.672 539.96C465.912 540.088 466.072 540.256 466.152 540.464C466.248 540.672 466.272 540.888 466.224 541.112C466.176 541.32 466.08 541.512 465.936 541.688C465.792 541.848 465.608 541.952 465.384 542C465.176 542.032 464.936 541.984 464.664 541.856C464.168 541.6 463.688 541.416 463.224 541.304C462.776 541.192 462.344 541.136 461.928 541.136C461.144 541.136 460.56 541.272 460.176 541.544C459.808 541.816 459.624 542.176 459.624 542.624C459.624 542.96 459.736 543.24 459.96 543.464C460.184 543.688 460.528 543.84 460.992 543.92L463.392 544.376C464.432 544.568 465.216 544.92 465.744 545.432C466.288 545.944 466.56 546.632 466.56 547.496C466.56 548.664 466.104 549.584 465.192 550.256C464.28 550.912 463.064 551.24 461.544 551.24ZM474.225 551.24C473.185 551.24 472.313 551.064 471.609 550.712C470.921 550.36 470.409 549.848 470.073 549.176C469.737 548.488 469.569 547.64 469.569 546.632V541.52H468.321C467.937 541.52 467.641 541.424 467.433 541.232C467.225 541.024 467.121 540.744 467.121 540.392C467.121 540.024 467.225 539.744 467.433 539.552C467.641 539.36 467.937 539.264 468.321 539.264H469.569V537.08C469.569 536.584 469.697 536.208 469.953 535.952C470.225 535.696 470.601 535.568 471.081 535.568C471.561 535.568 471.929 535.696 472.185 535.952C472.441 536.208 472.569 536.584 472.569 537.08V539.264H475.113C475.497 539.264 475.793 539.36 476.001 539.552C476.209 539.744 476.313 540.024 476.313 540.392C476.313 540.744 476.209 541.024 476.001 541.232C475.793 541.424 475.497 541.52 475.113 541.52H472.569V546.464C472.569 547.232 472.737 547.808 473.073 548.192C473.409 548.576 473.953 548.768 474.705 548.768C474.977 548.768 475.217 548.744 475.425 548.696C475.633 548.648 475.817 548.616 475.977 548.6C476.169 548.584 476.329 548.648 476.457 548.792C476.585 548.92 476.649 549.192 476.649 549.608C476.649 549.928 476.593 550.216 476.481 550.472C476.385 550.712 476.201 550.88 475.929 550.976C475.721 551.04 475.449 551.096 475.113 551.144C474.777 551.208 474.481 551.24 474.225 551.24ZM482.308 551.24C481.332 551.24 480.524 551.064 479.884 550.712C479.244 550.344 478.764 549.8 478.444 549.08C478.14 548.36 477.988 547.464 477.988 546.392V540.584C477.988 540.072 478.116 539.696 478.372 539.456C478.628 539.2 478.996 539.072 479.476 539.072C479.956 539.072 480.324 539.2 480.58 539.456C480.852 539.696 480.988 540.072 480.988 540.584V546.44C480.988 547.272 481.156 547.888 481.492 548.288C481.828 548.688 482.364 548.888 483.1 548.888C483.9 548.888 484.556 548.616 485.068 548.072C485.58 547.512 485.836 546.776 485.836 545.864V540.584C485.836 540.072 485.964 539.696 486.22 539.456C486.476 539.2 486.844 539.072 487.324 539.072C487.804 539.072 488.172 539.2 488.428 539.456C488.7 539.696 488.836 540.072 488.836 540.584V549.656C488.836 550.68 488.348 551.192 487.372 551.192C486.908 551.192 486.548 551.064 486.292 550.808C486.036 550.536 485.908 550.152 485.908 549.656V547.832L486.244 548.552C485.908 549.416 485.396 550.08 484.708 550.544C484.036 551.008 483.236 551.24 482.308 551.24ZM493.494 551.192C493.014 551.192 492.646 551.064 492.39 550.808C492.134 550.536 492.006 550.152 492.006 549.656V540.584C492.006 540.088 492.134 539.712 492.39 539.456C492.646 539.2 493.006 539.072 493.47 539.072C493.934 539.072 494.294 539.2 494.55 539.456C494.806 539.712 494.934 540.088 494.934 540.584V542.336L494.67 541.616C494.99 540.816 495.486 540.184 496.158 539.72C496.83 539.256 497.63 539.024 498.558 539.024C499.502 539.024 500.278 539.248 500.886 539.696C501.494 540.144 501.918 540.832 502.158 541.76H501.822C502.142 540.912 502.67 540.248 503.406 539.768C504.142 539.272 504.99 539.024 505.95 539.024C506.846 539.024 507.582 539.2 508.158 539.552C508.75 539.904 509.19 540.44 509.478 541.16C509.766 541.864 509.91 542.76 509.91 543.848V549.656C509.91 550.152 509.774 550.536 509.502 550.808C509.246 551.064 508.878 551.192 508.398 551.192C507.918 551.192 507.55 551.064 507.294 550.808C507.038 550.536 506.91 550.152 506.91 549.656V543.968C506.91 543.072 506.758 542.416 506.454 542C506.166 541.584 505.67 541.376 504.966 541.376C504.182 541.376 503.566 541.656 503.118 542.216C502.67 542.76 502.446 543.52 502.446 544.496V549.656C502.446 550.152 502.318 550.536 502.062 550.808C501.806 551.064 501.438 551.192 500.958 551.192C500.478 551.192 500.102 551.064 499.83 550.808C499.574 550.536 499.446 550.152 499.446 549.656V543.968C499.446 543.072 499.294 542.416 498.99 542C498.702 541.584 498.214 541.376 497.526 541.376C496.742 541.376 496.126 541.656 495.678 542.216C495.23 542.76 495.006 543.52 495.006 544.496V549.656C495.006 550.68 494.502 551.192 493.494 551.192ZM519.773 551.24C518.781 551.24 517.909 550.992 517.157 550.496C516.421 550 515.933 549.336 515.693 548.504L515.957 547.904V549.656C515.957 550.152 515.829 550.536 515.573 550.808C515.317 551.064 514.957 551.192 514.493 551.192C514.013 551.192 513.645 551.064 513.389 550.808C513.133 550.536 513.005 550.152 513.005 549.656V535.4C513.005 534.904 513.133 534.528 513.389 534.272C513.645 534.016 514.013 533.888 514.493 533.888C514.973 533.888 515.341 534.016 515.597 534.272C515.869 534.528 516.005 534.904 516.005 535.4V541.64H515.717C515.973 540.856 516.469 540.224 517.205 539.744C517.941 539.264 518.797 539.024 519.773 539.024C520.813 539.024 521.717 539.272 522.485 539.768C523.253 540.264 523.853 540.968 524.285 541.88C524.717 542.776 524.933 543.856 524.933 545.12C524.933 546.368 524.717 547.456 524.285 548.384C523.853 549.296 523.245 550 522.461 550.496C521.693 550.992 520.797 551.24 519.773 551.24ZM518.933 548.96C519.525 548.96 520.045 548.816 520.493 548.528C520.941 548.24 521.285 547.816 521.525 547.256C521.781 546.68 521.909 545.968 521.909 545.12C521.909 543.84 521.637 542.888 521.093 542.264C520.549 541.624 519.829 541.304 518.933 541.304C518.341 541.304 517.821 541.448 517.373 541.736C516.925 542.008 516.573 542.432 516.317 543.008C516.077 543.568 515.957 544.272 515.957 545.12C515.957 546.384 516.229 547.344 516.773 548C517.317 548.64 518.037 548.96 518.933 548.96ZM531.404 551.24C530.076 551.24 529.076 550.864 528.404 550.112C527.732 549.344 527.396 548.224 527.396 546.752V535.4C527.396 534.904 527.524 534.528 527.78 534.272C528.036 534.016 528.404 533.888 528.884 533.888C529.364 533.888 529.732 534.016 529.988 534.272C530.26 534.528 530.396 534.904 530.396 535.4V546.608C530.396 547.344 530.548 547.888 530.852 548.24C531.172 548.592 531.62 548.768 532.196 548.768C532.324 548.768 532.444 548.768 532.556 548.768C532.668 548.752 532.78 548.736 532.892 548.72C533.116 548.688 533.268 548.752 533.348 548.912C533.428 549.056 533.468 549.36 533.468 549.824C533.468 550.224 533.388 550.536 533.228 550.76C533.068 550.984 532.804 551.12 532.436 551.168C532.276 551.184 532.108 551.2 531.932 551.216C531.756 551.232 531.58 551.24 531.404 551.24ZM540.727 551.24C539.399 551.24 538.255 550.992 537.295 550.496C536.335 550 535.591 549.296 535.063 548.384C534.551 547.472 534.295 546.392 534.295 545.144C534.295 543.928 534.543 542.864 535.039 541.952C535.551 541.04 536.247 540.328 537.127 539.816C538.023 539.288 539.039 539.024 540.175 539.024C541.007 539.024 541.751 539.16 542.407 539.432C543.079 539.704 543.647 540.096 544.111 540.608C544.591 541.12 544.951 541.744 545.191 542.48C545.447 543.2 545.575 544.016 545.575 544.928C545.575 545.216 545.471 545.44 545.263 545.6C545.071 545.744 544.791 545.816 544.423 545.816H536.719V544.088H543.463L543.079 544.448C543.079 543.712 542.967 543.096 542.743 542.6C542.535 542.104 542.223 541.728 541.807 541.472C541.407 541.2 540.903 541.064 540.295 541.064C539.623 541.064 539.047 541.224 538.567 541.544C538.103 541.848 537.743 542.288 537.487 542.864C537.247 543.424 537.127 544.096 537.127 544.88V545.048C537.127 546.36 537.431 547.344 538.039 548C538.663 548.64 539.575 548.96 540.775 548.96C541.191 548.96 541.655 548.912 542.167 548.816C542.695 548.704 543.191 548.52 543.655 548.264C543.991 548.072 544.287 547.992 544.543 548.024C544.799 548.04 544.999 548.128 545.143 548.288C545.303 548.448 545.399 548.648 545.431 548.888C545.463 549.112 545.415 549.344 545.287 549.584C545.175 549.824 544.975 550.032 544.687 550.208C544.127 550.56 543.479 550.824 542.743 551C542.023 551.16 541.351 551.24 540.727 551.24ZM552.463 551.24C551.439 551.24 550.535 550.992 549.751 550.496C548.983 550 548.383 549.296 547.951 548.384C547.519 547.456 547.303 546.368 547.303 545.12C547.303 543.856 547.519 542.776 547.951 541.88C548.383 540.968 548.983 540.264 549.751 539.768C550.535 539.272 551.439 539.024 552.463 539.024C553.439 539.024 554.287 539.264 555.007 539.744C555.743 540.224 556.239 540.856 556.495 541.64H556.231V535.4C556.231 534.904 556.359 534.528 556.615 534.272C556.871 534.016 557.239 533.888 557.719 533.888C558.199 533.888 558.567 534.016 558.823 534.272C559.095 534.528 559.231 534.904 559.231 535.4V549.656C559.231 550.152 559.103 550.536 558.847 550.808C558.591 551.064 558.223 551.192 557.743 551.192C557.263 551.192 556.895 551.064 556.639 550.808C556.383 550.536 556.255 550.152 556.255 549.656V547.784L556.519 548.504C556.279 549.336 555.791 550 555.055 550.496C554.319 550.992 553.455 551.24 552.463 551.24ZM553.303 548.96C553.895 548.96 554.415 548.816 554.863 548.528C555.311 548.24 555.655 547.816 555.895 547.256C556.151 546.68 556.279 545.968 556.279 545.12C556.279 543.84 556.007 542.888 555.463 542.264C554.919 541.624 554.199 541.304 553.303 541.304C552.711 541.304 552.191 541.448 551.743 541.736C551.295 542.008 550.943 542.432 550.687 543.008C550.447 543.568 550.327 544.272 550.327 545.12C550.327 546.384 550.599 547.344 551.143 548C551.687 548.64 552.407 548.96 553.303 548.96ZM574.209 551.24C572.993 551.24 571.937 550.992 571.041 550.496C570.145 550 569.449 549.296 568.953 548.384C568.457 547.456 568.209 546.368 568.209 545.12C568.209 544.176 568.345 543.336 568.617 542.6C568.905 541.848 569.313 541.208 569.841 540.68C570.369 540.136 571.001 539.728 571.737 539.456C572.473 539.168 573.297 539.024 574.209 539.024C575.425 539.024 576.481 539.272 577.377 539.768C578.273 540.264 578.969 540.968 579.465 541.88C579.961 542.792 580.209 543.872 580.209 545.12C580.209 546.064 580.065 546.912 579.777 547.664C579.505 548.416 579.105 549.064 578.577 549.608C578.049 550.136 577.417 550.544 576.681 550.832C575.945 551.104 575.121 551.24 574.209 551.24ZM574.209 548.96C574.801 548.96 575.321 548.816 575.769 548.528C576.217 548.24 576.561 547.816 576.801 547.256C577.057 546.68 577.185 545.968 577.185 545.12C577.185 543.84 576.913 542.888 576.369 542.264C575.825 541.624 575.105 541.304 574.209 541.304C573.617 541.304 573.097 541.448 572.649 541.736C572.201 542.008 571.849 542.432 571.593 543.008C571.353 543.568 571.233 544.272 571.233 545.12C571.233 546.384 571.505 547.344 572.049 548C572.593 548.64 573.313 548.96 574.209 548.96ZM584.173 551.192C583.693 551.192 583.325 551.064 583.069 550.808C582.813 550.536 582.685 550.152 582.685 549.656V540.584C582.685 540.088 582.813 539.712 583.069 539.456C583.325 539.2 583.685 539.072 584.149 539.072C584.613 539.072 584.973 539.2 585.229 539.456C585.485 539.712 585.613 540.088 585.613 540.584V542.216L585.349 541.616C585.701 540.768 586.245 540.128 586.981 539.696C587.733 539.248 588.581 539.024 589.525 539.024C590.469 539.024 591.245 539.2 591.853 539.552C592.461 539.904 592.917 540.44 593.221 541.16C593.525 541.864 593.677 542.76 593.677 543.848V549.656C593.677 550.152 593.549 550.536 593.293 550.808C593.037 551.064 592.669 551.192 592.189 551.192C591.709 551.192 591.333 551.064 591.061 550.808C590.805 550.536 590.677 550.152 590.677 549.656V543.992C590.677 543.08 590.501 542.416 590.149 542C589.813 541.584 589.285 541.376 588.565 541.376C587.685 541.376 586.981 541.656 586.453 542.216C585.941 542.76 585.685 543.488 585.685 544.4V549.656C585.685 550.68 585.181 551.192 584.173 551.192ZM602.1 551.24C601.06 551.24 600.188 551.064 599.484 550.712C598.796 550.36 598.284 549.848 597.948 549.176C597.612 548.488 597.444 547.64 597.444 546.632V541.52H596.196C595.812 541.52 595.516 541.424 595.308 541.232C595.1 541.024 594.996 540.744 594.996 540.392C594.996 540.024 595.1 539.744 595.308 539.552C595.516 539.36 595.812 539.264 596.196 539.264H597.444V537.08C597.444 536.584 597.572 536.208 597.828 535.952C598.1 535.696 598.476 535.568 598.956 535.568C599.436 535.568 599.804 535.696 600.06 535.952C600.316 536.208 600.444 536.584 600.444 537.08V539.264H602.988C603.372 539.264 603.668 539.36 603.876 539.552C604.084 539.744 604.188 540.024 604.188 540.392C604.188 540.744 604.084 541.024 603.876 541.232C603.668 541.424 603.372 541.52 602.988 541.52H600.444V546.464C600.444 547.232 600.612 547.808 600.948 548.192C601.284 548.576 601.828 548.768 602.58 548.768C602.852 548.768 603.092 548.744 603.3 548.696C603.508 548.648 603.692 548.616 603.852 548.6C604.044 548.584 604.204 548.648 604.332 548.792C604.46 548.92 604.524 549.192 604.524 549.608C604.524 549.928 604.468 550.216 604.356 550.472C604.26 550.712 604.076 550.88 603.804 550.976C603.596 551.04 603.324 551.096 602.988 551.144C602.652 551.208 602.356 551.24 602.1 551.24ZM611.17 551.24C609.954 551.24 608.898 550.992 608.002 550.496C607.106 550 606.41 549.296 605.914 548.384C605.418 547.456 605.17 546.368 605.17 545.12C605.17 544.176 605.306 543.336 605.578 542.6C605.866 541.848 606.274 541.208 606.802 540.68C607.33 540.136 607.962 539.728 608.698 539.456C609.434 539.168 610.258 539.024 611.17 539.024C612.386 539.024 613.442 539.272 614.338 539.768C615.234 540.264 615.93 540.968 616.426 541.88C616.922 542.792 617.17 543.872 617.17 545.12C617.17 546.064 617.026 546.912 616.738 547.664C616.466 548.416 616.066 549.064 615.538 549.608C615.01 550.136 614.378 550.544 613.642 550.832C612.906 551.104 612.082 551.24 611.17 551.24ZM611.17 548.96C611.762 548.96 612.282 548.816 612.73 548.528C613.178 548.24 613.522 547.816 613.762 547.256C614.018 546.68 614.146 545.968 614.146 545.12C614.146 543.84 613.874 542.888 613.33 542.264C612.786 541.624 612.066 541.304 611.17 541.304C610.578 541.304 610.058 541.448 609.61 541.736C609.162 542.008 608.81 542.432 608.554 543.008C608.314 543.568 608.194 544.272 608.194 545.12C608.194 546.384 608.466 547.344 609.01 548C609.554 548.64 610.274 548.96 611.17 548.96ZM630.026 551.24C629.178 551.24 628.418 551.08 627.746 550.76C627.09 550.424 626.57 549.976 626.186 549.416C625.818 548.856 625.634 548.224 625.634 547.52C625.634 546.656 625.858 545.976 626.306 545.48C626.754 544.968 627.482 544.6 628.49 544.376C629.498 544.152 630.85 544.04 632.546 544.04H633.746V545.768H632.57C631.578 545.768 630.786 545.816 630.194 545.912C629.602 546.008 629.178 546.176 628.922 546.416C628.682 546.64 628.562 546.96 628.562 547.376C628.562 547.904 628.746 548.336 629.114 548.672C629.482 549.008 629.994 549.176 630.65 549.176C631.178 549.176 631.642 549.056 632.042 548.816C632.458 548.56 632.786 548.216 633.026 547.784C633.266 547.352 633.386 546.856 633.386 546.296V543.536C633.386 542.736 633.21 542.16 632.858 541.808C632.506 541.456 631.914 541.28 631.082 541.28C630.618 541.28 630.114 541.336 629.57 541.448C629.042 541.56 628.482 541.752 627.89 542.024C627.586 542.168 627.314 542.208 627.074 542.144C626.85 542.08 626.674 541.952 626.546 541.76C626.418 541.552 626.354 541.328 626.354 541.088C626.354 540.848 626.418 540.616 626.546 540.392C626.674 540.152 626.89 539.976 627.194 539.864C627.93 539.56 628.634 539.344 629.306 539.216C629.994 539.088 630.618 539.024 631.178 539.024C632.33 539.024 633.274 539.2 634.01 539.552C634.762 539.904 635.322 540.44 635.69 541.16C636.058 541.864 636.242 542.776 636.242 543.896V549.656C636.242 550.152 636.122 550.536 635.882 550.808C635.642 551.064 635.298 551.192 634.85 551.192C634.402 551.192 634.05 551.064 633.794 550.808C633.554 550.536 633.434 550.152 633.434 549.656V548.504H633.626C633.514 549.064 633.29 549.552 632.954 549.968C632.634 550.368 632.226 550.68 631.73 550.904C631.234 551.128 630.666 551.24 630.026 551.24ZM647.29 555.512C646.81 555.512 646.442 555.384 646.186 555.128C645.93 554.872 645.802 554.496 645.802 554V540.584C645.802 540.088 645.93 539.712 646.186 539.456C646.442 539.2 646.802 539.072 647.266 539.072C647.746 539.072 648.114 539.2 648.37 539.456C648.626 539.712 648.754 540.088 648.754 540.584V542.456L648.49 541.736C648.73 540.92 649.218 540.264 649.954 539.768C650.706 539.272 651.578 539.024 652.57 539.024C653.594 539.024 654.49 539.272 655.258 539.768C656.042 540.264 656.65 540.968 657.082 541.88C657.514 542.776 657.73 543.856 657.73 545.12C657.73 546.368 657.514 547.456 657.082 548.384C656.65 549.296 656.05 550 655.282 550.496C654.514 550.992 653.61 551.24 652.57 551.24C651.594 551.24 650.738 551 650.002 550.52C649.266 550.024 648.77 549.384 648.514 548.6H648.802V554C648.802 554.496 648.666 554.872 648.394 555.128C648.138 555.384 647.77 555.512 647.29 555.512ZM651.73 548.96C652.322 548.96 652.842 548.816 653.29 548.528C653.738 548.24 654.082 547.816 654.322 547.256C654.578 546.68 654.706 545.968 654.706 545.12C654.706 543.84 654.434 542.888 653.89 542.264C653.346 541.624 652.626 541.304 651.73 541.304C651.138 541.304 650.618 541.448 650.17 541.736C649.722 542.008 649.37 542.432 649.114 543.008C648.874 543.568 648.754 544.272 648.754 545.12C648.754 546.384 649.026 547.344 649.57 548C650.114 548.64 650.834 548.96 651.73 548.96ZM664.057 551.24C663.209 551.24 662.449 551.08 661.777 550.76C661.121 550.424 660.601 549.976 660.217 549.416C659.849 548.856 659.665 548.224 659.665 547.52C659.665 546.656 659.889 545.976 660.337 545.48C660.785 544.968 661.513 544.6 662.521 544.376C663.529 544.152 664.881 544.04 666.577 544.04H667.777V545.768H666.601C665.609 545.768 664.817 545.816 664.225 545.912C663.633 546.008 663.209 546.176 662.953 546.416C662.713 546.64 662.593 546.96 662.593 547.376C662.593 547.904 662.777 548.336 663.145 548.672C663.513 549.008 664.025 549.176 664.681 549.176C665.209 549.176 665.673 549.056 666.073 548.816C666.489 548.56 666.817 548.216 667.057 547.784C667.297 547.352 667.417 546.856 667.417 546.296V543.536C667.417 542.736 667.241 542.16 666.889 541.808C666.537 541.456 665.945 541.28 665.113 541.28C664.649 541.28 664.145 541.336 663.601 541.448C663.073 541.56 662.513 541.752 661.921 542.024C661.617 542.168 661.345 542.208 661.105 542.144C660.881 542.08 660.705 541.952 660.577 541.76C660.449 541.552 660.385 541.328 660.385 541.088C660.385 540.848 660.449 540.616 660.577 540.392C660.705 540.152 660.921 539.976 661.225 539.864C661.961 539.56 662.665 539.344 663.337 539.216C664.025 539.088 664.649 539.024 665.209 539.024C666.361 539.024 667.305 539.2 668.041 539.552C668.793 539.904 669.353 540.44 669.721 541.16C670.089 541.864 670.273 542.776 670.273 543.896V549.656C670.273 550.152 670.153 550.536 669.913 550.808C669.673 551.064 669.329 551.192 668.881 551.192C668.433 551.192 668.081 551.064 667.825 550.808C667.585 550.536 667.465 550.152 667.465 549.656V548.504H667.657C667.545 549.064 667.321 549.552 666.985 549.968C666.665 550.368 666.257 550.68 665.761 550.904C665.265 551.128 664.697 551.24 664.057 551.24ZM678.79 555.56C677.926 555.56 677.086 555.48 676.27 555.32C675.47 555.16 674.742 554.912 674.086 554.576C673.782 554.416 673.574 554.224 673.462 554C673.366 553.776 673.334 553.544 673.366 553.304C673.414 553.08 673.51 552.88 673.654 552.704C673.814 552.528 674.006 552.408 674.23 552.344C674.454 552.28 674.686 552.312 674.926 552.44C675.63 552.792 676.294 553.016 676.918 553.112C677.558 553.224 678.102 553.28 678.55 553.28C679.622 553.28 680.422 553.016 680.95 552.488C681.494 551.976 681.766 551.208 681.766 550.184V548.024H681.982C681.742 548.84 681.238 549.496 680.47 549.992C679.718 550.472 678.862 550.712 677.902 550.712C676.846 550.712 675.926 550.472 675.142 549.992C674.358 549.496 673.75 548.808 673.318 547.928C672.886 547.048 672.67 546.024 672.67 544.856C672.67 543.976 672.79 543.184 673.03 542.48C673.286 541.76 673.638 541.144 674.086 540.632C674.55 540.12 675.102 539.728 675.742 539.456C676.398 539.168 677.118 539.024 677.902 539.024C678.894 539.024 679.758 539.272 680.494 539.768C681.246 540.248 681.734 540.888 681.958 541.688L681.718 542.288V540.584C681.718 540.088 681.846 539.712 682.102 539.456C682.374 539.2 682.742 539.072 683.206 539.072C683.686 539.072 684.054 539.2 684.31 539.456C684.566 539.712 684.694 540.088 684.694 540.584V549.824C684.694 551.728 684.19 553.16 683.182 554.12C682.174 555.08 680.71 555.56 678.79 555.56ZM678.718 548.432C679.342 548.432 679.878 548.288 680.326 548C680.774 547.712 681.118 547.304 681.358 546.776C681.614 546.232 681.742 545.592 681.742 544.856C681.742 543.752 681.47 542.888 680.926 542.264C680.382 541.624 679.646 541.304 678.718 541.304C678.094 541.304 677.558 541.448 677.11 541.736C676.662 542.024 676.31 542.432 676.054 542.96C675.814 543.488 675.694 544.12 675.694 544.856C675.694 545.96 675.966 546.832 676.51 547.472C677.054 548.112 677.79 548.432 678.718 548.432ZM693.586 551.24C692.258 551.24 691.114 550.992 690.154 550.496C689.194 550 688.45 549.296 687.922 548.384C687.41 547.472 687.154 546.392 687.154 545.144C687.154 543.928 687.402 542.864 687.898 541.952C688.41 541.04 689.106 540.328 689.986 539.816C690.882 539.288 691.898 539.024 693.034 539.024C693.866 539.024 694.61 539.16 695.266 539.432C695.938 539.704 696.506 540.096 696.97 540.608C697.45 541.12 697.81 541.744 698.05 542.48C698.306 543.2 698.434 544.016 698.434 544.928C698.434 545.216 698.33 545.44 698.122 545.6C697.93 545.744 697.65 545.816 697.282 545.816H689.578V544.088H696.322L695.938 544.448C695.938 543.712 695.826 543.096 695.602 542.6C695.394 542.104 695.082 541.728 694.666 541.472C694.266 541.2 693.762 541.064 693.154 541.064C692.482 541.064 691.906 541.224 691.426 541.544C690.962 541.848 690.602 542.288 690.346 542.864C690.106 543.424 689.986 544.096 689.986 544.88V545.048C689.986 546.36 690.29 547.344 690.898 548C691.522 548.64 692.434 548.96 693.634 548.96C694.05 548.96 694.514 548.912 695.026 548.816C695.554 548.704 696.05 548.52 696.514 548.264C696.85 548.072 697.146 547.992 697.402 548.024C697.658 548.04 697.858 548.128 698.002 548.288C698.162 548.448 698.258 548.648 698.29 548.888C698.322 549.112 698.274 549.344 698.146 549.584C698.034 549.824 697.834 550.032 697.546 550.208C696.986 550.56 696.338 550.824 695.602 551C694.882 551.16 694.21 551.24 693.586 551.24ZM712.702 551.24C711.662 551.24 710.79 551.064 710.086 550.712C709.398 550.36 708.886 549.848 708.55 549.176C708.214 548.488 708.046 547.64 708.046 546.632V541.52H706.798C706.414 541.52 706.118 541.424 705.91 541.232C705.702 541.024 705.598 540.744 705.598 540.392C705.598 540.024 705.702 539.744 705.91 539.552C706.118 539.36 706.414 539.264 706.798 539.264H708.046V537.08C708.046 536.584 708.174 536.208 708.43 535.952C708.702 535.696 709.078 535.568 709.558 535.568C710.038 535.568 710.406 535.696 710.662 535.952C710.918 536.208 711.046 536.584 711.046 537.08V539.264H713.59C713.974 539.264 714.27 539.36 714.478 539.552C714.686 539.744 714.79 540.024 714.79 540.392C714.79 540.744 714.686 541.024 714.478 541.232C714.27 541.424 713.974 541.52 713.59 541.52H711.046V546.464C711.046 547.232 711.214 547.808 711.55 548.192C711.886 548.576 712.43 548.768 713.182 548.768C713.454 548.768 713.694 548.744 713.902 548.696C714.11 548.648 714.294 548.616 714.454 548.6C714.646 548.584 714.806 548.648 714.934 548.792C715.062 548.92 715.126 549.192 715.126 549.608C715.126 549.928 715.07 550.216 714.958 550.472C714.862 550.712 714.678 550.88 714.406 550.976C714.198 551.04 713.926 551.096 713.59 551.144C713.254 551.208 712.958 551.24 712.702 551.24ZM718.329 551.192C717.849 551.192 717.481 551.064 717.225 550.808C716.969 550.536 716.841 550.152 716.841 549.656V535.4C716.841 534.904 716.969 534.528 717.225 534.272C717.481 534.016 717.849 533.888 718.329 533.888C718.809 533.888 719.177 534.016 719.433 534.272C719.705 534.528 719.841 534.904 719.841 535.4V541.616H719.505C719.857 540.768 720.401 540.128 721.137 539.696C721.889 539.248 722.737 539.024 723.681 539.024C724.625 539.024 725.401 539.2 726.009 539.552C726.617 539.904 727.073 540.44 727.377 541.16C727.681 541.864 727.833 542.76 727.833 543.848V549.656C727.833 550.152 727.705 550.536 727.449 550.808C727.193 551.064 726.825 551.192 726.345 551.192C725.865 551.192 725.489 551.064 725.217 550.808C724.961 550.536 724.833 550.152 724.833 549.656V543.992C724.833 543.08 724.657 542.416 724.305 542C723.969 541.584 723.441 541.376 722.721 541.376C721.841 541.376 721.137 541.656 720.609 542.216C720.097 542.76 719.841 543.488 719.841 544.4V549.656C719.841 550.68 719.337 551.192 718.329 551.192ZM734.744 551.24C733.896 551.24 733.136 551.08 732.464 550.76C731.808 550.424 731.288 549.976 730.904 549.416C730.536 548.856 730.352 548.224 730.352 547.52C730.352 546.656 730.576 545.976 731.024 545.48C731.472 544.968 732.2 544.6 733.208 544.376C734.216 544.152 735.568 544.04 737.264 544.04H738.464V545.768H737.288C736.296 545.768 735.504 545.816 734.912 545.912C734.32 546.008 733.896 546.176 733.64 546.416C733.4 546.64 733.28 546.96 733.28 547.376C733.28 547.904 733.464 548.336 733.832 548.672C734.2 549.008 734.712 549.176 735.368 549.176C735.896 549.176 736.36 549.056 736.76 548.816C737.176 548.56 737.504 548.216 737.744 547.784C737.984 547.352 738.104 546.856 738.104 546.296V543.536C738.104 542.736 737.928 542.16 737.576 541.808C737.224 541.456 736.632 541.28 735.8 541.28C735.336 541.28 734.832 541.336 734.288 541.448C733.76 541.56 733.2 541.752 732.608 542.024C732.304 542.168 732.032 542.208 731.792 542.144C731.568 542.08 731.392 541.952 731.264 541.76C731.136 541.552 731.072 541.328 731.072 541.088C731.072 540.848 731.136 540.616 731.264 540.392C731.392 540.152 731.608 539.976 731.912 539.864C732.648 539.56 733.352 539.344 734.024 539.216C734.712 539.088 735.336 539.024 735.896 539.024C737.048 539.024 737.992 539.2 738.728 539.552C739.48 539.904 740.04 540.44 740.408 541.16C740.776 541.864 740.96 542.776 740.96 543.896V549.656C740.96 550.152 740.84 550.536 740.6 550.808C740.36 551.064 740.016 551.192 739.568 551.192C739.12 551.192 738.768 551.064 738.512 550.808C738.272 550.536 738.152 550.152 738.152 549.656V548.504H738.344C738.232 549.064 738.008 549.552 737.672 549.968C737.352 550.368 736.944 550.68 736.448 550.904C735.952 551.128 735.384 551.24 734.744 551.24ZM749.381 551.24C748.341 551.24 747.469 551.064 746.765 550.712C746.077 550.36 745.565 549.848 745.229 549.176C744.893 548.488 744.725 547.64 744.725 546.632V541.52H743.477C743.093 541.52 742.797 541.424 742.589 541.232C742.381 541.024 742.277 540.744 742.277 540.392C742.277 540.024 742.381 539.744 742.589 539.552C742.797 539.36 743.093 539.264 743.477 539.264H744.725V537.08C744.725 536.584 744.853 536.208 745.109 535.952C745.381 535.696 745.757 535.568 746.237 535.568C746.717 535.568 747.085 535.696 747.341 535.952C747.597 536.208 747.725 536.584 747.725 537.08V539.264H750.269C750.653 539.264 750.949 539.36 751.157 539.552C751.365 539.744 751.469 540.024 751.469 540.392C751.469 540.744 751.365 541.024 751.157 541.232C750.949 541.424 750.653 541.52 750.269 541.52H747.725V546.464C747.725 547.232 747.893 547.808 748.229 548.192C748.565 548.576 749.109 548.768 749.861 548.768C750.133 548.768 750.373 548.744 750.581 548.696C750.789 548.648 750.973 548.616 751.133 548.6C751.325 548.584 751.485 548.648 751.613 548.792C751.741 548.92 751.805 549.192 751.805 549.608C751.805 549.928 751.749 550.216 751.637 550.472C751.541 550.712 751.357 550.88 751.085 550.976C750.877 551.04 750.605 551.096 750.269 551.144C749.933 551.208 749.637 551.24 749.381 551.24ZM764.244 551.24C763.22 551.24 762.316 550.992 761.532 550.496C760.764 550 760.164 549.296 759.732 548.384C759.3 547.456 759.084 546.368 759.084 545.12C759.084 543.856 759.3 542.776 759.732 541.88C760.164 540.968 760.764 540.264 761.532 539.768C762.316 539.272 763.22 539.024 764.244 539.024C765.22 539.024 766.068 539.264 766.788 539.744C767.524 540.224 768.02 540.856 768.276 541.64H768.012V535.4C768.012 534.904 768.14 534.528 768.396 534.272C768.652 534.016 769.02 533.888 769.5 533.888C769.98 533.888 770.348 534.016 770.604 534.272C770.876 534.528 771.012 534.904 771.012 535.4V549.656C771.012 550.152 770.884 550.536 770.628 550.808C770.372 551.064 770.004 551.192 769.524 551.192C769.044 551.192 768.676 551.064 768.42 550.808C768.164 550.536 768.036 550.152 768.036 549.656V547.784L768.3 548.504C768.06 549.336 767.572 550 766.836 550.496C766.1 550.992 765.236 551.24 764.244 551.24ZM765.084 548.96C765.676 548.96 766.196 548.816 766.644 548.528C767.092 548.24 767.436 547.816 767.676 547.256C767.932 546.68 768.06 545.968 768.06 545.12C768.06 543.84 767.788 542.888 767.244 542.264C766.7 541.624 765.98 541.304 765.084 541.304C764.492 541.304 763.972 541.448 763.524 541.736C763.076 542.008 762.724 542.432 762.468 543.008C762.228 543.568 762.108 544.272 762.108 545.12C762.108 546.384 762.38 547.344 762.924 548C763.468 548.64 764.188 548.96 765.084 548.96ZM779.475 551.24C778.259 551.24 777.203 550.992 776.307 550.496C775.411 550 774.715 549.296 774.219 548.384C773.723 547.456 773.475 546.368 773.475 545.12C773.475 544.176 773.611 543.336 773.883 542.6C774.171 541.848 774.579 541.208 775.107 540.68C775.635 540.136 776.267 539.728 777.003 539.456C777.739 539.168 778.563 539.024 779.475 539.024C780.691 539.024 781.747 539.272 782.643 539.768C783.539 540.264 784.235 540.968 784.731 541.88C785.227 542.792 785.475 543.872 785.475 545.12C785.475 546.064 785.331 546.912 785.043 547.664C784.771 548.416 784.371 549.064 783.843 549.608C783.315 550.136 782.683 550.544 781.947 550.832C781.211 551.104 780.387 551.24 779.475 551.24ZM779.475 548.96C780.067 548.96 780.587 548.816 781.035 548.528C781.483 548.24 781.827 547.816 782.067 547.256C782.323 546.68 782.451 545.968 782.451 545.12C782.451 543.84 782.179 542.888 781.635 542.264C781.091 541.624 780.371 541.304 779.475 541.304C778.883 541.304 778.363 541.448 777.915 541.736C777.467 542.008 777.115 542.432 776.859 543.008C776.619 543.568 776.499 544.272 776.499 545.12C776.499 546.384 776.771 547.344 777.315 548C777.859 548.64 778.579 548.96 779.475 548.96ZM793.735 551.24C792.407 551.24 791.263 550.992 790.303 550.496C789.343 550 788.599 549.296 788.071 548.384C787.559 547.472 787.303 546.392 787.303 545.144C787.303 543.928 787.551 542.864 788.047 541.952C788.559 541.04 789.255 540.328 790.135 539.816C791.031 539.288 792.047 539.024 793.183 539.024C794.015 539.024 794.759 539.16 795.415 539.432C796.087 539.704 796.655 540.096 797.119 540.608C797.599 541.12 797.959 541.744 798.199 542.48C798.455 543.2 798.583 544.016 798.583 544.928C798.583 545.216 798.479 545.44 798.271 545.6C798.079 545.744 797.799 545.816 797.431 545.816H789.727V544.088H796.471L796.087 544.448C796.087 543.712 795.975 543.096 795.751 542.6C795.543 542.104 795.231 541.728 794.815 541.472C794.415 541.2 793.911 541.064 793.303 541.064C792.631 541.064 792.055 541.224 791.575 541.544C791.111 541.848 790.751 542.288 790.495 542.864C790.255 543.424 790.135 544.096 790.135 544.88V545.048C790.135 546.36 790.439 547.344 791.047 548C791.671 548.64 792.583 548.96 793.783 548.96C794.199 548.96 794.663 548.912 795.175 548.816C795.703 548.704 796.199 548.52 796.663 548.264C796.999 548.072 797.295 547.992 797.551 548.024C797.807 548.04 798.007 548.128 798.151 548.288C798.311 548.448 798.407 548.648 798.439 548.888C798.471 549.112 798.423 549.344 798.295 549.584C798.183 549.824 797.983 550.032 797.695 550.208C797.135 550.56 796.487 550.824 795.751 551C795.031 551.16 794.359 551.24 793.735 551.24ZM805.254 551.24C804.566 551.24 803.838 551.168 803.07 551.024C802.302 550.88 801.614 550.632 801.006 550.28C800.75 550.12 800.566 549.936 800.454 549.728C800.358 549.504 800.318 549.288 800.334 549.08C800.366 548.856 800.446 548.664 800.574 548.504C800.718 548.344 800.894 548.24 801.102 548.192C801.326 548.144 801.566 548.184 801.822 548.312C802.462 548.616 803.062 548.832 803.622 548.96C804.182 549.072 804.734 549.128 805.278 549.128C806.046 549.128 806.614 549 806.982 548.744C807.366 548.472 807.558 548.12 807.558 547.688C807.558 547.32 807.43 547.04 807.174 546.848C806.934 546.64 806.566 546.488 806.07 546.392L803.67 545.936C802.678 545.744 801.918 545.384 801.39 544.856C800.878 544.312 800.622 543.616 800.622 542.768C800.622 542 800.83 541.336 801.246 540.776C801.678 540.216 802.27 539.784 803.022 539.48C803.774 539.176 804.638 539.024 805.614 539.024C806.318 539.024 806.974 539.104 807.582 539.264C808.206 539.408 808.806 539.64 809.382 539.96C809.622 540.088 809.782 540.256 809.862 540.464C809.958 540.672 809.982 540.888 809.934 541.112C809.886 541.32 809.79 541.512 809.646 541.688C809.502 541.848 809.318 541.952 809.094 542C808.886 542.032 808.646 541.984 808.374 541.856C807.878 541.6 807.398 541.416 806.934 541.304C806.486 541.192 806.054 541.136 805.638 541.136C804.854 541.136 804.27 541.272 803.886 541.544C803.518 541.816 803.334 542.176 803.334 542.624C803.334 542.96 803.446 543.24 803.67 543.464C803.894 543.688 804.238 543.84 804.702 543.92L807.102 544.376C808.142 544.568 808.926 544.92 809.454 545.432C809.998 545.944 810.27 546.632 810.27 547.496C810.27 548.664 809.814 549.584 808.902 550.256C807.99 550.912 806.774 551.24 805.254 551.24ZM814.165 551.192C813.685 551.192 813.317 551.064 813.061 550.808C812.805 550.536 812.677 550.152 812.677 549.656V540.584C812.677 540.088 812.805 539.712 813.061 539.456C813.317 539.2 813.677 539.072 814.141 539.072C814.605 539.072 814.965 539.2 815.221 539.456C815.477 539.712 815.605 540.088 815.605 540.584V542.216L815.341 541.616C815.693 540.768 816.237 540.128 816.973 539.696C817.725 539.248 818.573 539.024 819.517 539.024C820.461 539.024 821.237 539.2 821.845 539.552C822.453 539.904 822.909 540.44 823.213 541.16C823.517 541.864 823.669 542.76 823.669 543.848V549.656C823.669 550.152 823.541 550.536 823.285 550.808C823.029 551.064 822.661 551.192 822.181 551.192C821.701 551.192 821.325 551.064 821.053 550.808C820.797 550.536 820.669 550.152 820.669 549.656V543.992C820.669 543.08 820.493 542.416 820.141 542C819.805 541.584 819.277 541.376 818.557 541.376C817.677 541.376 816.973 541.656 816.445 542.216C815.933 542.76 815.677 543.488 815.677 544.4V549.656C815.677 550.68 815.173 551.192 814.165 551.192ZM828.118 539.96C827.91 540.216 827.686 540.36 827.446 540.392C827.222 540.424 827.022 540.384 826.846 540.272C826.67 540.144 826.574 539.968 826.558 539.744C826.542 539.504 826.646 539.248 826.87 538.976C827.19 538.576 827.406 538.176 827.518 537.776C827.63 537.376 827.686 537.024 827.686 536.72L827.806 537.512C827.246 537.512 826.79 537.352 826.438 537.032C826.102 536.712 825.934 536.28 825.934 535.736C825.934 535.208 826.094 534.784 826.414 534.464C826.734 534.128 827.166 533.96 827.71 533.96C828.27 533.96 828.71 534.152 829.03 534.536C829.35 534.904 829.51 535.44 829.51 536.144C829.51 536.528 829.47 536.928 829.39 537.344C829.326 537.744 829.19 538.168 828.982 538.616C828.79 539.048 828.502 539.496 828.118 539.96ZM837.741 551.24C836.701 551.24 835.829 551.064 835.125 550.712C834.437 550.36 833.925 549.848 833.589 549.176C833.253 548.488 833.085 547.64 833.085 546.632V541.52H831.837C831.453 541.52 831.157 541.424 830.949 541.232C830.741 541.024 830.637 540.744 830.637 540.392C830.637 540.024 830.741 539.744 830.949 539.552C831.157 539.36 831.453 539.264 831.837 539.264H833.085V537.08C833.085 536.584 833.213 536.208 833.469 535.952C833.741 535.696 834.117 535.568 834.597 535.568C835.077 535.568 835.445 535.696 835.701 535.952C835.957 536.208 836.085 536.584 836.085 537.08V539.264H838.629C839.013 539.264 839.309 539.36 839.517 539.552C839.725 539.744 839.829 540.024 839.829 540.392C839.829 540.744 839.725 541.024 839.517 541.232C839.309 541.424 839.013 541.52 838.629 541.52H836.085V546.464C836.085 547.232 836.253 547.808 836.589 548.192C836.925 548.576 837.469 548.768 838.221 548.768C838.493 548.768 838.733 548.744 838.941 548.696C839.149 548.648 839.333 548.616 839.493 548.6C839.685 548.584 839.845 548.648 839.973 548.792C840.101 548.92 840.165 549.192 840.165 549.608C840.165 549.928 840.109 550.216 839.997 550.472C839.901 550.712 839.717 550.88 839.445 550.976C839.237 551.04 838.965 551.096 838.629 551.144C838.293 551.208 837.997 551.24 837.741 551.24ZM853.875 551.24C852.547 551.24 851.403 550.992 850.443 550.496C849.483 550 848.739 549.296 848.211 548.384C847.699 547.472 847.443 546.392 847.443 545.144C847.443 543.928 847.691 542.864 848.187 541.952C848.699 541.04 849.395 540.328 850.275 539.816C851.171 539.288 852.187 539.024 853.323 539.024C854.155 539.024 854.899 539.16 855.555 539.432C856.227 539.704 856.795 540.096 857.259 540.608C857.739 541.12 858.099 541.744 858.339 542.48C858.595 543.2 858.723 544.016 858.723 544.928C858.723 545.216 858.619 545.44 858.411 545.6C858.219 545.744 857.939 545.816 857.571 545.816H849.867V544.088H856.611L856.227 544.448C856.227 543.712 856.115 543.096 855.891 542.6C855.683 542.104 855.371 541.728 854.955 541.472C854.555 541.2 854.051 541.064 853.443 541.064C852.771 541.064 852.195 541.224 851.715 541.544C851.251 541.848 850.891 542.288 850.635 542.864C850.395 543.424 850.275 544.096 850.275 544.88V545.048C850.275 546.36 850.579 547.344 851.187 548C851.811 548.64 852.723 548.96 853.923 548.96C854.339 548.96 854.803 548.912 855.315 548.816C855.843 548.704 856.339 548.52 856.803 548.264C857.139 548.072 857.435 547.992 857.691 548.024C857.947 548.04 858.147 548.128 858.291 548.288C858.451 548.448 858.547 548.648 858.579 548.888C858.611 549.112 858.563 549.344 858.435 549.584C858.323 549.824 858.123 550.032 857.835 550.208C857.275 550.56 856.627 550.824 855.891 551C855.171 551.16 854.499 551.24 853.875 551.24ZM861.845 551.12C861.493 551.12 861.197 551.024 860.957 550.832C860.733 550.624 860.613 550.36 860.597 550.04C860.597 549.72 860.733 549.384 861.005 549.032L864.893 544.232V545.648L861.245 541.16C860.957 540.808 860.821 540.472 860.837 540.152C860.853 539.832 860.973 539.576 861.197 539.384C861.437 539.176 861.733 539.072 862.085 539.072C862.453 539.072 862.757 539.136 862.997 539.264C863.253 539.392 863.485 539.592 863.693 539.864L866.573 543.56H865.517L868.421 539.864C868.645 539.592 868.877 539.392 869.117 539.264C869.357 539.136 869.653 539.072 870.005 539.072C870.373 539.072 870.669 539.176 870.893 539.384C871.117 539.592 871.229 539.856 871.229 540.176C871.245 540.496 871.109 540.832 870.821 541.184L867.197 545.624V544.28L871.085 549.032C871.373 549.368 871.509 549.696 871.493 550.016C871.477 550.336 871.349 550.6 871.109 550.808C870.885 551.016 870.589 551.12 870.221 551.12C869.869 551.12 869.573 551.056 869.333 550.928C869.093 550.8 868.861 550.6 868.637 550.328L865.517 546.392H866.525L863.429 550.328C863.221 550.584 862.997 550.784 862.757 550.928C862.517 551.056 862.213 551.12 861.845 551.12ZM875.618 551.168C875.138 551.168 874.77 551.024 874.514 550.736C874.258 550.448 874.13 550.048 874.13 549.536V540.728C874.13 540.2 874.258 539.8 874.514 539.528C874.77 539.24 875.138 539.096 875.618 539.096C876.098 539.096 876.466 539.24 876.722 539.528C876.994 539.8 877.13 540.2 877.13 540.728V549.536C877.13 550.048 877.002 550.448 876.746 550.736C876.49 551.024 876.114 551.168 875.618 551.168ZM875.618 536.864C875.058 536.864 874.618 536.728 874.298 536.456C873.994 536.168 873.842 535.776 873.842 535.28C873.842 534.768 873.994 534.376 874.298 534.104C874.618 533.832 875.058 533.696 875.618 533.696C876.194 533.696 876.634 533.832 876.938 534.104C877.242 534.376 877.394 534.768 877.394 535.28C877.394 535.776 877.242 536.168 876.938 536.456C876.634 536.728 876.194 536.864 875.618 536.864ZM884.544 551.24C883.856 551.24 883.128 551.168 882.36 551.024C881.592 550.88 880.904 550.632 880.296 550.28C880.04 550.12 879.856 549.936 879.744 549.728C879.648 549.504 879.608 549.288 879.624 549.08C879.656 548.856 879.736 548.664 879.864 548.504C880.008 548.344 880.184 548.24 880.392 548.192C880.616 548.144 880.856 548.184 881.112 548.312C881.752 548.616 882.352 548.832 882.912 548.96C883.472 549.072 884.024 549.128 884.568 549.128C885.336 549.128 885.904 549 886.272 548.744C886.656 548.472 886.848 548.12 886.848 547.688C886.848 547.32 886.72 547.04 886.464 546.848C886.224 546.64 885.856 546.488 885.36 546.392L882.96 545.936C881.968 545.744 881.208 545.384 880.68 544.856C880.168 544.312 879.912 543.616 879.912 542.768C879.912 542 880.12 541.336 880.536 540.776C880.968 540.216 881.56 539.784 882.312 539.48C883.064 539.176 883.928 539.024 884.904 539.024C885.608 539.024 886.264 539.104 886.872 539.264C887.496 539.408 888.096 539.64 888.672 539.96C888.912 540.088 889.072 540.256 889.152 540.464C889.248 540.672 889.272 540.888 889.224 541.112C889.176 541.32 889.08 541.512 888.936 541.688C888.792 541.848 888.608 541.952 888.384 542C888.176 542.032 887.936 541.984 887.664 541.856C887.168 541.6 886.688 541.416 886.224 541.304C885.776 541.192 885.344 541.136 884.928 541.136C884.144 541.136 883.56 541.272 883.176 541.544C882.808 541.816 882.624 542.176 882.624 542.624C882.624 542.96 882.736 543.24 882.96 543.464C883.184 543.688 883.528 543.84 883.992 543.92L886.392 544.376C887.432 544.568 888.216 544.92 888.744 545.432C889.288 545.944 889.56 546.632 889.56 547.496C889.56 548.664 889.104 549.584 888.192 550.256C887.28 550.912 886.064 551.24 884.544 551.24ZM897.225 551.24C896.185 551.24 895.313 551.064 894.609 550.712C893.921 550.36 893.409 549.848 893.073 549.176C892.737 548.488 892.569 547.64 892.569 546.632V541.52H891.321C890.937 541.52 890.641 541.424 890.433 541.232C890.225 541.024 890.121 540.744 890.121 540.392C890.121 540.024 890.225 539.744 890.433 539.552C890.641 539.36 890.937 539.264 891.321 539.264H892.569V537.08C892.569 536.584 892.697 536.208 892.953 535.952C893.225 535.696 893.601 535.568 894.081 535.568C894.561 535.568 894.929 535.696 895.185 535.952C895.441 536.208 895.569 536.584 895.569 537.08V539.264H898.113C898.497 539.264 898.793 539.36 899.001 539.552C899.209 539.744 899.313 540.024 899.313 540.392C899.313 540.744 899.209 541.024 899.001 541.232C898.793 541.424 898.497 541.52 898.113 541.52H895.569V546.464C895.569 547.232 895.737 547.808 896.073 548.192C896.409 548.576 896.953 548.768 897.705 548.768C897.977 548.768 898.217 548.744 898.425 548.696C898.633 548.648 898.817 548.616 898.977 548.6C899.169 548.584 899.329 548.648 899.457 548.792C899.585 548.92 899.649 549.192 899.649 549.608C899.649 549.928 899.593 550.216 899.481 550.472C899.385 550.712 899.201 550.88 898.929 550.976C898.721 551.04 898.449 551.096 898.113 551.144C897.777 551.208 897.481 551.24 897.225 551.24ZM902.922 551.12C902.378 551.12 901.938 550.952 901.602 550.616C901.282 550.28 901.122 549.848 901.122 549.32C901.122 548.808 901.282 548.392 901.602 548.072C901.938 547.736 902.378 547.568 902.922 547.568C903.482 547.568 903.914 547.736 904.218 548.072C904.538 548.392 904.698 548.808 904.698 549.32C904.698 549.848 904.538 550.28 904.218 550.616C903.914 550.952 903.482 551.12 902.922 551.12ZM482.803 584C482.307 584 481.923 583.864 481.651 583.592C481.379 583.304 481.243 582.912 481.243 582.416V568.568C481.243 568.056 481.371 567.672 481.627 567.416C481.899 567.144 482.283 567.008 482.779 567.008C483.275 567.008 483.651 567.144 483.907 567.416C484.179 567.672 484.315 568.056 484.315 568.568V581.384H491.275C491.707 581.384 492.035 581.496 492.259 581.72C492.499 581.944 492.619 582.264 492.619 582.68C492.619 583.096 492.499 583.424 492.259 583.664C492.035 583.888 491.707 584 491.275 584H482.803ZM500.098 584.24C498.77 584.24 497.626 583.992 496.666 583.496C495.706 583 494.962 582.296 494.434 581.384C493.922 580.472 493.666 579.392 493.666 578.144C493.666 576.928 493.914 575.864 494.41 574.952C494.922 574.04 495.618 573.328 496.498 572.816C497.394 572.288 498.41 572.024 499.546 572.024C500.378 572.024 501.122 572.16 501.778 572.432C502.45 572.704 503.018 573.096 503.482 573.608C503.962 574.12 504.322 574.744 504.562 575.48C504.818 576.2 504.946 577.016 504.946 577.928C504.946 578.216 504.842 578.44 504.634 578.6C504.442 578.744 504.162 578.816 503.794 578.816H496.09V577.088H502.834L502.45 577.448C502.45 576.712 502.338 576.096 502.114 575.6C501.906 575.104 501.594 574.728 501.178 574.472C500.778 574.2 500.274 574.064 499.666 574.064C498.994 574.064 498.418 574.224 497.938 574.544C497.474 574.848 497.114 575.288 496.858 575.864C496.618 576.424 496.498 577.096 496.498 577.88V578.048C496.498 579.36 496.802 580.344 497.41 581C498.034 581.64 498.946 581.96 500.146 581.96C500.562 581.96 501.026 581.912 501.538 581.816C502.066 581.704 502.562 581.52 503.026 581.264C503.362 581.072 503.658 580.992 503.914 581.024C504.17 581.04 504.37 581.128 504.514 581.288C504.674 581.448 504.77 581.648 504.802 581.888C504.834 582.112 504.786 582.344 504.658 582.584C504.546 582.824 504.346 583.032 504.058 583.208C503.498 583.56 502.85 583.824 502.114 584C501.394 584.16 500.722 584.24 500.098 584.24ZM512.651 584.24C511.611 584.24 510.739 584.064 510.035 583.712C509.347 583.36 508.835 582.848 508.499 582.176C508.163 581.488 507.995 580.64 507.995 579.632V574.52H506.747C506.363 574.52 506.067 574.424 505.859 574.232C505.651 574.024 505.547 573.744 505.547 573.392C505.547 573.024 505.651 572.744 505.859 572.552C506.067 572.36 506.363 572.264 506.747 572.264H507.995V570.08C507.995 569.584 508.123 569.208 508.379 568.952C508.651 568.696 509.027 568.568 509.507 568.568C509.987 568.568 510.355 568.696 510.611 568.952C510.867 569.208 510.995 569.584 510.995 570.08V572.264H513.539C513.923 572.264 514.219 572.36 514.427 572.552C514.635 572.744 514.739 573.024 514.739 573.392C514.739 573.744 514.635 574.024 514.427 574.232C514.219 574.424 513.923 574.52 513.539 574.52H510.995V579.464C510.995 580.232 511.163 580.808 511.499 581.192C511.835 581.576 512.379 581.768 513.131 581.768C513.403 581.768 513.643 581.744 513.851 581.696C514.059 581.648 514.243 581.616 514.403 581.6C514.595 581.584 514.755 581.648 514.883 581.792C515.011 581.92 515.075 582.192 515.075 582.608C515.075 582.928 515.019 583.216 514.907 583.472C514.811 583.712 514.627 583.88 514.355 583.976C514.147 584.04 513.875 584.096 513.539 584.144C513.203 584.208 512.907 584.24 512.651 584.24ZM518.31 572.96C518.102 573.216 517.878 573.36 517.638 573.392C517.414 573.424 517.214 573.384 517.038 573.272C516.862 573.144 516.766 572.968 516.75 572.744C516.734 572.504 516.838 572.248 517.062 571.976C517.382 571.576 517.598 571.176 517.71 570.776C517.822 570.376 517.878 570.024 517.878 569.72L517.998 570.512C517.438 570.512 516.982 570.352 516.63 570.032C516.294 569.712 516.126 569.28 516.126 568.736C516.126 568.208 516.286 567.784 516.606 567.464C516.926 567.128 517.358 566.96 517.902 566.96C518.462 566.96 518.902 567.152 519.222 567.536C519.542 567.904 519.702 568.44 519.702 569.144C519.702 569.528 519.662 569.928 519.582 570.344C519.518 570.744 519.382 571.168 519.174 571.616C518.982 572.048 518.694 572.496 518.31 572.96ZM526.055 584.24C525.367 584.24 524.639 584.168 523.871 584.024C523.103 583.88 522.415 583.632 521.807 583.28C521.551 583.12 521.367 582.936 521.255 582.728C521.159 582.504 521.119 582.288 521.135 582.08C521.167 581.856 521.247 581.664 521.375 581.504C521.519 581.344 521.695 581.24 521.903 581.192C522.127 581.144 522.367 581.184 522.623 581.312C523.263 581.616 523.863 581.832 524.423 581.96C524.983 582.072 525.535 582.128 526.079 582.128C526.847 582.128 527.415 582 527.783 581.744C528.167 581.472 528.359 581.12 528.359 580.688C528.359 580.32 528.231 580.04 527.975 579.848C527.735 579.64 527.367 579.488 526.871 579.392L524.471 578.936C523.479 578.744 522.719 578.384 522.191 577.856C521.679 577.312 521.423 576.616 521.423 575.768C521.423 575 521.631 574.336 522.047 573.776C522.479 573.216 523.071 572.784 523.823 572.48C524.575 572.176 525.439 572.024 526.415 572.024C527.119 572.024 527.775 572.104 528.383 572.264C529.007 572.408 529.607 572.64 530.183 572.96C530.423 573.088 530.583 573.256 530.663 573.464C530.759 573.672 530.783 573.888 530.735 574.112C530.687 574.32 530.591 574.512 530.447 574.688C530.303 574.848 530.119 574.952 529.895 575C529.687 575.032 529.447 574.984 529.175 574.856C528.679 574.6 528.199 574.416 527.735 574.304C527.287 574.192 526.855 574.136 526.439 574.136C525.655 574.136 525.071 574.272 524.687 574.544C524.319 574.816 524.135 575.176 524.135 575.624C524.135 575.96 524.247 576.24 524.471 576.464C524.695 576.688 525.039 576.84 525.503 576.92L527.903 577.376C528.943 577.568 529.727 577.92 530.255 578.432C530.799 578.944 531.071 579.632 531.071 580.496C531.071 581.664 530.615 582.584 529.703 583.256C528.791 583.912 527.575 584.24 526.055 584.24ZM545.466 588.56C544.602 588.56 543.762 588.48 542.946 588.32C542.146 588.16 541.418 587.912 540.762 587.576C540.458 587.416 540.25 587.224 540.138 587C540.042 586.776 540.01 586.544 540.042 586.304C540.09 586.08 540.186 585.88 540.33 585.704C540.49 585.528 540.682 585.408 540.906 585.344C541.13 585.28 541.362 585.312 541.602 585.44C542.306 585.792 542.97 586.016 543.594 586.112C544.234 586.224 544.778 586.28 545.226 586.28C546.298 586.28 547.098 586.016 547.626 585.488C548.17 584.976 548.442 584.208 548.442 583.184V581.024H548.658C548.418 581.84 547.914 582.496 547.146 582.992C546.394 583.472 545.538 583.712 544.578 583.712C543.522 583.712 542.602 583.472 541.818 582.992C541.034 582.496 540.426 581.808 539.994 580.928C539.562 580.048 539.346 579.024 539.346 577.856C539.346 576.976 539.466 576.184 539.706 575.48C539.962 574.76 540.314 574.144 540.762 573.632C541.226 573.12 541.778 572.728 542.418 572.456C543.074 572.168 543.794 572.024 544.578 572.024C545.57 572.024 546.434 572.272 547.17 572.768C547.922 573.248 548.41 573.888 548.634 574.688L548.394 575.288V573.584C548.394 573.088 548.522 572.712 548.778 572.456C549.05 572.2 549.418 572.072 549.882 572.072C550.362 572.072 550.73 572.2 550.986 572.456C551.242 572.712 551.37 573.088 551.37 573.584V582.824C551.37 584.728 550.866 586.16 549.858 587.12C548.85 588.08 547.386 588.56 545.466 588.56ZM545.394 581.432C546.018 581.432 546.554 581.288 547.002 581C547.45 580.712 547.794 580.304 548.034 579.776C548.29 579.232 548.418 578.592 548.418 577.856C548.418 576.752 548.146 575.888 547.602 575.264C547.058 574.624 546.322 574.304 545.394 574.304C544.77 574.304 544.234 574.448 543.786 574.736C543.338 575.024 542.986 575.432 542.73 575.96C542.49 576.488 542.37 577.12 542.37 577.856C542.37 578.96 542.642 579.832 543.186 580.472C543.73 581.112 544.466 581.432 545.394 581.432ZM560.262 584.24C558.934 584.24 557.79 583.992 556.83 583.496C555.87 583 555.126 582.296 554.598 581.384C554.086 580.472 553.83 579.392 553.83 578.144C553.83 576.928 554.078 575.864 554.574 574.952C555.086 574.04 555.782 573.328 556.662 572.816C557.558 572.288 558.574 572.024 559.71 572.024C560.542 572.024 561.286 572.16 561.942 572.432C562.614 572.704 563.182 573.096 563.646 573.608C564.126 574.12 564.486 574.744 564.726 575.48C564.982 576.2 565.11 577.016 565.11 577.928C565.11 578.216 565.006 578.44 564.798 578.6C564.606 578.744 564.326 578.816 563.958 578.816H556.254V577.088H562.998L562.614 577.448C562.614 576.712 562.502 576.096 562.278 575.6C562.07 575.104 561.758 574.728 561.342 574.472C560.942 574.2 560.438 574.064 559.83 574.064C559.158 574.064 558.582 574.224 558.102 574.544C557.638 574.848 557.278 575.288 557.022 575.864C556.782 576.424 556.662 577.096 556.662 577.88V578.048C556.662 579.36 556.966 580.344 557.574 581C558.198 581.64 559.11 581.96 560.31 581.96C560.726 581.96 561.19 581.912 561.702 581.816C562.23 581.704 562.726 581.52 563.19 581.264C563.526 581.072 563.822 580.992 564.078 581.024C564.334 581.04 564.534 581.128 564.678 581.288C564.838 581.448 564.934 581.648 564.966 581.888C564.998 582.112 564.95 582.344 564.822 582.584C564.71 582.824 564.51 583.032 564.222 583.208C563.662 583.56 563.014 583.824 562.278 584C561.558 584.16 560.886 584.24 560.262 584.24ZM572.815 584.24C571.775 584.24 570.903 584.064 570.199 583.712C569.511 583.36 568.999 582.848 568.663 582.176C568.327 581.488 568.159 580.64 568.159 579.632V574.52H566.911C566.527 574.52 566.231 574.424 566.023 574.232C565.815 574.024 565.711 573.744 565.711 573.392C565.711 573.024 565.815 572.744 566.023 572.552C566.231 572.36 566.527 572.264 566.911 572.264H568.159V570.08C568.159 569.584 568.287 569.208 568.543 568.952C568.815 568.696 569.191 568.568 569.671 568.568C570.151 568.568 570.519 568.696 570.775 568.952C571.031 569.208 571.159 569.584 571.159 570.08V572.264H573.703C574.087 572.264 574.383 572.36 574.591 572.552C574.799 572.744 574.903 573.024 574.903 573.392C574.903 573.744 574.799 574.024 574.591 574.232C574.383 574.424 574.087 574.52 573.703 574.52H571.159V579.464C571.159 580.232 571.327 580.808 571.663 581.192C571.999 581.576 572.543 581.768 573.295 581.768C573.567 581.768 573.807 581.744 574.015 581.696C574.223 581.648 574.407 581.616 574.567 581.6C574.759 581.584 574.919 581.648 575.047 581.792C575.175 581.92 575.239 582.192 575.239 582.608C575.239 582.928 575.183 583.216 575.071 583.472C574.975 583.712 574.791 583.88 574.519 583.976C574.311 584.04 574.039 584.096 573.703 584.144C573.367 584.208 573.071 584.24 572.815 584.24ZM586.141 588.512C585.789 588.512 585.501 588.416 585.277 588.224C585.053 588.048 584.917 587.808 584.869 587.504C584.837 587.2 584.893 586.88 585.037 586.544L586.669 582.92V584.168L582.301 574.064C582.157 573.712 582.109 573.384 582.157 573.08C582.205 572.776 582.349 572.536 582.589 572.36C582.845 572.168 583.189 572.072 583.621 572.072C583.989 572.072 584.285 572.16 584.509 572.336C584.733 572.496 584.933 572.808 585.109 573.272L588.349 581.36H587.629L590.941 573.248C591.117 572.8 591.325 572.496 591.565 572.336C591.805 572.16 592.125 572.072 592.525 572.072C592.877 572.072 593.157 572.168 593.365 572.36C593.573 572.536 593.701 572.776 593.749 573.08C593.797 573.368 593.741 573.688 593.581 574.04L587.749 587.36C587.541 587.808 587.317 588.112 587.077 588.272C586.837 588.432 586.525 588.512 586.141 588.512ZM600.916 584.24C599.7 584.24 598.644 583.992 597.748 583.496C596.852 583 596.156 582.296 595.66 581.384C595.164 580.456 594.916 579.368 594.916 578.12C594.916 577.176 595.052 576.336 595.324 575.6C595.612 574.848 596.02 574.208 596.548 573.68C597.076 573.136 597.708 572.728 598.444 572.456C599.18 572.168 600.004 572.024 600.916 572.024C602.132 572.024 603.188 572.272 604.084 572.768C604.98 573.264 605.676 573.968 606.172 574.88C606.668 575.792 606.916 576.872 606.916 578.12C606.916 579.064 606.772 579.912 606.484 580.664C606.212 581.416 605.812 582.064 605.284 582.608C604.756 583.136 604.124 583.544 603.388 583.832C602.652 584.104 601.828 584.24 600.916 584.24ZM600.916 581.96C601.508 581.96 602.028 581.816 602.476 581.528C602.924 581.24 603.268 580.816 603.508 580.256C603.764 579.68 603.892 578.968 603.892 578.12C603.892 576.84 603.62 575.888 603.076 575.264C602.532 574.624 601.812 574.304 600.916 574.304C600.324 574.304 599.804 574.448 599.356 574.736C598.908 575.008 598.556 575.432 598.3 576.008C598.06 576.568 597.94 577.272 597.94 578.12C597.94 579.384 598.212 580.344 598.756 581C599.3 581.64 600.02 581.96 600.916 581.96ZM613.64 584.24C612.664 584.24 611.856 584.064 611.216 583.712C610.576 583.344 610.096 582.8 609.776 582.08C609.472 581.36 609.32 580.464 609.32 579.392V573.584C609.32 573.072 609.448 572.696 609.704 572.456C609.96 572.2 610.328 572.072 610.808 572.072C611.288 572.072 611.656 572.2 611.912 572.456C612.184 572.696 612.32 573.072 612.32 573.584V579.44C612.32 580.272 612.488 580.888 612.824 581.288C613.16 581.688 613.696 581.888 614.432 581.888C615.232 581.888 615.888 581.616 616.4 581.072C616.912 580.512 617.168 579.776 617.168 578.864V573.584C617.168 573.072 617.296 572.696 617.552 572.456C617.808 572.2 618.176 572.072 618.656 572.072C619.136 572.072 619.504 572.2 619.76 572.456C620.032 572.696 620.168 573.072 620.168 573.584V582.656C620.168 583.68 619.68 584.192 618.704 584.192C618.24 584.192 617.88 584.064 617.624 583.808C617.368 583.536 617.24 583.152 617.24 582.656V580.832L617.576 581.552C617.24 582.416 616.728 583.08 616.04 583.544C615.368 584.008 614.568 584.24 613.64 584.24ZM636.574 584.24C635.582 584.24 634.71 583.992 633.958 583.496C633.222 583 632.734 582.336 632.494 581.504L632.758 580.904V582.656C632.758 583.152 632.63 583.536 632.374 583.808C632.118 584.064 631.758 584.192 631.294 584.192C630.814 584.192 630.446 584.064 630.19 583.808C629.934 583.536 629.806 583.152 629.806 582.656V568.4C629.806 567.904 629.934 567.528 630.19 567.272C630.446 567.016 630.814 566.888 631.294 566.888C631.774 566.888 632.142 567.016 632.398 567.272C632.67 567.528 632.806 567.904 632.806 568.4V574.64H632.518C632.774 573.856 633.27 573.224 634.006 572.744C634.742 572.264 635.598 572.024 636.574 572.024C637.614 572.024 638.518 572.272 639.286 572.768C640.054 573.264 640.654 573.968 641.086 574.88C641.518 575.776 641.734 576.856 641.734 578.12C641.734 579.368 641.518 580.456 641.086 581.384C640.654 582.296 640.046 583 639.262 583.496C638.494 583.992 637.598 584.24 636.574 584.24ZM635.734 581.96C636.326 581.96 636.846 581.816 637.294 581.528C637.742 581.24 638.086 580.816 638.326 580.256C638.582 579.68 638.71 578.968 638.71 578.12C638.71 576.84 638.438 575.888 637.894 575.264C637.35 574.624 636.63 574.304 635.734 574.304C635.142 574.304 634.622 574.448 634.174 574.736C633.726 575.008 633.374 575.432 633.118 576.008C632.878 576.568 632.758 577.272 632.758 578.12C632.758 579.384 633.03 580.344 633.574 581C634.118 581.64 634.838 581.96 635.734 581.96ZM648.061 584.24C647.213 584.24 646.453 584.08 645.781 583.76C645.125 583.424 644.605 582.976 644.221 582.416C643.853 581.856 643.669 581.224 643.669 580.52C643.669 579.656 643.893 578.976 644.341 578.48C644.789 577.968 645.517 577.6 646.525 577.376C647.533 577.152 648.885 577.04 650.581 577.04H651.781V578.768H650.605C649.613 578.768 648.821 578.816 648.229 578.912C647.637 579.008 647.213 579.176 646.957 579.416C646.717 579.64 646.597 579.96 646.597 580.376C646.597 580.904 646.781 581.336 647.149 581.672C647.517 582.008 648.029 582.176 648.685 582.176C649.213 582.176 649.677 582.056 650.077 581.816C650.493 581.56 650.821 581.216 651.061 580.784C651.301 580.352 651.421 579.856 651.421 579.296V576.536C651.421 575.736 651.245 575.16 650.893 574.808C650.541 574.456 649.949 574.28 649.117 574.28C648.653 574.28 648.149 574.336 647.605 574.448C647.077 574.56 646.517 574.752 645.925 575.024C645.621 575.168 645.349 575.208 645.109 575.144C644.885 575.08 644.709 574.952 644.581 574.76C644.453 574.552 644.389 574.328 644.389 574.088C644.389 573.848 644.453 573.616 644.581 573.392C644.709 573.152 644.925 572.976 645.229 572.864C645.965 572.56 646.669 572.344 647.341 572.216C648.029 572.088 648.653 572.024 649.213 572.024C650.365 572.024 651.309 572.2 652.045 572.552C652.797 572.904 653.357 573.44 653.725 574.16C654.093 574.864 654.277 575.776 654.277 576.896V582.656C654.277 583.152 654.157 583.536 653.917 583.808C653.677 584.064 653.333 584.192 652.885 584.192C652.437 584.192 652.085 584.064 651.829 583.808C651.589 583.536 651.469 583.152 651.469 582.656V581.504H651.661C651.549 582.064 651.325 582.552 650.989 582.968C650.669 583.368 650.261 583.68 649.765 583.904C649.269 584.128 648.701 584.24 648.061 584.24ZM662.746 584.24C661.514 584.24 660.442 583.992 659.53 583.496C658.618 582.984 657.914 582.264 657.418 581.336C656.922 580.408 656.674 579.32 656.674 578.072C656.674 577.128 656.81 576.288 657.082 575.552C657.37 574.8 657.778 574.168 658.306 573.656C658.834 573.128 659.474 572.728 660.226 572.456C660.978 572.168 661.818 572.024 662.746 572.024C663.274 572.024 663.842 572.096 664.45 572.24C665.074 572.384 665.658 572.624 666.202 572.96C666.458 573.12 666.626 573.312 666.706 573.536C666.786 573.76 666.802 573.992 666.754 574.232C666.706 574.456 666.602 574.656 666.442 574.832C666.298 574.992 666.114 575.096 665.89 575.144C665.666 575.176 665.418 575.12 665.146 574.976C664.794 574.768 664.434 574.616 664.066 574.52C663.698 574.408 663.346 574.352 663.01 574.352C662.482 574.352 662.018 574.44 661.618 574.616C661.218 574.776 660.874 575.016 660.586 575.336C660.314 575.64 660.106 576.024 659.962 576.488C659.818 576.952 659.746 577.488 659.746 578.096C659.746 579.28 660.026 580.216 660.586 580.904C661.162 581.576 661.97 581.912 663.01 581.912C663.346 581.912 663.69 581.864 664.042 581.768C664.41 581.672 664.778 581.52 665.146 581.312C665.418 581.168 665.658 581.12 665.866 581.168C666.09 581.216 666.274 581.328 666.418 581.504C666.562 581.664 666.65 581.864 666.682 582.104C666.714 582.328 666.682 582.552 666.586 582.776C666.506 583 666.346 583.184 666.106 583.328C665.578 583.648 665.018 583.88 664.426 584.024C663.834 584.168 663.274 584.24 662.746 584.24ZM670.13 584.192C669.65 584.192 669.282 584.064 669.026 583.808C668.77 583.536 668.642 583.152 668.642 582.656V568.4C668.642 567.904 668.77 567.528 669.026 567.272C669.282 567.016 669.65 566.888 670.13 566.888C670.61 566.888 670.978 567.016 671.234 567.272C671.506 567.528 671.642 567.904 671.642 568.4V577.256H671.69L675.65 573.08C675.97 572.76 676.25 572.512 676.49 572.336C676.73 572.16 677.058 572.072 677.474 572.072C677.89 572.072 678.202 572.184 678.41 572.408C678.634 572.616 678.746 572.872 678.746 573.176C678.746 573.48 678.602 573.784 678.314 574.088L674.138 578.504V577.256L678.722 582.2C679.01 582.504 679.138 582.816 679.106 583.136C679.09 583.44 678.962 583.696 678.722 583.904C678.482 584.096 678.178 584.192 677.81 584.192C677.362 584.192 677.002 584.104 676.73 583.928C676.474 583.752 676.186 583.488 675.866 583.136L671.69 578.768H671.642V582.656C671.642 583.68 671.138 584.192 670.13 584.192ZM693.377 584.24C692.161 584.24 691.105 583.992 690.209 583.496C689.313 583 688.617 582.296 688.121 581.384C687.625 580.456 687.377 579.368 687.377 578.12C687.377 577.176 687.513 576.336 687.785 575.6C688.073 574.848 688.481 574.208 689.009 573.68C689.537 573.136 690.169 572.728 690.905 572.456C691.641 572.168 692.465 572.024 693.377 572.024C694.593 572.024 695.649 572.272 696.545 572.768C697.441 573.264 698.137 573.968 698.633 574.88C699.129 575.792 699.377 576.872 699.377 578.12C699.377 579.064 699.233 579.912 698.945 580.664C698.673 581.416 698.273 582.064 697.745 582.608C697.217 583.136 696.585 583.544 695.849 583.832C695.113 584.104 694.289 584.24 693.377 584.24ZM693.377 581.96C693.969 581.96 694.489 581.816 694.937 581.528C695.385 581.24 695.729 580.816 695.969 580.256C696.225 579.68 696.353 578.968 696.353 578.12C696.353 576.84 696.081 575.888 695.537 575.264C694.993 574.624 694.273 574.304 693.377 574.304C692.785 574.304 692.265 574.448 691.817 574.736C691.369 575.008 691.017 575.432 690.761 576.008C690.521 576.568 690.401 577.272 690.401 578.12C690.401 579.384 690.673 580.344 691.217 581C691.761 581.64 692.481 581.96 693.377 581.96ZM703.341 584.192C702.861 584.192 702.493 584.064 702.237 583.808C701.981 583.536 701.853 583.152 701.853 582.656V573.584C701.853 573.088 701.981 572.712 702.237 572.456C702.493 572.2 702.853 572.072 703.317 572.072C703.781 572.072 704.141 572.2 704.397 572.456C704.653 572.712 704.781 573.088 704.781 573.584V575.216L704.517 574.616C704.869 573.768 705.413 573.128 706.149 572.696C706.901 572.248 707.749 572.024 708.693 572.024C709.637 572.024 710.413 572.2 711.021 572.552C711.629 572.904 712.085 573.44 712.389 574.16C712.693 574.864 712.845 575.76 712.845 576.848V582.656C712.845 583.152 712.717 583.536 712.461 583.808C712.205 584.064 711.837 584.192 711.357 584.192C710.877 584.192 710.501 584.064 710.229 583.808C709.973 583.536 709.845 583.152 709.845 582.656V576.992C709.845 576.08 709.669 575.416 709.317 575C708.981 574.584 708.453 574.376 707.733 574.376C706.853 574.376 706.149 574.656 705.621 575.216C705.109 575.76 704.853 576.488 704.853 577.4V582.656C704.853 583.68 704.349 584.192 703.341 584.192ZM727.784 584.24C726.744 584.24 725.872 584.064 725.168 583.712C724.48 583.36 723.968 582.848 723.632 582.176C723.296 581.488 723.128 580.64 723.128 579.632V574.52H721.88C721.496 574.52 721.2 574.424 720.992 574.232C720.784 574.024 720.68 573.744 720.68 573.392C720.68 573.024 720.784 572.744 720.992 572.552C721.2 572.36 721.496 572.264 721.88 572.264H723.128V570.08C723.128 569.584 723.256 569.208 723.512 568.952C723.784 568.696 724.16 568.568 724.64 568.568C725.12 568.568 725.488 568.696 725.744 568.952C726 569.208 726.128 569.584 726.128 570.08V572.264H728.672C729.056 572.264 729.352 572.36 729.56 572.552C729.768 572.744 729.872 573.024 729.872 573.392C729.872 573.744 729.768 574.024 729.56 574.232C729.352 574.424 729.056 574.52 728.672 574.52H726.128V579.464C726.128 580.232 726.296 580.808 726.632 581.192C726.968 581.576 727.512 581.768 728.264 581.768C728.536 581.768 728.776 581.744 728.984 581.696C729.192 581.648 729.376 581.616 729.536 581.6C729.728 581.584 729.888 581.648 730.016 581.792C730.144 581.92 730.208 582.192 730.208 582.608C730.208 582.928 730.152 583.216 730.04 583.472C729.944 583.712 729.76 583.88 729.488 583.976C729.28 584.04 729.008 584.096 728.672 584.144C728.336 584.208 728.04 584.24 727.784 584.24ZM733.155 584.192C732.659 584.192 732.275 584.064 732.003 583.808C731.747 583.536 731.619 583.152 731.619 582.656V573.584C731.619 573.088 731.747 572.712 732.003 572.456C732.259 572.2 732.619 572.072 733.083 572.072C733.547 572.072 733.907 572.2 734.163 572.456C734.419 572.712 734.547 573.088 734.547 573.584V575.096H734.307C734.531 574.136 734.971 573.408 735.627 572.912C736.283 572.416 737.155 572.12 738.243 572.024C738.579 571.992 738.843 572.08 739.035 572.288C739.243 572.48 739.363 572.784 739.395 573.2C739.427 573.6 739.331 573.928 739.107 574.184C738.899 574.424 738.579 574.568 738.147 574.616L737.619 574.664C736.643 574.76 735.907 575.064 735.411 575.576C734.915 576.072 734.667 576.776 734.667 577.688V582.656C734.667 583.152 734.539 583.536 734.283 583.808C734.027 584.064 733.651 584.192 733.155 584.192ZM744.764 584.24C743.916 584.24 743.156 584.08 742.484 583.76C741.828 583.424 741.308 582.976 740.924 582.416C740.556 581.856 740.372 581.224 740.372 580.52C740.372 579.656 740.596 578.976 741.044 578.48C741.492 577.968 742.22 577.6 743.228 577.376C744.236 577.152 745.588 577.04 747.284 577.04H748.484V578.768H747.308C746.316 578.768 745.524 578.816 744.932 578.912C744.34 579.008 743.916 579.176 743.66 579.416C743.42 579.64 743.3 579.96 743.3 580.376C743.3 580.904 743.484 581.336 743.852 581.672C744.22 582.008 744.732 582.176 745.388 582.176C745.916 582.176 746.38 582.056 746.78 581.816C747.196 581.56 747.524 581.216 747.764 580.784C748.004 580.352 748.124 579.856 748.124 579.296V576.536C748.124 575.736 747.948 575.16 747.596 574.808C747.244 574.456 746.652 574.28 745.82 574.28C745.356 574.28 744.852 574.336 744.308 574.448C743.78 574.56 743.22 574.752 742.628 575.024C742.324 575.168 742.052 575.208 741.812 575.144C741.588 575.08 741.412 574.952 741.284 574.76C741.156 574.552 741.092 574.328 741.092 574.088C741.092 573.848 741.156 573.616 741.284 573.392C741.412 573.152 741.628 572.976 741.932 572.864C742.668 572.56 743.372 572.344 744.044 572.216C744.732 572.088 745.356 572.024 745.916 572.024C747.068 572.024 748.012 572.2 748.748 572.552C749.5 572.904 750.06 573.44 750.428 574.16C750.796 574.864 750.98 575.776 750.98 576.896V582.656C750.98 583.152 750.86 583.536 750.62 583.808C750.38 584.064 750.036 584.192 749.588 584.192C749.14 584.192 748.788 584.064 748.532 583.808C748.292 583.536 748.172 583.152 748.172 582.656V581.504H748.364C748.252 582.064 748.028 582.552 747.692 582.968C747.372 583.368 746.964 583.68 746.468 583.904C745.972 584.128 745.404 584.24 744.764 584.24ZM759.449 584.24C758.217 584.24 757.145 583.992 756.233 583.496C755.321 582.984 754.617 582.264 754.121 581.336C753.625 580.408 753.377 579.32 753.377 578.072C753.377 577.128 753.513 576.288 753.785 575.552C754.073 574.8 754.481 574.168 755.009 573.656C755.537 573.128 756.177 572.728 756.929 572.456C757.681 572.168 758.521 572.024 759.449 572.024C759.977 572.024 760.545 572.096 761.153 572.24C761.777 572.384 762.361 572.624 762.905 572.96C763.161 573.12 763.329 573.312 763.409 573.536C763.489 573.76 763.505 573.992 763.457 574.232C763.409 574.456 763.305 574.656 763.145 574.832C763.001 574.992 762.817 575.096 762.593 575.144C762.369 575.176 762.121 575.12 761.849 574.976C761.497 574.768 761.137 574.616 760.769 574.52C760.401 574.408 760.049 574.352 759.713 574.352C759.185 574.352 758.721 574.44 758.321 574.616C757.921 574.776 757.577 575.016 757.289 575.336C757.017 575.64 756.809 576.024 756.665 576.488C756.521 576.952 756.449 577.488 756.449 578.096C756.449 579.28 756.729 580.216 757.289 580.904C757.865 581.576 758.673 581.912 759.713 581.912C760.049 581.912 760.393 581.864 760.745 581.768C761.113 581.672 761.481 581.52 761.849 581.312C762.121 581.168 762.361 581.12 762.569 581.168C762.793 581.216 762.977 581.328 763.121 581.504C763.265 581.664 763.353 581.864 763.385 582.104C763.417 582.328 763.385 582.552 763.289 582.776C763.209 583 763.049 583.184 762.809 583.328C762.281 583.648 761.721 583.88 761.129 584.024C760.537 584.168 759.977 584.24 759.449 584.24ZM766.833 584.192C766.353 584.192 765.985 584.064 765.729 583.808C765.473 583.536 765.345 583.152 765.345 582.656V568.4C765.345 567.904 765.473 567.528 765.729 567.272C765.985 567.016 766.353 566.888 766.833 566.888C767.313 566.888 767.681 567.016 767.937 567.272C768.209 567.528 768.345 567.904 768.345 568.4V577.256H768.393L772.353 573.08C772.673 572.76 772.953 572.512 773.193 572.336C773.433 572.16 773.761 572.072 774.177 572.072C774.593 572.072 774.905 572.184 775.113 572.408C775.337 572.616 775.449 572.872 775.449 573.176C775.449 573.48 775.305 573.784 775.017 574.088L770.841 578.504V577.256L775.425 582.2C775.713 582.504 775.841 582.816 775.809 583.136C775.793 583.44 775.665 583.696 775.425 583.904C775.185 584.096 774.881 584.192 774.513 584.192C774.065 584.192 773.705 584.104 773.433 583.928C773.177 583.752 772.889 583.488 772.569 583.136L768.393 578.768H768.345V582.656C768.345 583.68 767.841 584.192 766.833 584.192ZM779.652 579.128C779.348 579.128 779.108 579.032 778.932 578.84C778.772 578.648 778.676 578.376 778.644 578.024L777.924 568.856C777.876 568.264 778.004 567.792 778.308 567.44C778.612 567.072 779.06 566.888 779.652 566.888C780.228 566.888 780.66 567.072 780.948 567.44C781.252 567.792 781.38 568.264 781.332 568.856L780.612 578.024C780.596 578.376 780.5 578.648 780.324 578.84C780.164 579.032 779.94 579.128 779.652 579.128ZM779.652 584.12C779.108 584.12 778.668 583.952 778.332 583.616C778.012 583.28 777.852 582.848 777.852 582.32C777.852 581.808 778.012 581.392 778.332 581.072C778.668 580.736 779.108 580.568 779.652 580.568C780.212 580.568 780.644 580.736 780.948 581.072C781.268 581.392 781.428 581.808 781.428 582.32C781.428 582.848 781.268 583.28 780.948 583.616C780.644 583.952 780.212 584.12 779.652 584.12Z" fill="white"/>
</svg>
