<svg width="187" height="192" viewBox="0 0 187 192" fill="none" xmlns="http://www.w3.org/2000/svg">
<rect width="187" height="192" rx="93.5" fill="#FFE6C1"/>
<path fill-rule="evenodd" clip-rule="evenodd" d="M121.551 76.8C121.551 92.7058 108.993 105.6 93.5011 105.6C78.0096 105.6 65.4511 92.7058 65.4511 76.8C65.4511 60.8942 78.0096 48 93.5011 48C108.993 48 121.551 60.8942 121.551 76.8ZM112.201 76.8C112.201 87.4039 103.829 96 93.5011 96C83.1734 96 74.8011 87.4039 74.8011 76.8C74.8011 66.1961 83.1734 57.6 93.5011 57.6C103.829 57.6 112.201 66.1961 112.201 76.8Z" fill="#F0A868" fill-opacity="0.67"/>
<path d="M93.5012 120C63.2334 120 37.4445 138.376 27.6208 164.122C30.014 166.562 32.5349 168.87 35.1725 171.034C42.4877 147.397 65.4358 129.6 93.5012 129.6C121.567 129.6 144.515 147.397 151.83 171.034C154.467 168.87 156.988 166.562 159.381 164.122C149.558 138.376 123.769 120 93.5012 120Z" fill="#F0A868" fill-opacity="0.67"/>
</svg>
