<svg width="5431" height="1686" viewBox="0 0 5431 1686" fill="none" xmlns="http://www.w3.org/2000/svg">
<path d="M2024.7 493.768H2300.47V1300.53C2300.34 1641.39 1925.34 1735.09 1643.83 1663.53C1528.79 1634.27 1432.8 1567.05 1385.6 1458.4L1611.99 1352.98C1660.05 1434.76 1762.24 1458.98 1852.82 1451.92C1904.58 1447.91 1970.24 1414.62 1998 1371.04C2027.73 1324.29 2024.56 1266.66 2024.63 1213.56L1979.34 1247.5C1887.5 1300.4 1715.17 1303.57 1617 1266.73C1328.83 1158.52 1279.65 760.487 1503.67 563.702C1642.25 441.966 1882.29 438.922 2019.16 564.803L2024.56 561.63V493.963L2024.7 493.768ZM1816.3 700.655C1731.12 708.749 1662.75 781.014 1656.89 864.286C1639.55 1109.31 1986 1130.55 2025.82 923.535C2051.86 788.136 1954.75 687.51 1816.3 700.655Z" fill="black"/>
<path d="M814.335 343.412C719.861 291.156 600.467 238.835 489.643 264.218C407.629 282.997 361.612 373.198 432.55 433.613C503.487 494.027 628.881 528.67 711.554 570.048C834.641 631.628 962.738 736.204 967.616 881.575C975.066 1105.04 838.531 1240.57 620.047 1279.48C402.157 1318.27 172.532 1263.36 0 1128.74L145.765 889.216C211.034 941.019 292.388 989.065 372.753 1014.38C447.12 1037.82 587.545 1041.77 632.31 965.042C686.897 871.409 596.116 814.167 521.156 776.351C408.288 719.498 295.684 688.352 204.836 594.913C65.334 451.485 85.7056 240.519 233.251 111.466C380.797 -17.5875 562.163 -20.3071 741.617 31.4955C808.929 50.9214 875.054 75.9161 930.301 119.042L814.335 343.541V343.412Z" fill="black"/>
<path d="M2685.68 575.422C2689.84 579.631 2704.08 562.148 2707.57 559.299C2754.97 520.058 2802.77 489.624 2864.81 477.321C2972.4 455.953 3136.5 499.078 3208.75 583.063C3251.47 632.729 3270.2 700.396 3272.37 763.336L3272.24 1269.38H2996.47V836.442C2985.06 615.44 2702.76 641.341 2685.62 836.442V1269.38H2409.91V493.833H2685.68V575.487V575.422Z" fill="black"/>
<path d="M1304.64 493.768H1028.86V1269.32H1304.64V493.768Z" fill="black"/>
<path d="M3628.64 439.052C3643.02 437.563 3652.97 428.886 3667.8 427.461C3689.1 425.324 3754.37 425.065 3772.63 431.67C3782.45 435.231 3789.7 443.131 3799.46 446.11C3799.86 443.585 3800.32 440.477 3801.83 438.469C3814.69 421.504 3822.93 405.834 3844.62 396.056C3872.18 383.688 3945.23 384.465 3973.31 395.473C3987.88 401.171 4000.74 415.352 4009.7 427.655C4014.45 428.368 4025.79 417.683 4032.12 414.705C4057.5 402.725 4138.53 402.466 4164.24 413.086C4187.18 422.605 4204.59 442.419 4209.46 466.507L4211.31 644.061C4241.83 673.005 4271.7 702.921 4302.62 731.477C4313.56 741.579 4333.41 752.522 4341.98 765.084C4349.56 776.351 4344.35 814.167 4342.7 828.931C4330.84 935.579 4286.8 1101.02 4205.38 1176.4C4097.65 1276.18 3835.19 1300.14 3702.94 1245.49C3375.75 1110.28 3447.94 630.009 3438.57 351.506C3439.96 265.708 3555.46 227.762 3609.52 295.753C3615.59 303.329 3628.58 328.972 3628.58 337.649V438.987L3628.64 439.052ZM4020.25 805.944V957.401C4020.25 973.395 3995.46 1007.78 3981.68 1017.36C3917.21 1062.24 3831.77 1034.91 3802.1 966.013C3800.19 961.61 3799.99 947.688 3795.97 946.846C3785.81 952.609 3780.08 961.286 3769.46 967.373C3705.58 1003.7 3606.89 969.251 3600.16 892.195C3595.42 838.061 3598.38 766.574 3597.79 710.497C3596.4 583.646 3602.01 455.694 3594.36 329.49C3564.69 266.42 3477.74 280.212 3472.07 351.506C3465.21 437.304 3473.38 539.484 3474.64 626.383C3476.61 764.372 3471.01 876.006 3522.63 1007.97C3608.67 1228 3793.13 1273.33 4015.84 1229.95C4223.04 1189.54 4260.76 1063.73 4301.76 881.575C4307.37 856.645 4315.67 829.902 4317.12 803.483C4319.04 769.099 4316.27 779.589 4295.76 761.588C4231.22 704.864 4160.81 611.295 4077.48 589.15C4020.19 573.933 3944.3 558.327 3885.69 549.068C3859.72 544.988 3844.89 542.722 3825.83 563.508C3787.07 605.727 3827.68 679.545 3871.72 702.597C3929.34 732.772 3999.22 751.616 4057.7 781.014C4069.17 786.777 4079.65 790.338 4079.59 805.62L4056.18 950.408C4038.25 964.718 4031.53 949.89 4032.38 931.694C4033.9 900.613 4045.77 864.545 4048.67 833.528C4050.91 809.893 4046.03 811.577 4025.39 803.289L4020.45 805.879L4020.25 805.944ZM3989.4 543.887V451.873C3989.4 441.513 3966.13 424.353 3956.24 421.504C3936.06 415.611 3869.28 415.288 3851.81 426.36C3843.7 431.476 3830.32 449.607 3830.32 458.867V522.907C3884.38 514.101 3936.33 537.865 3989.33 543.887H3989.4ZM4179.27 613.756V472.788C4179.27 471.299 4170.24 452.844 4168.39 450.837C4164.96 447.017 4154.08 441.124 4148.94 439.635C4130.55 434.325 4067.26 434.454 4049.46 440.93C4008.78 455.629 4021.77 514.943 4021.37 548.55C4024.27 553.341 4080.77 562.925 4091.45 565.968C4124.35 575.228 4154.55 590.38 4179.27 613.756ZM3639.46 912.981C3676.97 973.525 3773.62 964.783 3788.98 893.49C3786.01 818.829 3796.56 735.168 3790.1 661.479C3787.92 636.484 3775.46 619.454 3778.03 591.546C3779.35 577.106 3788.12 567.199 3789.84 556.579C3791.68 545.118 3791.35 510.475 3789.97 498.495C3787.99 481.077 3772.69 461.78 3755.03 458.284C3743.75 456.017 3679.54 456.017 3668.27 458.284C3654.09 461.133 3633.92 477.645 3631.54 492.085L3630.88 889.993C3630.62 899.771 3635.17 906.117 3639.46 913.045V912.981ZM3830.38 718.591V948.077C3830.38 958.826 3842.51 981.166 3850.49 988.936C3892.55 1029.92 3978.98 1010.63 3989.4 950.408L3989.6 791.892L3830.38 718.591Z" fill="black"/>
<path d="M4624.67 407.711C4629.36 376.371 4659.09 342.505 4692.32 338.944C4713.35 336.677 4769.06 336.418 4789.69 338.944C4800.44 340.239 4819.36 352.606 4827.27 350.793C4835.91 322.043 4862.8 295.688 4894.05 292.386C4925.3 289.084 4997.23 288.76 5022.22 306.373C5047.2 323.986 5050.24 346.196 5060.26 371.579C5063.49 372.291 5066.39 366.852 5070.34 365.233C5098.5 353.772 5180.9 353.06 5208.53 365.816C5236.15 378.572 5254.68 403.243 5256 433.354C5250.79 520.382 5263.05 615.245 5256.13 701.302C5255.34 711.145 5251.91 727.786 5246.24 735.816C5241.69 742.162 5215.32 761.652 5216.04 765.991C5222.77 776.416 5230.55 786.194 5237.54 796.36C5247.16 810.411 5257.12 823.038 5264.37 839.809C5283.16 883.518 5260.94 944.062 5244.06 987.058C5220.33 1047.67 5172.73 1162.09 5121.9 1203.14C5043.91 1266.02 4851.93 1272.23 4753.96 1266.21C4442.85 1247.04 4418.72 865.322 4437.24 633.635C4439.81 601.323 4446.8 518.051 4459.2 492.15C4482.6 443.196 4545.1 446.499 4592.63 450.772C4604.04 451.808 4613.6 457.053 4624.74 457.701C4626.39 442.095 4622.5 422.605 4624.74 407.582L4624.67 407.711ZM5010.68 337.454C5005.27 332.015 4989.32 323.921 4981.74 322.755C4967.37 320.618 4913.31 320.618 4898.93 322.755C4882.06 325.281 4864.58 339.591 4858.39 355.132L4857.2 689.582C4860.37 700.655 4863.92 716.001 4876.78 719.498C4882.58 721.052 4908.43 714.447 4917.72 713.865C4948.64 711.922 4981.67 715.483 5012.79 713.994L5022.88 702.921L5023.6 360.96C5022.74 354.549 5015.36 342.052 5010.81 337.454H5010.68ZM4690.4 369.766C4677.42 372.615 4660.14 392.559 4658.03 405.51C4653.16 435.102 4657.77 462.946 4658.03 491.502C4658.43 552.694 4657.04 613.95 4658.5 675.142C4664.56 693.856 4678.21 703.893 4697.72 706.547C4717.24 709.202 4776.57 709.461 4795.69 706.094C4806.7 704.152 4817.91 698.777 4822.79 688.416L4823.51 399.034C4818.37 388.415 4806.17 372.55 4793.91 369.831C4783.69 367.564 4700.69 367.564 4690.47 369.831L4690.4 369.766ZM5091.57 390.746C5076.61 393.789 5059.2 408.683 5056.76 424.159L5057.09 707.778C5058.41 711.598 5061.11 713.282 5065 713.994C5086.83 718.009 5112.34 711.663 5137.79 717.102C5148.8 719.433 5191.45 739.118 5194.42 738.6C5211.69 735.492 5220.79 716.973 5222.77 701.302L5222.17 429.274C5217.82 413.086 5205.82 394.372 5187.76 390.811C5175.83 388.415 5103.44 388.415 5091.51 390.811L5091.57 390.746ZM4524.33 479.328C4498.42 483.278 4485.04 499.79 4482.54 524.526C4477.92 569.853 4478.78 652.997 4482.14 699.036C4483.39 716.519 4488.4 738.406 4509.63 741.903C4520.51 743.716 4594.55 743.78 4603.84 741.449C4611.23 739.571 4625.2 726.232 4624.67 717.62L4624.08 510.734C4619.27 496.618 4611.75 488.523 4597.45 483.278C4581.1 477.321 4541.8 476.609 4524.33 479.264V479.328ZM4840.65 734.974C4837.69 719.498 4811.97 738.212 4799.18 739.766C4777.16 742.356 4719.35 742.032 4697.06 739.766C4683.88 738.406 4672.08 731.218 4659.35 728.24C4649.79 747.471 4630.28 772.013 4606.94 774.797C4587.36 777.128 4506.01 776.74 4490.84 769.811C4482.21 765.797 4475.88 756.99 4465.66 756.148C4467.04 948.206 4506.27 1206.77 4744.86 1233.44C4834.26 1243.42 5019.12 1236.81 5094.47 1185.85C5139.04 1155.68 5167.85 1081.79 5188.35 1033.36C5203.65 997.224 5230.81 935.903 5236.48 898.864C5242.15 861.825 5224.61 837.737 5205.3 809.44C5184.66 779.2 5168.84 758.674 5130.67 749.867C5092.5 741.061 4956.36 743.521 4912.91 746.759C4886.14 748.766 4839.99 764.372 4818.04 779.459L4680.25 902.814C4657.77 947.623 4699.63 965.495 4735.76 976.698C4776.64 989.389 4825.16 994.31 4865.18 977.151L4994.26 903.462C5005.67 898.864 5020.11 912.333 5014.57 923.341C5010.94 930.464 4935.06 974.431 4922.01 981.684C4855.35 1018.59 4812.9 1030.77 4735.63 1009.53C4681.97 994.764 4627.44 966.208 4645.9 901.713C4654.41 871.862 4722.91 824.074 4748.55 802.706C4778.22 778.035 4802.88 748.637 4840.59 735.233L4840.65 734.974Z" fill="black"/>
<path d="M1155.38 15.3719C1281.3 4.23431 1374.78 133.482 1315.98 246.023C1270.09 333.698 1148.52 358.046 1069.47 298.214C951.925 209.178 1009.28 28.3225 1155.38 15.3719Z" fill="black"/>
<path d="M1320 1533.51V1557.21L68.103 1563.62L68.0371 1539.99L1320 1533.51Z" fill="black"/>
<path d="M5088.8 1580.78V1440.07C5088.8 1433.4 5102.52 1429.97 5106.47 1436.12V1615.81C5098.69 1623.13 5092.3 1615.55 5086.69 1609.66C5050.89 1572.3 5021.43 1515.9 4985.89 1476.59C4984.11 1474.58 4982.07 1471.8 4979.36 1471.15V1614C4979.36 1617.37 4959.19 1626.04 4957.48 1607.59C4953.52 1565.5 4954.25 1488.96 4957.41 1446.35C4957.67 1443.24 4957.81 1440.2 4958.93 1437.22C4961.3 1431.91 4974.48 1431.2 4978.11 1436.96L5088.8 1580.72V1580.78Z" fill="black"/>
<path d="M2928.63 1609.79C2925.99 1622.03 2909.9 1622.74 2906.8 1609.79C2910.1 1557.6 2902.26 1500.16 2906.67 1448.62C2907.66 1436.7 2908.65 1435.67 2920.91 1434.63C2944.98 1432.69 2999.37 1432.04 3019.87 1442.92C3058.04 1463.12 3049.93 1529.75 3004.44 1535.65L3003.12 1539.92C3011.96 1542.25 3017.76 1551.45 3022.38 1558.63C3027.78 1567.18 3045.85 1598.46 3048.09 1606.49C3048.94 1609.53 3049.87 1612.12 3048.02 1615.1C3043.74 1621.57 3035.49 1620.21 3030.55 1615.03C3019.87 1600.47 2997.39 1539.99 2977.94 1539.99H2928.69C2925.73 1559.93 2932.65 1591.33 2928.69 1609.79H2928.63ZM2928.63 1522.83H2995.41C2996.33 1522.83 3008.53 1517.26 3010.38 1516.03C3026.26 1505.6 3027.72 1475.49 3015.19 1462.54C3012.42 1459.69 2998.31 1451.92 2995.41 1451.92H2928.63V1522.83Z" fill="black"/>
<path d="M2563.12 1580.78V1442.21C2563.12 1440.85 2568.73 1433.53 2571.23 1432.82C2574 1431.46 2582.84 1436.38 2582.84 1437.93V1614.06C2582.84 1615.23 2577.69 1619.31 2575.26 1619.37C2571.3 1619.5 2566.95 1615.68 2564.18 1613.03C2543.15 1593.08 2517.17 1549.18 2497.53 1524.38C2484.67 1508.19 2470.37 1489.67 2456.59 1473.87C2455.2 1472.32 2456.72 1469.86 2451.58 1471.15V1614C2451.58 1618.92 2434.04 1621.25 2434.04 1614V1437.87C2434.04 1436.96 2439.38 1432.24 2441.62 1432.56C2445.77 1432.88 2448.67 1435.22 2451.51 1437.87C2463.24 1448.81 2487.51 1483.46 2499.31 1498.35C2520.87 1525.55 2540.31 1554.49 2563.12 1580.72V1580.78Z" fill="black"/>
<path d="M4616.04 1611.99C4614.46 1621.25 4598.17 1621.77 4596.33 1611.99L4597.45 1439.04C4599.49 1435.47 4602.39 1435.15 4606.08 1434.63C4629.75 1431.65 4690.01 1432.56 4710.18 1444.35C4738.14 1460.6 4739.26 1508.13 4713.41 1527.1C4706.16 1532.41 4700.49 1532.41 4693.5 1535.52C4684.73 1539.4 4696.93 1541.67 4701.15 1545.62C4703.85 1548.14 4705.44 1551.45 4707.48 1554.43C4713.02 1562.46 4732.8 1596.52 4735.37 1604.42C4737.61 1611.34 4736.68 1617.88 4728.71 1619.5C4725.02 1619.57 4720.14 1615.81 4717.63 1613.22C4704.18 1599.17 4687.77 1540.12 4665.22 1540.12H4615.97C4613.33 1561.87 4619.47 1591.33 4615.97 1612.06L4616.04 1611.99ZM4616.04 1522.83H4685C4685.92 1522.83 4695.22 1518.49 4696.93 1517.39C4716.38 1504.95 4717.17 1471.28 4697.79 1458.78C4695.88 1457.55 4683.81 1451.99 4682.82 1451.99H4616.04V1522.89V1522.83Z" fill="black"/>
<path d="M3232.49 1617.04C3231.69 1618.21 3225.5 1619.44 3223.45 1619.11C3210.53 1617.24 3204.99 1582.85 3197.54 1573.53C3194.91 1570.23 3194.25 1570.42 3190.23 1569.97C3162.14 1566.73 3127.33 1572.3 3098.52 1570.42C3087.58 1578.51 3082.57 1617.17 3069.25 1619.11C3055.93 1621.06 3059.76 1608.24 3062.59 1599.56C3074.72 1562.39 3098.39 1522.44 3115.27 1487.92C3121.2 1475.75 3132.87 1436.83 3145.2 1433.47C3155.35 1430.75 3160.95 1446.22 3164.65 1453.35C3184.49 1491.36 3216.73 1559.93 3230.11 1599.62C3231.5 1603.83 3234.79 1613.55 3232.49 1617.11V1617.04ZM3103.66 1552.87H3189.04L3148.49 1460.47L3103.66 1552.87Z" fill="black"/>
<path d="M3815.02 1516.35H3905.87C3910.94 1516.35 3913.32 1533.51 3903.69 1533.51H3815.02V1600.08H3912.39C3916.28 1600.08 3919.32 1615.1 3907.98 1617.17C3876.86 1614.65 3839.81 1620.8 3809.48 1617.3C3798.21 1616.01 3796.16 1611.73 3795.18 1601.24C3791.62 1562.91 3791.81 1487.08 3795.18 1448.55C3795.57 1443.89 3796.49 1434.7 3802.96 1434.7H3912.39C3918.06 1434.7 3915.76 1451.86 3910.22 1451.86H3815.02V1516.35Z" fill="black"/>
<path d="M4471.59 1516.35H4562.44C4567.52 1516.35 4569.89 1533.51 4560.26 1533.51H4471.59V1600.08H4568.97C4572.86 1600.08 4575.89 1615.1 4564.55 1617.17C4533.43 1614.65 4496.38 1620.8 4466.05 1617.3C4454.78 1616.01 4452.74 1611.73 4451.75 1601.24C4448.19 1562.91 4448.38 1487.08 4451.75 1448.55C4452.14 1443.89 4453.07 1434.7 4459.53 1434.7H4568.97C4574.64 1434.7 4572.33 1451.86 4566.79 1451.86H4471.59V1516.35Z" fill="black"/>
<path d="M2784.18 1451.92V1516.35H2875.03L2877.93 1519.91C2879.31 1524.77 2879.38 1533.51 2872.79 1533.51H2784.11V1600.08H2879.31C2883.53 1600.08 2892.7 1615.42 2870.68 1617.37C2848.66 1619.31 2795.12 1619.89 2774.42 1617.04C2771.72 1616.65 2768.03 1616.07 2766.44 1613.67V1437.68C2768.49 1435.09 2771.13 1434.96 2774.16 1434.57C2805.14 1430.55 2845.03 1437.68 2877.07 1434.7C2889.6 1437.03 2884.78 1451.79 2877.07 1451.79H2784.05L2784.18 1451.92Z" fill="black"/>
<path d="M4109.39 1600.14C4113.47 1601.37 4113.41 1611.02 4112.35 1614.91C4109.39 1616.33 4106.16 1617.04 4102.86 1617.37C4080.25 1619.44 4028.69 1619.89 4006.47 1617.37C4000.28 1616.65 3994.01 1615.16 3994.34 1607.78L3996.45 1437.74C3998.56 1435.15 4001.13 1435.02 4004.23 1434.63C4035.28 1430.62 4075.17 1437.8 4107.21 1434.7L4111.69 1436.7L4112.29 1449.4C4110.7 1449.72 4108 1451.92 4107.14 1451.92H4014.12V1516.35H4102.79C4109.19 1516.35 4110.7 1533.51 4100.62 1533.51H4014.19V1600.08H4109.39V1600.14Z" fill="black"/>
<path d="M5426.94 1600.14C5431.03 1601.37 5430.83 1611.02 5429.98 1614.97C5426.09 1615.62 5422.2 1616.98 5418.18 1617.3C5395.23 1619.24 5346.38 1619.89 5324.03 1617.3C5317.83 1616.59 5311.57 1615.1 5311.9 1607.72L5314.01 1437.68C5316.12 1435.09 5318.69 1434.96 5321.79 1434.57C5352.84 1430.55 5392.73 1437.74 5424.77 1434.63C5433.47 1436.19 5433.34 1451.79 5422.59 1451.79H5331.75V1516.22H5418.18C5424.57 1516.22 5426.09 1533.38 5416 1533.38H5331.75V1599.95H5426.94V1600.14Z" fill="black"/>
<path d="M4837.09 1451.92V1516.35H4925.76L4928.67 1519.91C4930.05 1524.77 4930.12 1533.51 4923.52 1533.51H4837.09V1600.08H4930.12C4934.34 1600.08 4942.64 1615.1 4923.59 1617.3C4904.54 1619.5 4846.52 1619.63 4827.4 1617.04C4824.7 1616.65 4821.01 1616.07 4819.42 1613.67V1437.68C4821.47 1435.09 4824.1 1434.96 4827.14 1434.57C4857.46 1430.62 4896.49 1437.61 4927.87 1434.7C4940.4 1437.03 4935.59 1451.79 4927.87 1451.79H4837.03L4837.09 1451.92Z" fill="black"/>
<path d="M4316.2 1544.32V1614.13C4316.2 1617.3 4302.69 1622.29 4298.53 1615.88V1437.74C4300.58 1435.15 4303.21 1435.02 4306.25 1434.63C4327.67 1431.85 4389.38 1432.88 4407.84 1442.53C4438.76 1458.66 4441.26 1510.01 4415.42 1531.11C4408.5 1536.81 4389.31 1544.32 4380.74 1544.32H4316.2ZM4316.2 1527.1H4380.74C4381.93 1527.1 4393.07 1522.96 4395.12 1521.85C4419.18 1509.42 4418.65 1469.21 4395.77 1456.45C4394.26 1455.61 4383.71 1451.86 4382.92 1451.86H4316.13V1527.04L4316.2 1527.1Z" fill="black"/>
<path d="M4192.85 1497.77C4195.29 1500.42 4197.73 1509.36 4201.22 1507.74C4209.27 1504.05 4243.42 1446.42 4253.77 1436.83C4262.01 1428.48 4277.76 1434.63 4270.38 1446.68L4213.29 1523.8L4273.41 1604.48C4277.17 1611.99 4272.75 1621.45 4263.59 1618.6C4250.4 1614.45 4213.16 1553.65 4202.34 1539.99C4198.32 1537.33 4146.96 1608.69 4142.22 1615.16C4133.12 1623 4119.47 1618.66 4125.6 1605.32C4136.15 1582.27 4170.24 1553.52 4182.37 1529.95C4183.42 1527.94 4184.81 1526.26 4184.74 1523.86L4129.16 1447.52C4125.8 1442.08 4128.83 1432.75 4135.62 1432.62C4139.65 1433.01 4142.75 1435.34 4145.65 1437.87C4159.82 1450.37 4177.82 1481.19 4192.92 1497.77H4192.85Z" fill="black"/>
<path d="M3396.65 1587.58C3402.78 1597.03 3390.91 1604.35 3384.51 1608.3C3340.15 1635.82 3270.92 1618.08 3253.71 1567.83C3227.01 1489.61 3279.43 1412.29 3366.78 1437.48C3377.26 1440.52 3400.6 1450.24 3396.58 1463.25C3392.36 1476.98 3371.99 1458.79 3363.42 1455.81C3326.7 1442.99 3286.74 1456.52 3275.54 1494.92C3258 1554.94 3291.29 1623.58 3363.42 1598.39C3370.47 1595.93 3391.44 1579.61 3396.58 1587.58H3396.65Z" fill="black"/>
<path d="M5215.25 1433.21C5237.73 1431.33 5275.84 1438.65 5287.9 1459.37L5284.67 1467.01C5276.7 1474.33 5264.24 1461.31 5256.59 1457.94C5223.56 1443.44 5179.52 1452.31 5165.81 1487.86C5142.67 1547.95 5172.79 1620.86 5248.48 1599.11C5258.5 1596.26 5283.35 1576.31 5287.57 1590.95C5290.87 1602.47 5265.82 1612.96 5256.79 1615.81C5116.43 1659.71 5093.48 1443.5 5215.25 1433.27V1433.21Z" fill="black"/>
<path d="M3690.29 1589.39C3693.85 1593.08 3698.46 1579.87 3699.38 1577.93C3710.59 1555.01 3722.13 1529.56 3732.41 1507.22C3740.65 1489.35 3751.47 1453.35 3761.49 1439.16C3771.51 1424.98 3783.84 1433.66 3776.65 1454.06C3757.93 1506.9 3725.03 1558.57 3704.59 1611.08C3701.16 1618.98 3692.59 1622.03 3685.01 1617.17L3606.95 1442.21C3606.43 1435.86 3612.56 1432.5 3618.69 1432.95C3623.17 1435.15 3625.68 1439.16 3628.05 1443.24C3650.53 1482.61 3668.6 1538.76 3688.57 1581.56C3689.76 1584.08 3690.42 1586.67 3690.35 1589.46L3690.29 1589.39Z" fill="black"/>
<path d="M2750.23 1434.76L2753.13 1438.32C2754.51 1443.18 2754.58 1451.92 2747.99 1451.92H2685.62V1609.79C2685.62 1619.96 2663.73 1619.96 2663.73 1609.79V1451.92H2599.19C2593.65 1451.92 2591.34 1434.76 2597.01 1434.76H2750.23Z" fill="black"/>
<path d="M3553.42 1434.76C3561.79 1437.09 3558.63 1451.92 3551.24 1451.92H3488.88V1611.99C3488.88 1618.79 3469.17 1618.79 3469.17 1611.99V1451.92H3404.62C3403.44 1451.92 3397.9 1448.04 3397.3 1446.22C3395.79 1443.31 3397.44 1434.76 3400.27 1434.76H3553.49H3553.42Z" fill="black"/>
<path d="M3570.43 1435.28C3578.21 1428.74 3592.91 1435.47 3591.79 1446.55C3587.37 1496.8 3597.59 1556.5 3591.79 1605.58C3589.48 1625.2 3569.51 1622.42 3567.53 1607.78C3570.69 1555.2 3563.64 1498.54 3567.53 1446.48C3567.79 1443.37 3567.99 1437.29 3570.36 1435.28H3570.43Z" fill="black"/>
<path d="M4763.19 1616.78C4760.75 1614.32 4760.68 1608.95 4760.35 1605.58C4756.79 1564.66 4756.79 1487.34 4760.35 1446.42C4762.07 1427.06 4778.75 1429.91 4780.26 1442.08C4786.53 1493.49 4775.19 1557.15 4780.26 1609.92C4781.32 1618.14 4768.53 1622.16 4763.19 1616.78Z" fill="black"/>
<path d="M2396.26 1435.28C2398.7 1437.74 2398.77 1443.11 2399.1 1446.48C2402.66 1487.41 2402.66 1564.72 2399.1 1605.65C2397.38 1625.01 2380.7 1622.16 2379.19 1609.98C2372.92 1558.57 2384.26 1494.92 2379.19 1442.14C2378.13 1433.92 2390.92 1429.91 2396.26 1435.28Z" fill="black"/>
</svg>
