<svg width="5396" height="1675" viewBox="0 0 5396 1675" fill="none" xmlns="http://www.w3.org/2000/svg">
<path d="M2011.65 490.547H2285.64V1292.04C2285.51 1630.68 1912.94 1723.77 1633.24 1652.68C1518.94 1623.6 1423.57 1556.83 1376.67 1448.88L1601.6 1344.15C1649.35 1425.4 1750.88 1449.46 1840.88 1442.45C1892.3 1438.46 1957.54 1405.39 1985.12 1362.1C2014.66 1315.65 2011.52 1258.4 2011.58 1205.65L1966.58 1239.36C1875.34 1291.91 1704.11 1295.07 1606.58 1258.46C1320.27 1150.97 1271.4 755.525 1493.98 560.024C1631.67 439.082 1870.16 436.059 2006.15 561.118L2011.52 557.965V490.74L2011.65 490.547ZM1804.59 696.084C1719.97 704.125 1652.04 775.918 1646.21 858.647C1628.98 1102.07 1973.2 1123.17 2012.76 917.51C2038.63 782.994 1942.15 683.024 1804.59 696.084Z" fill="white"/>
<path d="M809.087 341.171C715.222 289.256 596.597 237.277 486.487 262.494C405.002 281.15 359.281 370.763 429.762 430.784C500.243 490.804 624.829 525.221 706.969 566.329C829.262 627.507 956.533 731.401 961.381 875.824C968.782 1097.83 833.127 1232.47 616.051 1271.14C399.565 1309.67 171.42 1255.12 0 1121.37L144.826 883.414C209.674 934.879 290.504 982.612 370.351 1007.77C444.238 1031.05 583.759 1034.98 628.235 958.746C682.471 865.723 592.274 808.855 517.797 771.286C405.657 714.804 293.779 683.861 203.516 591.031C64.913 448.539 85.1533 238.949 231.748 110.738C378.343 -17.4727 558.54 -20.1746 736.838 31.29C803.716 50.5892 869.415 75.4208 924.306 118.265L809.087 341.3V341.171Z" fill="white"/>
<path d="M2668.38 571.668C2672.5 575.849 2686.65 558.48 2690.12 555.65C2737.22 516.665 2784.71 486.43 2846.35 474.207C2953.25 452.978 3116.28 495.822 3188.07 579.259C3230.52 628.601 3249.12 695.826 3251.28 758.356L3251.15 1261.1H2977.15V830.985C2965.82 611.424 2685.34 637.157 2668.31 830.985V1261.1H2394.38V490.611H2668.38V571.732V571.668Z" fill="white"/>
<path d="M1296.23 490.547H1022.23V1261.04H1296.23V490.547Z" fill="white"/>
<path d="M3605.26 436.187C3619.54 434.708 3629.43 426.088 3644.17 424.672C3665.32 422.549 3730.17 422.292 3748.32 428.854C3758.08 432.392 3765.28 440.24 3774.98 443.2C3775.37 440.691 3775.83 437.603 3777.33 435.608C3790.11 418.754 3798.29 403.186 3819.85 393.472C3847.23 381.185 3919.8 381.957 3947.71 392.893C3962.18 398.554 3974.96 412.642 3983.86 424.865C3988.58 425.573 3999.85 414.958 4006.13 411.999C4031.35 400.098 4111.86 399.841 4137.4 410.391C4160.2 419.847 4177.49 439.533 4182.34 463.464L4184.17 639.859C4214.5 668.614 4244.17 698.335 4274.89 726.705C4285.76 736.741 4305.48 747.612 4314 760.092C4321.53 771.286 4316.35 808.855 4314.72 823.523C4302.93 929.475 4259.17 1093.84 4178.27 1168.72C4071.24 1267.85 3810.48 1291.66 3679.08 1237.36C3353.99 1103.04 3425.72 625.899 3416.42 349.212C3417.79 263.974 3532.55 226.276 3586.26 293.824C3592.29 301.35 3605.19 326.825 3605.19 335.446V436.123L3605.26 436.187ZM3994.34 800.685V951.155C3994.34 967.044 3969.71 1001.2 3956.02 1010.73C3891.96 1055.31 3807.07 1028.16 3777.6 959.711C3775.7 955.336 3775.5 941.505 3771.5 940.669C3761.42 946.394 3755.72 955.015 3745.17 961.062C3681.7 997.151 3583.64 962.927 3576.96 886.374C3572.25 832.593 3575.19 761.572 3574.6 705.862C3573.23 579.838 3578.8 452.72 3571.2 327.34C3541.72 264.682 3455.32 278.384 3449.69 349.212C3442.88 434.451 3451 535.964 3452.24 622.296C3454.21 759.385 3448.64 870.291 3499.93 1001.4C3585.41 1219.99 3768.69 1265.02 3989.96 1221.92C4195.83 1181.78 4233.3 1056.79 4274.04 875.824C4279.61 851.056 4287.86 824.488 4289.3 798.241C4291.2 764.081 4288.45 774.503 4268.08 756.619C4203.95 700.265 4134 607.307 4051.2 585.306C3994.28 570.188 3918.88 554.685 3860.65 545.485C3834.85 541.432 3820.11 539.181 3801.18 559.831C3762.66 601.775 3803.01 675.112 3846.77 698.013C3904.02 727.992 3973.45 746.712 4031.55 775.918C4042.95 781.643 4053.36 785.182 4053.3 800.364L4030.04 944.207C4012.23 958.424 4005.54 943.692 4006.4 925.615C4007.9 894.737 4019.69 858.904 4022.58 828.09C4024.8 804.609 4019.96 806.282 3999.45 798.048L3994.54 800.621L3994.34 800.685ZM3963.69 540.339V448.925C3963.69 438.632 3940.57 421.584 3930.74 418.754C3910.7 412.9 3844.34 412.578 3826.98 423.579C3818.93 428.661 3805.63 446.673 3805.63 455.873V519.496C3859.34 510.747 3910.96 534.356 3963.62 540.339H3963.69ZM4152.34 609.752V469.704C4152.34 468.224 4143.36 449.89 4141.53 447.896C4138.12 444.1 4127.31 438.246 4122.2 436.766C4103.93 431.491 4041.05 431.62 4023.36 438.053C3982.95 452.656 3995.85 511.583 3995.46 544.971C3998.34 549.731 4054.48 559.252 4065.09 562.276C4097.77 571.475 4127.77 586.528 4152.34 609.752ZM3616 907.024C3653.27 967.173 3749.3 958.489 3764.56 887.66C3761.61 813.487 3772.09 730.372 3765.67 657.163C3763.51 632.332 3751.13 615.413 3753.69 587.686C3755 573.341 3763.71 563.498 3765.41 552.948C3767.25 541.561 3766.92 507.144 3765.54 495.243C3763.58 477.938 3748.38 458.767 3730.83 455.294C3719.63 453.042 3655.83 453.042 3644.63 455.294C3630.54 458.124 3610.5 474.529 3608.14 488.874L3607.49 884.186C3607.22 893.9 3611.74 900.205 3616 907.088V907.024ZM3805.7 713.903V941.891C3805.7 952.57 3817.75 974.764 3825.67 982.484C3867.47 1023.21 3953.34 1004.03 3963.69 944.207L3963.88 786.725L3805.7 713.903Z" fill="white"/>
<path d="M4594.87 405.051C4599.52 373.915 4629.06 340.27 4662.08 336.732C4682.97 334.481 4738.32 334.223 4758.82 336.732C4769.5 338.019 4788.3 350.306 4796.16 348.505C4804.74 319.942 4831.47 293.759 4862.51 290.478C4893.56 287.197 4965.03 286.876 4989.85 304.374C5014.68 321.872 5017.69 343.937 5027.65 369.155C5030.86 369.862 5033.74 364.459 5037.67 362.85C5065.64 351.464 5147.52 350.756 5174.96 363.429C5202.41 376.102 5220.81 400.613 5222.12 430.526C5216.95 516.987 5229.13 611.231 5222.25 696.727C5221.47 706.505 5218.06 723.038 5212.43 731.015C5207.91 737.319 5181.71 756.683 5182.43 760.993C5189.11 771.35 5196.84 781.064 5203.78 791.164C5213.35 805.124 5223.24 817.668 5230.44 834.33C5249.11 877.753 5227.04 937.903 5210.27 980.618C5186.69 1040.83 5139.39 1154.5 5088.89 1195.29C5011.4 1257.76 4820.66 1263.93 4723.32 1257.95C4414.22 1238.91 4390.24 859.677 4408.65 629.501C4411.2 597.4 4418.15 514.671 4430.46 488.939C4453.71 440.305 4515.81 443.586 4563.04 447.831C4574.37 448.861 4583.87 454.071 4594.94 454.715C4596.57 439.211 4592.71 419.847 4594.94 404.923L4594.87 405.051ZM4978.39 335.253C4973.02 329.849 4957.17 321.807 4949.63 320.649C4935.35 318.527 4881.64 318.527 4867.36 320.649C4850.59 323.158 4833.23 337.375 4827.08 352.815L4825.9 685.083C4829.04 696.084 4832.58 711.33 4845.35 714.804C4851.12 716.348 4876.79 709.786 4886.03 709.207C4916.75 707.277 4949.57 710.815 4980.48 709.336L4990.51 698.335L4991.23 358.605C4990.38 352.236 4983.04 339.82 4978.52 335.253H4978.39ZM4660.18 367.354C4647.27 370.184 4630.11 389.998 4628.02 402.864C4623.17 432.263 4627.75 459.925 4628.02 488.295C4628.41 549.088 4627.03 609.945 4628.47 670.737C4634.5 689.329 4648.06 699.3 4667.45 701.938C4686.84 704.575 4745.79 704.833 4764.78 701.487C4775.72 699.557 4786.86 694.218 4791.71 683.925L4792.43 396.431C4787.32 385.881 4775.2 370.12 4763.02 367.418C4752.86 365.166 4670.4 365.166 4660.24 367.418L4660.18 367.354ZM5058.76 388.197C5043.89 391.22 5026.6 406.016 5024.17 421.391L5024.5 703.16C5025.81 706.955 5028.5 708.628 5032.36 709.336C5054.04 713.324 5079.39 707.02 5104.68 712.424C5115.62 714.739 5158 734.296 5160.94 733.781C5178.11 730.693 5187.15 712.295 5189.11 696.727L5188.52 426.473C5184.2 410.391 5172.28 391.799 5154.33 388.261C5142.47 385.881 5070.55 385.881 5058.69 388.261L5058.76 388.197ZM4495.18 476.201C4469.43 480.125 4456.14 496.53 4453.65 521.104C4449.06 566.136 4449.91 648.736 4453.25 694.475C4454.5 711.845 4459.48 733.588 4480.57 737.062C4491.38 738.863 4564.94 738.928 4574.17 736.612C4581.51 734.746 4595.4 721.494 4594.87 712.938L4594.28 507.402C4589.5 493.377 4582.03 485.336 4567.82 480.125C4551.57 474.207 4512.53 473.499 4495.18 476.137V476.201ZM4809.46 730.179C4806.51 714.804 4780.96 733.395 4768.26 734.939C4746.38 737.513 4688.93 737.191 4666.79 734.939C4653.69 733.588 4641.97 726.448 4629.33 723.488C4619.83 742.595 4600.44 766.976 4577.25 769.742C4557.8 772.058 4476.97 771.672 4461.9 764.789C4453.32 760.8 4447.03 752.051 4436.88 751.215C4438.25 942.02 4477.23 1198.89 4714.28 1225.4C4803.1 1235.3 4986.77 1228.74 5061.64 1178.11C5105.92 1148.14 5134.55 1074.73 5154.92 1026.61C5170.11 990.718 5197.1 929.797 5202.73 893C5208.37 856.203 5190.94 832.272 5171.75 804.159C5151.25 774.117 5135.53 753.724 5097.6 744.975C5059.68 736.226 4924.41 738.67 4881.25 741.887C4854.65 743.881 4808.8 759.385 4786.99 774.374L4650.09 896.924C4627.75 941.441 4669.35 959.196 4705.24 970.325C4745.85 982.934 4794.06 987.823 4833.82 970.776L4962.08 897.567C4973.41 893 4987.76 906.381 4982.25 917.317C4978.65 924.393 4903.26 968.074 4890.29 975.279C4824.06 1011.95 4781.88 1024.04 4705.11 1002.94C4651.79 988.274 4597.62 959.904 4615.96 895.83C4624.41 866.174 4692.47 818.698 4717.95 797.469C4747.43 772.959 4771.92 743.753 4809.39 730.436L4809.46 730.179Z" fill="white"/>
<path d="M1147.93 15.2716C1273.04 4.20668 1365.92 132.611 1307.5 244.418C1261.91 331.521 1141.12 355.71 1062.58 296.268C945.791 207.813 1002.78 28.1377 1147.93 15.2716Z" fill="white"/>
<path d="M1311.49 1523.51V1547.05L67.6641 1553.42L67.5986 1529.94L1311.49 1523.51Z" fill="white"/>
<path d="M5056.01 1570.47V1430.68C5056.01 1424.05 5069.63 1420.64 5073.56 1426.75V1605.27C5065.83 1612.54 5059.48 1605.01 5053.91 1599.16C5018.34 1562.04 4989.07 1506.01 4953.76 1466.96C4951.99 1464.96 4949.96 1462.2 4947.27 1461.55V1603.47C4947.27 1606.81 4927.23 1615.43 4925.53 1597.1C4921.6 1555.28 4922.32 1479.25 4925.46 1436.92C4925.72 1433.83 4925.85 1430.8 4926.97 1427.85C4929.33 1422.57 4942.43 1421.86 4946.03 1427.59L5056.01 1570.4V1570.47Z" fill="white"/>
<path d="M2909.75 1599.29C2907.13 1611.45 2891.15 1612.15 2888.07 1599.29C2891.35 1547.44 2883.55 1490.37 2887.94 1439.17C2888.92 1427.33 2889.91 1426.3 2902.09 1425.27C2926 1423.34 2980.04 1422.7 3000.41 1433.51C3038.33 1453.58 3030.28 1519.77 2985.08 1525.63L2983.77 1529.87C2992.55 1532.19 2998.31 1541.32 3002.9 1548.47C3008.27 1556.96 3026.22 1588.03 3028.44 1596.01C3029.3 1599.03 3030.21 1601.6 3028.38 1604.56C3024.12 1610.99 3015.93 1609.64 3011.02 1604.5C3000.41 1590.02 2978.07 1529.94 2958.75 1529.94H2909.82C2906.87 1549.75 2913.75 1580.95 2909.82 1599.29H2909.75ZM2909.75 1512.89H2976.11C2977.02 1512.89 2989.14 1507.36 2990.98 1506.14C3006.76 1495.78 3008.2 1465.86 2995.76 1453C2993.01 1450.17 2978.99 1442.45 2976.11 1442.45H2909.75V1512.89Z" fill="white"/>
<path d="M2546.61 1570.47V1432.8C2546.61 1431.45 2552.17 1424.18 2554.66 1423.47C2557.41 1422.12 2566.19 1427.01 2566.19 1428.55V1603.53C2566.19 1604.69 2561.08 1608.74 2558.66 1608.81C2554.73 1608.94 2550.41 1605.14 2547.66 1602.5C2526.76 1582.69 2500.95 1539.07 2481.43 1514.43C2468.66 1498.35 2454.44 1479.95 2440.75 1464.26C2439.38 1462.71 2440.89 1460.27 2435.78 1461.55V1603.47C2435.78 1608.36 2418.35 1610.67 2418.35 1603.47V1428.49C2418.35 1427.59 2423.66 1422.89 2425.89 1423.21C2430.01 1423.54 2432.89 1425.85 2435.71 1428.49C2447.37 1439.36 2471.48 1473.78 2483.2 1488.57C2504.62 1515.59 2523.94 1544.35 2546.61 1570.4V1570.47Z" fill="white"/>
<path d="M4586.29 1601.47C4584.72 1610.67 4568.54 1611.19 4566.7 1601.47L4567.82 1429.65C4569.85 1426.11 4572.73 1425.79 4576.4 1425.27C4599.91 1422.31 4659.78 1423.21 4679.83 1434.92C4707.6 1451.07 4708.71 1498.29 4683.04 1517.14C4675.83 1522.41 4670.2 1522.41 4663.26 1525.5C4654.54 1529.36 4666.66 1531.61 4670.85 1535.53C4673.54 1538.04 4675.11 1541.32 4677.14 1544.28C4682.64 1552.26 4702.3 1586.1 4704.85 1593.95C4707.08 1600.83 4706.16 1607.33 4698.23 1608.94C4694.57 1609 4689.72 1605.27 4687.23 1602.7C4673.87 1588.74 4657.56 1530.07 4635.15 1530.07H4586.22C4583.6 1551.68 4589.7 1580.95 4586.22 1601.54L4586.29 1601.47ZM4586.29 1512.89H4654.81C4655.72 1512.89 4664.96 1508.58 4666.66 1507.49C4685.98 1495.14 4686.77 1461.68 4667.51 1449.27C4665.61 1448.05 4653.63 1442.51 4652.64 1442.51H4586.29V1512.95V1512.89Z" fill="white"/>
<path d="M3211.65 1606.49C3210.87 1607.65 3204.71 1608.87 3202.68 1608.55C3189.84 1606.68 3184.34 1572.53 3176.94 1563.26C3174.32 1559.98 3173.66 1560.17 3169.67 1559.72C3141.76 1556.51 3107.18 1562.04 3078.55 1560.17C3067.68 1568.21 3062.7 1606.62 3049.47 1608.55C3036.24 1610.48 3040.04 1597.74 3042.85 1589.12C3054.91 1552.2 3078.42 1512.5 3095.19 1478.22C3101.09 1466.12 3112.68 1427.46 3124.93 1424.11C3135.02 1421.41 3140.58 1436.79 3144.25 1443.86C3163.97 1481.63 3196 1549.75 3209.3 1589.19C3210.67 1593.37 3213.95 1603.02 3211.65 1606.56V1606.49ZM3083.66 1542.74H3168.49L3128.2 1450.94L3083.66 1542.74Z" fill="white"/>
<path d="M3790.43 1506.46H3880.7C3885.74 1506.46 3888.1 1523.5 3878.54 1523.5H3790.43V1589.64H3887.18C3891.05 1589.64 3894.06 1604.56 3882.79 1606.62C3851.88 1604.11 3815.06 1610.22 3784.93 1606.75C3773.73 1605.46 3771.7 1601.22 3770.72 1590.79C3767.18 1552.71 3767.38 1477.38 3770.72 1439.1C3771.11 1434.47 3772.03 1425.34 3778.45 1425.34H3887.18C3892.81 1425.34 3890.52 1442.38 3885.02 1442.38H3790.43V1506.46Z" fill="white"/>
<path d="M4442.77 1506.46H4533.04C4538.08 1506.46 4540.44 1523.5 4530.88 1523.5H4442.77V1589.64H4539.52C4543.39 1589.64 4546.4 1604.56 4535.13 1606.62C4504.22 1604.11 4467.4 1610.22 4437.27 1606.75C4426.07 1605.46 4424.04 1601.22 4423.06 1590.79C4419.52 1552.71 4419.72 1477.38 4423.06 1439.1C4423.45 1434.47 4424.37 1425.34 4430.79 1425.34H4539.52C4545.15 1425.34 4542.86 1442.38 4537.36 1442.38H4442.77V1506.46Z" fill="white"/>
<path d="M2766.24 1442.45V1506.46H2856.5L2859.38 1510C2860.76 1514.82 2860.82 1523.51 2854.27 1523.51H2766.17V1589.64H2860.76C2864.95 1589.64 2874.05 1604.88 2852.18 1606.81C2830.3 1608.74 2777.11 1609.32 2756.54 1606.49C2753.86 1606.11 2750.19 1605.53 2748.62 1603.15V1428.3C2750.65 1425.72 2753.27 1425.59 2756.28 1425.21C2787.07 1421.22 2826.7 1428.3 2858.53 1425.34C2870.98 1427.65 2866.19 1442.32 2858.53 1442.32H2766.11L2766.24 1442.45Z" fill="white"/>
<path d="M4082.9 1589.7C4086.96 1590.92 4086.9 1600.51 4085.85 1604.37C4082.9 1605.78 4079.69 1606.49 4076.42 1606.81C4053.95 1608.87 4002.73 1609.32 3980.65 1606.81C3974.5 1606.11 3968.27 1604.63 3968.6 1597.29L3970.7 1428.36C3972.79 1425.79 3975.35 1425.66 3978.43 1425.27C4009.28 1421.28 4048.91 1428.42 4080.74 1425.34L4085.2 1427.33L4085.79 1439.94C4084.21 1440.26 4081.53 1442.45 4080.68 1442.45H3988.25V1506.46H4076.35C4082.71 1506.46 4084.21 1523.51 4074.19 1523.51H3988.32V1589.64H4082.9V1589.7Z" fill="white"/>
<path d="M5391.97 1589.7C5396.03 1590.92 5395.84 1600.51 5394.98 1604.43C5391.12 1605.08 5387.25 1606.43 5383.26 1606.75C5360.46 1608.68 5311.93 1609.32 5289.72 1606.75C5283.56 1606.04 5277.34 1604.56 5277.67 1597.23L5279.76 1428.3C5281.86 1425.72 5284.42 1425.59 5287.49 1425.21C5318.35 1421.22 5357.97 1428.36 5389.81 1425.27C5398.46 1426.82 5398.32 1442.32 5387.65 1442.32H5297.39V1506.33H5383.26C5389.61 1506.33 5391.12 1523.38 5381.1 1523.38H5297.39V1589.51H5391.97V1589.7Z" fill="white"/>
<path d="M4805.92 1442.45V1506.46H4894.02L4896.9 1510C4898.28 1514.82 4898.34 1523.5 4891.79 1523.5H4805.92V1589.64H4898.34C4902.54 1589.64 4910.79 1604.56 4891.86 1606.75C4872.93 1608.94 4815.29 1609.06 4796.29 1606.49C4793.61 1606.11 4789.94 1605.53 4788.37 1603.15V1428.3C4790.4 1425.72 4793.02 1425.59 4796.03 1425.21C4826.16 1421.28 4864.94 1428.23 4896.12 1425.34C4908.56 1427.65 4903.78 1442.32 4896.12 1442.32H4805.85L4805.92 1442.45Z" fill="white"/>
<path d="M4288.38 1534.25V1603.6C4288.38 1606.75 4274.96 1611.7 4270.83 1605.33V1428.36C4272.86 1425.79 4275.48 1425.66 4278.49 1425.27C4299.78 1422.51 4361.09 1423.54 4379.43 1433.12C4410.15 1449.14 4412.64 1500.15 4386.97 1521.13C4380.09 1526.79 4361.03 1534.25 4352.51 1534.25H4288.38ZM4288.38 1517.14H4352.51C4353.69 1517.14 4364.76 1513.02 4366.79 1511.93C4390.7 1499.57 4390.18 1459.62 4367.45 1446.95C4365.94 1446.12 4355.46 1442.38 4354.67 1442.38H4288.32V1517.07L4288.38 1517.14Z" fill="white"/>
<path d="M4165.83 1487.99C4168.25 1490.63 4170.68 1499.51 4174.15 1497.9C4182.14 1494.23 4216.07 1436.98 4226.35 1427.46C4234.54 1419.16 4250.2 1425.27 4242.86 1437.24L4186.14 1513.86L4245.87 1594.01C4249.61 1601.47 4245.22 1610.87 4236.11 1608.04C4223.01 1603.92 4186 1543.51 4175.26 1529.94C4171.27 1527.3 4120.24 1598.19 4115.52 1604.63C4106.48 1612.41 4092.92 1608.1 4099.02 1594.85C4109.5 1571.95 4143.36 1543.38 4155.41 1519.97C4156.46 1517.97 4157.84 1516.3 4157.77 1513.92L4102.55 1438.07C4099.21 1432.67 4102.23 1423.41 4108.97 1423.28C4112.97 1423.66 4116.05 1425.98 4118.93 1428.49C4133.01 1440.9 4150.89 1471.53 4165.89 1487.99H4165.83Z" fill="white"/>
<path d="M3374.76 1577.22C3380.85 1586.61 3369.06 1593.88 3362.7 1597.81C3318.62 1625.15 3249.84 1607.52 3232.75 1557.6C3206.22 1479.89 3258.29 1403.08 3345.08 1428.1C3355.5 1431.13 3378.69 1440.78 3374.69 1453.71C3370.5 1467.34 3350.26 1449.27 3341.74 1446.31C3305.26 1433.57 3265.56 1447.02 3254.43 1485.16C3237 1544.8 3270.08 1612.99 3341.74 1587.96C3348.75 1585.52 3369.58 1569.31 3374.69 1577.22H3374.76Z" fill="white"/>
<path d="M5181.64 1423.86C5203.98 1421.99 5241.84 1429.26 5253.83 1449.85L5250.62 1457.44C5242.69 1464.71 5230.31 1451.78 5222.71 1448.43C5189.9 1434.02 5146.14 1442.83 5132.52 1478.15C5109.52 1537.85 5139.46 1610.29 5214.66 1588.67C5224.61 1585.84 5249.31 1566.03 5253.5 1580.57C5256.77 1592.02 5231.88 1602.44 5222.91 1605.27C5083.45 1648.89 5060.66 1434.09 5181.64 1423.92V1423.86Z" fill="white"/>
<path d="M3666.5 1579.02C3670.04 1582.69 3674.63 1569.57 3675.54 1567.64C3686.68 1544.86 3698.14 1519.58 3708.36 1497.39C3716.55 1479.63 3727.29 1443.86 3737.25 1429.78C3747.2 1415.69 3759.45 1424.31 3752.31 1444.57C3733.71 1497.07 3701.02 1548.4 3680.72 1600.57C3677.31 1608.42 3668.8 1611.45 3661.26 1606.62L3583.71 1432.8C3583.18 1426.49 3589.28 1423.15 3595.37 1423.6C3599.82 1425.79 3602.31 1429.78 3604.67 1433.83C3627.01 1472.94 3644.95 1528.72 3664.8 1571.24C3665.98 1573.75 3666.63 1576.32 3666.57 1579.09L3666.5 1579.02Z" fill="white"/>
<path d="M2732.5 1425.4L2735.39 1428.94C2736.76 1433.76 2736.83 1442.45 2730.28 1442.45H2668.31V1599.29C2668.31 1609.39 2646.56 1609.39 2646.56 1599.29V1442.45H2582.44C2576.93 1442.45 2574.64 1425.4 2580.28 1425.4H2732.5Z" fill="white"/>
<path d="M3530.52 1425.4C3538.84 1427.72 3535.69 1442.45 3528.36 1442.45H3466.39V1601.47C3466.39 1608.23 3446.81 1608.23 3446.81 1601.47V1442.45H3382.68C3381.5 1442.45 3376 1438.59 3375.41 1436.79C3373.9 1433.89 3375.54 1425.4 3378.36 1425.4H3530.59H3530.52Z" fill="white"/>
<path d="M3547.42 1425.92C3555.15 1419.42 3569.76 1426.11 3568.64 1437.11C3564.25 1487.03 3574.41 1546.34 3568.64 1595.11C3566.35 1614.6 3546.5 1611.83 3544.54 1597.29C3547.68 1545.06 3540.67 1488.77 3544.54 1437.04C3544.8 1433.96 3545 1427.91 3547.35 1425.92H3547.42Z" fill="white"/>
<path d="M4732.49 1606.23C4730.07 1603.79 4730 1598.45 4729.68 1595.11C4726.14 1554.45 4726.14 1477.64 4729.68 1436.98C4731.38 1417.75 4747.95 1420.58 4749.46 1432.67C4755.68 1483.75 4744.41 1546.99 4749.46 1599.42C4750.51 1607.59 4737.8 1611.57 4732.49 1606.23Z" fill="white"/>
<path d="M2380.82 1425.92C2383.24 1428.36 2383.31 1433.7 2383.64 1437.04C2387.17 1477.7 2387.17 1554.51 2383.64 1595.17C2381.93 1614.4 2365.36 1611.57 2363.86 1599.48C2357.63 1548.4 2368.9 1485.16 2363.86 1432.73C2362.81 1424.56 2375.51 1420.58 2380.82 1425.92Z" fill="white"/>
</svg>
