<svg width="5422" height="1682" viewBox="0 0 5422 1682" fill="none" xmlns="http://www.w3.org/2000/svg">
<path d="M2021.34 492.597H2296.66V1297.44C2296.53 1637.49 1922.15 1730.97 1641.11 1659.59C1526.26 1630.39 1430.43 1563.33 1383.3 1454.94L1609.32 1349.77C1657.3 1431.36 1759.32 1455.52 1849.75 1448.48C1901.42 1444.47 1966.98 1411.27 1994.68 1367.79C2024.37 1321.15 2021.21 1263.66 2021.27 1210.69L1976.06 1244.54C1884.37 1297.31 1712.32 1300.48 1614.32 1263.72C1326.63 1155.78 1277.53 758.682 1501.18 562.364C1639.53 440.917 1879.17 437.881 2015.81 563.463L2021.21 560.297V492.791L2021.34 492.597ZM1813.29 698.993C1728.25 707.068 1660 779.161 1654.14 862.236C1636.83 1106.68 1982.71 1127.87 2022.46 921.344C2048.46 786.266 1951.51 685.879 1813.29 698.993Z" fill="#1A3169"/>
<path d="M812.986 342.597C718.668 290.465 599.472 238.268 488.831 263.592C406.954 282.325 361.013 372.313 431.833 432.584C502.653 492.855 627.839 527.416 710.375 568.695C833.258 630.129 961.142 734.458 966.013 879.484C973.45 1102.42 837.141 1237.62 619.02 1276.45C401.491 1315.14 172.246 1260.36 0 1126.06L145.524 887.106C210.684 938.786 291.903 986.719 372.136 1011.98C446.379 1035.36 586.571 1039.3 631.262 962.752C685.759 869.341 595.128 812.236 520.292 774.509C407.612 717.791 295.194 686.719 204.497 593.501C65.2258 450.413 85.5636 239.948 232.865 111.201C380.166 -17.5458 561.231 -20.2589 740.388 31.4208C807.589 50.8006 873.604 75.736 928.76 118.759L812.986 342.726V342.597Z" fill="#1A3169"/>
<path d="M2681.23 574.057C2685.38 578.256 2699.6 560.814 2703.09 557.972C2750.41 518.824 2798.13 488.463 2860.06 476.189C2967.48 454.871 3131.3 497.894 3203.43 581.68C3246.08 631.228 3264.78 698.734 3266.95 761.525L3266.82 1266.37H2991.5V834.458C2980.11 613.98 2698.28 639.819 2681.17 834.458V1266.37H2405.92V492.662H2681.23V574.122V574.057Z" fill="#1A3169"/>
<path d="M1302.48 492.597H1027.16V1266.31H1302.48V492.597Z" fill="#1A3169"/>
<path d="M3622.63 438.01C3636.98 436.524 3646.92 427.868 3661.73 426.447C3682.99 424.315 3748.15 424.057 3766.38 430.646C3776.18 434.199 3783.42 442.08 3793.16 445.052C3793.56 442.532 3794.02 439.432 3795.53 437.429C3808.37 420.504 3816.6 404.871 3838.25 395.116C3865.76 382.778 3938.69 383.553 3966.73 394.535C3981.27 400.22 3994.11 414.367 4003.06 426.641C4007.8 427.351 4019.12 416.692 4025.44 413.721C4050.78 401.77 4131.67 401.512 4157.34 412.106C4180.24 421.602 4197.62 441.37 4202.49 465.401L4204.33 642.533C4234.8 671.409 4264.62 701.254 4295.49 729.742C4306.41 739.82 4326.23 750.737 4334.78 763.269C4342.35 774.509 4337.15 812.236 4335.51 826.964C4323.66 933.36 4279.69 1098.41 4198.41 1173.61C4090.86 1273.15 3828.84 1297.06 3696.81 1242.53C3370.15 1107.65 3442.22 628.514 3432.88 350.672C3434.26 265.077 3549.57 227.222 3603.54 295.052C3609.6 302.61 3622.56 328.191 3622.56 336.847V437.946L3622.63 438.01ZM4013.59 804.032V955.13C4013.59 971.086 3988.84 1005.39 3975.09 1014.95C3910.72 1059.72 3825.42 1032.46 3795.8 963.722C3793.89 959.329 3793.69 945.44 3789.68 944.6C3779.54 950.349 3773.81 959.006 3763.22 965.078C3699.44 1001.32 3600.91 966.951 3594.2 890.078C3589.46 836.073 3592.42 764.755 3591.83 708.812C3590.44 582.261 3596.04 454.612 3588.4 328.708C3558.79 265.788 3471.97 279.548 3466.31 350.672C3459.47 436.266 3467.63 538.204 3468.88 624.897C3470.85 762.559 3465.26 873.928 3516.79 1005.58C3602.69 1225.09 3786.85 1270.31 4009.18 1227.03C4216.05 1186.72 4253.69 1061.2 4294.63 879.484C4300.23 854.613 4308.52 827.933 4309.97 801.577C4311.88 767.274 4309.11 777.739 4288.64 759.781C4224.21 703.192 4153.91 609.845 4070.72 587.752C4013.52 572.571 3937.77 557.003 3879.26 547.765C3853.32 543.695 3838.51 541.434 3819.49 562.171C3780.79 604.29 3821.34 677.933 3865.3 700.931C3922.83 731.034 3992.59 749.832 4050.97 779.161C4062.43 784.91 4072.89 788.463 4072.83 803.708L4049.46 948.153C4031.56 962.43 4024.84 947.636 4025.7 929.484C4027.21 898.476 4039.06 862.494 4041.96 831.551C4044.2 807.972 4039.32 809.652 4018.72 801.383L4013.79 803.967L4013.59 804.032ZM3982.79 542.597V450.801C3982.79 440.465 3959.55 423.346 3949.68 420.504C3929.54 414.625 3862.87 414.302 3845.42 425.349C3837.33 430.452 3823.97 448.54 3823.97 457.778V521.667C3877.94 512.881 3929.8 536.589 3982.72 542.597H3982.79ZM4172.34 612.3V471.667C4172.34 470.181 4163.33 451.77 4161.48 449.767C4158.06 445.956 4147.2 440.078 4142.07 438.592C4123.7 433.295 4060.52 433.424 4042.75 439.884C4002.14 454.548 4015.1 513.721 4014.71 547.248C4017.6 552.029 4074.01 561.589 4084.67 564.625C4117.52 573.863 4147.66 588.98 4172.34 612.3ZM3633.42 910.815C3670.87 971.215 3767.36 962.494 3782.7 891.37C3779.74 816.887 3790.27 733.424 3783.82 659.91C3781.65 634.974 3769.21 617.985 3771.77 590.142C3773.09 575.737 3781.84 565.853 3783.56 555.259C3785.4 543.824 3785.07 509.264 3783.69 497.313C3781.71 479.935 3766.44 460.685 3748.8 457.196C3737.55 454.935 3673.44 454.935 3662.19 457.196C3648.04 460.039 3627.9 476.512 3625.53 490.917L3624.87 887.882C3624.6 897.636 3629.15 903.967 3633.42 910.879V910.815ZM3824.03 716.887V945.827C3824.03 956.551 3836.14 978.838 3844.11 986.59C3886.1 1027.48 3972.39 1008.23 3982.79 948.153L3982.98 790.013L3824.03 716.887Z" fill="#1A3169"/>
<path d="M4617.01 406.744C4621.68 375.478 4651.37 341.692 4684.54 338.139C4705.54 335.878 4761.15 335.62 4781.75 338.139C4792.48 339.431 4811.37 351.77 4819.27 349.961C4827.89 321.279 4854.75 294.987 4885.94 291.692C4917.14 288.398 4988.95 288.075 5013.89 305.646C5038.84 323.217 5041.87 345.374 5051.87 370.698C5055.1 371.408 5057.99 365.982 5061.94 364.367C5090.05 352.933 5172.32 352.222 5199.9 364.948C5227.47 377.674 5245.97 402.287 5247.29 432.326C5242.09 519.147 5254.33 613.786 5247.42 699.639C5246.63 709.458 5243.2 726.06 5237.54 734.07C5233 740.401 5206.68 759.845 5207.4 764.173C5214.11 774.574 5221.88 784.329 5228.86 794.471C5238.47 808.489 5248.4 821.086 5255.64 837.817C5274.4 881.422 5252.22 941.822 5235.37 984.717C5211.68 1045.18 5164.16 1159.33 5113.41 1200.29C5035.55 1263.01 4843.89 1269.21 4746.08 1263.21C4435.48 1244.08 4411.39 863.269 4429.89 632.132C4432.46 599.897 4439.43 516.822 4451.81 490.982C4475.17 442.145 4537.57 445.439 4585.02 449.703C4596.41 450.736 4605.95 455.969 4617.08 456.615C4618.72 441.046 4614.84 421.602 4617.08 406.615L4617.01 406.744ZM5002.38 336.654C4996.98 331.227 4981.05 323.152 4973.48 321.989C4959.13 319.858 4905.16 319.858 4890.81 321.989C4873.97 324.509 4856.52 338.785 4850.34 354.289L4849.15 687.946C4852.31 698.993 4855.86 714.303 4868.7 717.791C4874.49 719.341 4900.29 712.752 4909.57 712.171C4940.44 710.233 4973.42 713.786 5004.48 712.3L5014.55 701.254L5015.28 360.103C5014.42 353.708 5007.05 341.24 5002.51 336.654H5002.38ZM4682.63 368.889C4669.67 371.731 4652.42 391.628 4650.31 404.548C4645.44 434.07 4650.05 461.848 4650.31 490.336C4650.71 551.383 4649.33 612.494 4650.78 673.54C4656.83 692.21 4670.46 702.223 4689.94 704.871C4709.42 707.52 4768.66 707.778 4787.74 704.419C4798.73 702.481 4809.92 697.119 4814.79 686.783L4815.52 398.088C4810.38 387.493 4798.21 371.667 4785.97 368.953C4775.76 366.692 4692.9 366.692 4682.7 368.953L4682.63 368.889ZM5083.13 389.819C5068.19 392.855 5050.82 407.713 5048.38 423.152L5048.71 706.099C5050.03 709.91 5052.73 711.589 5056.61 712.3C5078.4 716.305 5103.87 709.975 5129.27 715.401C5140.27 717.726 5182.85 737.365 5185.81 736.848C5203.06 733.747 5212.14 715.272 5214.11 699.639L5213.52 428.256C5209.18 412.106 5197.2 393.437 5179.16 389.884C5167.25 387.493 5094.98 387.493 5083.07 389.884L5083.13 389.819ZM4516.84 478.191C4490.97 482.132 4477.61 498.605 4475.11 523.282C4470.5 568.501 4471.36 651.447 4474.71 697.378C4475.96 714.819 4480.96 736.654 4502.16 740.142C4513.02 741.951 4586.93 742.016 4596.21 739.69C4603.58 737.817 4617.54 724.509 4617.01 715.918L4616.42 509.522C4611.61 495.439 4604.11 487.364 4589.83 482.132C4573.5 476.189 4534.28 475.478 4516.84 478.127V478.191ZM4832.63 733.23C4829.67 717.791 4804 736.46 4791.23 738.011C4769.25 740.595 4711.53 740.272 4689.28 738.011C4676.12 736.654 4664.33 729.484 4651.63 726.512C4642.09 745.698 4622.61 770.181 4599.31 772.959C4579.76 775.285 4498.54 774.897 4483.4 767.985C4474.78 763.98 4468.46 755.194 4458.26 754.354C4459.64 945.957 4498.8 1203.9 4737 1230.52C4826.25 1240.47 5010.8 1233.88 5086.03 1183.04C5130.52 1152.93 5159.29 1079.23 5179.76 1030.91C5195.03 994.859 5222.14 933.683 5227.8 896.732C5233.46 859.781 5215.96 835.75 5196.67 807.52C5176.07 777.352 5160.27 756.874 5122.16 748.088C5084.06 739.303 4948.14 741.757 4904.77 744.987C4878.05 746.99 4831.97 762.558 4810.06 777.61L4672.5 900.672C4650.05 945.375 4691.85 963.205 4727.91 974.38C4768.72 987.042 4817.16 991.952 4857.12 974.833L4985.99 901.318C4997.37 896.732 5011.79 910.168 5006.26 921.15C5002.64 928.256 4926.88 972.12 4913.85 979.355C4847.31 1016.18 4804.92 1028.32 4727.78 1007.13C4674.21 992.404 4619.78 963.915 4638.2 899.574C4646.69 869.794 4715.08 822.119 4740.68 800.802C4770.3 776.189 4794.92 746.861 4832.57 733.489L4832.63 733.23Z" fill="#1A3169"/>
<path d="M1153.46 15.3354C1279.18 4.22426 1372.51 133.165 1313.8 245.439C1267.99 332.907 1146.62 357.196 1067.7 297.506C950.348 208.682 1007.61 28.2553 1153.46 15.3354Z" fill="#1A3169"/>
<path d="M1317.81 1529.87V1553.52L67.9901 1559.91L67.9243 1536.33L1317.81 1529.87Z" fill="#1A3169"/>
<path d="M5080.37 1577.03V1436.66C5080.37 1430 5094.06 1426.58 5098.01 1432.71V1611.98C5090.24 1619.28 5083.86 1611.72 5078.26 1605.84C5042.52 1568.57 5013.1 1512.3 4977.63 1473.09C4975.85 1471.09 4973.81 1468.31 4971.11 1467.66V1610.17C4971.11 1613.53 4950.97 1622.18 4949.26 1603.77C4945.31 1561.78 4946.04 1485.43 4949.19 1442.92C4949.46 1439.82 4949.59 1436.78 4950.71 1433.81C4953.08 1428.52 4966.24 1427.8 4969.86 1433.55L5080.37 1576.97V1577.03Z" fill="#1A3169"/>
<path d="M2923.77 1605.97C2921.14 1618.18 2905.08 1618.89 2901.99 1605.97C2905.28 1553.9 2897.45 1496.6 2901.86 1445.18C2902.84 1433.3 2903.83 1432.26 2916.07 1431.23C2940.1 1429.29 2994.4 1428.64 3014.87 1439.5C3052.97 1459.65 3044.88 1526.13 2999.46 1532L2998.15 1536.27C3006.97 1538.59 3012.76 1547.77 3017.37 1554.94C3022.76 1563.46 3040.8 1594.67 3043.04 1602.68C3043.89 1605.71 3044.81 1608.3 3042.97 1611.27C3038.69 1617.73 3030.46 1616.37 3025.53 1611.2C3014.87 1596.67 2992.42 1536.33 2973.01 1536.33H2923.84C2920.88 1556.23 2927.79 1587.56 2923.84 1605.97H2923.77ZM2923.77 1519.21H2990.45C2991.37 1519.21 3003.54 1513.66 3005.39 1512.43C3021.25 1502.03 3022.7 1471.99 3010.19 1459.07C3007.43 1456.23 2993.34 1448.48 2990.45 1448.48H2923.77V1519.21Z" fill="#1A3169"/>
<path d="M2558.88 1577.03V1438.79C2558.88 1437.43 2564.47 1430.13 2566.97 1429.42C2569.74 1428.06 2578.56 1432.97 2578.56 1434.52V1610.23C2578.56 1611.4 2573.42 1615.47 2570.99 1615.53C2567.04 1615.66 2562.69 1611.85 2559.93 1609.2C2538.93 1589.3 2513 1545.51 2493.39 1520.76C2480.55 1504.61 2466.27 1486.14 2452.52 1470.38C2451.13 1468.83 2452.65 1466.37 2447.51 1467.66V1610.17C2447.51 1615.08 2430.01 1617.4 2430.01 1610.17V1434.46C2430.01 1433.55 2435.34 1428.84 2437.57 1429.16C2441.72 1429.48 2444.62 1431.81 2447.45 1434.46C2459.16 1445.38 2483.38 1479.94 2495.17 1494.79C2516.69 1521.93 2536.1 1550.8 2558.88 1576.97V1577.03Z" fill="#1A3169"/>
<path d="M4608.39 1608.17C4606.81 1617.4 4590.55 1617.92 4588.71 1608.17L4589.83 1435.62C4591.87 1432.07 4594.76 1431.75 4598.45 1431.23C4622.08 1428.26 4682.24 1429.16 4702.38 1440.92C4730.28 1457.13 4731.4 1504.55 4705.6 1523.48C4698.36 1528.77 4692.7 1528.77 4685.72 1531.87C4676.97 1535.75 4689.15 1538.01 4693.36 1541.95C4696.06 1544.47 4697.64 1547.77 4699.68 1550.74C4705.21 1558.75 4724.95 1592.73 4727.52 1600.61C4729.76 1607.52 4728.84 1614.05 4720.87 1615.66C4717.19 1615.72 4712.32 1611.98 4709.81 1609.39C4696.39 1595.38 4680 1536.46 4657.49 1536.46H4608.32C4605.69 1558.17 4611.81 1587.56 4608.32 1608.23L4608.39 1608.17ZM4608.39 1519.21H4677.23C4678.16 1519.21 4687.44 1514.89 4689.15 1513.79C4708.56 1501.38 4709.35 1467.79 4690 1455.32C4688.09 1454.1 4676.05 1448.54 4675.06 1448.54H4608.39V1519.28V1519.21Z" fill="#1A3169"/>
<path d="M3227.13 1613.21C3226.34 1614.37 3220.15 1615.6 3218.11 1615.27C3205.21 1613.4 3199.68 1579.1 3192.25 1569.79C3189.61 1566.5 3188.95 1566.69 3184.94 1566.24C3156.9 1563.01 3122.15 1568.57 3093.39 1566.69C3082.46 1574.77 3077.46 1613.33 3064.16 1615.27C3050.87 1617.21 3054.69 1604.42 3057.52 1595.76C3069.63 1558.68 3093.26 1518.83 3110.1 1484.39C3116.03 1472.25 3127.68 1433.42 3139.99 1430.07C3150.12 1427.35 3155.72 1442.79 3159.4 1449.9C3179.21 1487.82 3211.4 1556.23 3224.76 1595.83C3226.14 1600.03 3229.43 1609.72 3227.13 1613.27V1613.21ZM3098.52 1549.19H3183.75L3143.28 1457L3098.52 1549.19Z" fill="#1A3169"/>
<path d="M3808.7 1512.75H3899.4C3904.46 1512.75 3906.83 1529.87 3897.22 1529.87H3808.7V1596.28H3905.91C3909.79 1596.28 3912.82 1611.27 3901.5 1613.33C3870.44 1610.82 3833.45 1616.95 3803.17 1613.46C3791.91 1612.17 3789.87 1607.91 3788.89 1597.44C3785.33 1559.2 3785.53 1483.55 3788.89 1445.12C3789.28 1440.47 3790.2 1431.29 3796.65 1431.29H3905.91C3911.57 1431.29 3909.27 1448.41 3903.74 1448.41H3808.7V1512.75Z" fill="#1A3169"/>
<path d="M4464.18 1512.75H4554.88C4559.95 1512.75 4562.32 1529.87 4552.71 1529.87H4464.18V1596.28H4561.39C4565.28 1596.28 4568.3 1611.27 4556.98 1613.33C4525.92 1610.82 4488.93 1616.95 4458.65 1613.46C4447.4 1612.17 4445.36 1607.91 4444.37 1597.44C4440.82 1559.2 4441.01 1483.55 4444.37 1445.12C4444.76 1440.47 4445.69 1431.29 4452.14 1431.29H4561.39C4567.05 1431.29 4564.75 1448.41 4559.22 1448.41H4464.18V1512.75Z" fill="#1A3169"/>
<path d="M2779.57 1448.48V1512.75H2870.26L2873.16 1516.31C2874.54 1521.15 2874.61 1529.87 2868.02 1529.87H2779.5V1596.28H2874.54C2878.75 1596.28 2887.9 1611.59 2865.92 1613.53C2843.94 1615.47 2790.49 1616.05 2769.82 1613.21C2767.13 1612.82 2763.44 1612.24 2761.86 1609.85V1434.26C2763.9 1431.68 2766.53 1431.55 2769.56 1431.16C2800.5 1427.16 2840.32 1434.26 2872.3 1431.29C2884.81 1433.62 2880 1448.35 2872.3 1448.35H2779.43L2779.57 1448.48Z" fill="#1A3169"/>
<path d="M4102.58 1596.35C4106.66 1597.57 4106.59 1607.2 4105.54 1611.07C4102.58 1612.5 4099.35 1613.21 4096.06 1613.53C4073.48 1615.6 4022.01 1616.05 3999.83 1613.53C3993.65 1612.82 3987.39 1611.33 3987.72 1603.97L3989.83 1434.33C3991.94 1431.75 3994.5 1431.62 3997.6 1431.23C4028.6 1427.22 4068.42 1434.39 4100.4 1431.29L4104.88 1433.3L4105.47 1445.96C4103.89 1446.28 4101.19 1448.48 4100.34 1448.48H4007.47V1512.75H4095.99C4102.38 1512.75 4103.89 1529.87 4093.82 1529.87H4007.53V1596.28H4102.58V1596.35Z" fill="#1A3169"/>
<path d="M5417.95 1596.35C5422.03 1597.57 5421.83 1607.2 5420.98 1611.14C5417.1 1611.78 5413.21 1613.14 5409.2 1613.46C5386.29 1615.4 5337.52 1616.05 5315.21 1613.46C5309.02 1612.75 5302.77 1611.27 5303.1 1603.9L5305.2 1434.26C5307.31 1431.68 5309.88 1431.55 5312.97 1431.16C5343.97 1427.16 5383.79 1434.33 5415.78 1431.23C5424.47 1432.78 5424.34 1448.35 5413.61 1448.35H5322.91V1512.62H5409.2C5415.58 1512.62 5417.1 1529.74 5407.03 1529.74H5322.91V1596.15H5417.95V1596.35Z" fill="#1A3169"/>
<path d="M4829.08 1448.48V1512.75H4917.6L4920.5 1516.31C4921.88 1521.15 4921.95 1529.87 4915.36 1529.87H4829.08V1596.28H4921.95C4926.16 1596.28 4934.45 1611.27 4915.43 1613.46C4896.41 1615.66 4838.49 1615.79 4819.4 1613.21C4816.7 1612.82 4813.02 1612.24 4811.44 1609.85V1434.26C4813.48 1431.68 4816.11 1431.55 4819.14 1431.16C4849.41 1427.22 4888.38 1434.2 4919.71 1431.29C4932.21 1433.62 4927.41 1448.35 4919.71 1448.35H4829.01L4829.08 1448.48Z" fill="#1A3169"/>
<path d="M4309.05 1540.66V1610.3C4309.05 1613.46 4295.56 1618.44 4291.41 1612.04V1434.33C4293.45 1431.75 4296.08 1431.62 4299.11 1431.23C4320.5 1428.45 4382.11 1429.48 4400.53 1439.11C4431.4 1455.2 4433.9 1506.42 4408.1 1527.48C4401.19 1533.17 4382.04 1540.66 4373.48 1540.66H4309.05ZM4309.05 1523.48H4373.48C4374.67 1523.48 4385.79 1519.34 4387.83 1518.24C4411.86 1505.84 4411.33 1465.72 4388.49 1453C4386.98 1452.16 4376.45 1448.41 4375.66 1448.41H4308.98V1523.41L4309.05 1523.48Z" fill="#1A3169"/>
<path d="M4185.9 1494.21C4188.34 1496.86 4190.77 1505.78 4194.26 1504.16C4202.29 1500.48 4236.38 1442.99 4246.72 1433.42C4254.94 1425.09 4270.68 1431.23 4263.3 1443.24L4206.31 1520.18L4266.33 1600.67C4270.08 1608.17 4265.67 1617.6 4256.52 1614.76C4243.36 1610.62 4206.17 1549.96 4195.38 1536.33C4191.36 1533.68 4140.09 1604.87 4135.35 1611.33C4126.27 1619.15 4112.65 1614.82 4118.77 1601.51C4129.3 1578.52 4163.33 1549.83 4175.44 1526.32C4176.49 1524.32 4177.87 1522.64 4177.81 1520.25L4122.32 1444.08C4118.96 1438.66 4121.99 1429.36 4128.77 1429.23C4132.79 1429.61 4135.88 1431.94 4138.78 1434.46C4152.93 1446.93 4170.89 1477.68 4185.97 1494.21H4185.9Z" fill="#1A3169"/>
<path d="M3391.02 1583.81C3397.14 1593.24 3385.29 1600.54 3378.91 1604.48C3334.61 1631.94 3265.5 1614.24 3248.32 1564.11C3221.67 1486.07 3273.99 1408.94 3361.2 1434.07C3371.67 1437.11 3394.97 1446.8 3390.95 1459.78C3386.74 1473.48 3366.4 1455.32 3357.84 1452.35C3321.18 1439.56 3281.3 1453.06 3270.11 1491.37C3252.6 1551.25 3285.84 1619.73 3357.84 1594.6C3364.89 1592.15 3385.82 1575.87 3390.95 1583.81H3391.02Z" fill="#1A3169"/>
<path d="M5206.61 1429.81C5229.05 1427.93 5267.1 1435.23 5279.14 1455.91L5275.92 1463.53C5267.95 1470.83 5255.51 1457.84 5247.88 1454.48C5214.9 1440.01 5170.94 1448.86 5157.25 1484.33C5134.14 1544.28 5164.22 1617.02 5239.78 1595.31C5249.79 1592.47 5274.6 1572.57 5278.81 1587.17C5282.1 1598.67 5257.09 1609.14 5248.07 1611.98C5107.95 1655.78 5085.04 1440.08 5206.61 1429.87V1429.81Z" fill="#1A3169"/>
<path d="M3684.17 1585.62C3687.72 1589.3 3692.33 1576.13 3693.25 1574.19C3704.44 1551.32 3715.96 1525.93 3726.23 1503.64C3734.46 1485.82 3745.25 1449.9 3755.25 1435.75C3765.26 1421.6 3777.57 1430.26 3770.39 1450.61C3751.7 1503.32 3718.86 1554.87 3698.45 1607.26C3695.03 1615.14 3686.47 1618.18 3678.9 1613.33L3600.98 1438.79C3600.45 1432.46 3606.57 1429.1 3612.69 1429.55C3617.17 1431.75 3619.67 1435.75 3622.04 1439.82C3644.48 1479.1 3662.52 1535.1 3682.46 1577.8C3683.64 1580.32 3684.3 1582.91 3684.24 1585.69L3684.17 1585.62Z" fill="#1A3169"/>
<path d="M2745.67 1431.36L2748.57 1434.91C2749.95 1439.76 2750.01 1448.48 2743.43 1448.48H2681.17V1605.97C2681.17 1616.11 2659.32 1616.11 2659.32 1605.97V1448.48H2594.88C2589.35 1448.48 2587.05 1431.36 2592.71 1431.36H2745.67Z" fill="#1A3169"/>
<path d="M3547.53 1431.36C3555.89 1433.68 3552.73 1448.48 3545.36 1448.48H3483.1V1608.17C3483.1 1614.95 3463.42 1614.95 3463.42 1608.17V1448.48H3398.98C3397.8 1448.48 3392.27 1444.6 3391.67 1442.79C3390.16 1439.88 3391.81 1431.36 3394.64 1431.36H3547.6H3547.53Z" fill="#1A3169"/>
<path d="M3564.51 1431.87C3572.28 1425.35 3586.96 1432.07 3585.84 1443.11C3581.43 1493.24 3591.63 1552.8 3585.84 1601.77C3583.53 1621.34 3563.59 1618.57 3561.62 1603.97C3564.78 1551.51 3557.73 1494.99 3561.62 1443.05C3561.88 1439.95 3562.08 1433.88 3564.45 1431.87H3564.51Z" fill="#1A3169"/>
<path d="M4755.29 1612.95C4752.86 1610.49 4752.79 1605.13 4752.46 1601.77C4748.91 1560.94 4748.91 1483.81 4752.46 1442.99C4754.18 1423.67 4770.83 1426.51 4772.34 1438.66C4778.59 1489.95 4767.27 1553.45 4772.34 1606.1C4773.39 1614.3 4760.63 1618.31 4755.29 1612.95Z" fill="#1A3169"/>
<path d="M2392.29 1431.87C2394.73 1434.33 2394.79 1439.69 2395.12 1443.05C2398.68 1483.88 2398.68 1561.01 2395.12 1601.84C2393.41 1621.15 2376.76 1618.31 2375.25 1606.16C2368.99 1554.87 2380.31 1491.37 2375.25 1438.72C2374.19 1430.52 2386.96 1426.51 2392.29 1431.87Z" fill="#1A3169"/>
</svg>
