<svg width="302" height="315" viewBox="0 0 302 315" fill="none" xmlns="http://www.w3.org/2000/svg">
<path d="M292.94 106.911C283.454 116.568 262.737 120.198 249.819 119.503C246.94 119.347 244.033 120.254 241.169 120.51C228.379 121.63 215.39 117.759 205.137 110.158C200.359 106.614 196.388 102.09 190.447 100.389C184.803 98.7722 173.147 99.3961 167.021 99.864C154.954 100.786 147.283 107.039 142.929 118.085C138.548 129.202 135.088 141.198 131.245 152.527C128.508 178.859 137.201 194.854 161.406 204.865C169.602 208.254 185.838 212.933 194.502 212.224C214.34 210.607 217.857 194.726 226.223 180.234C238.191 159.504 261.546 151.024 284.574 157.391C298.159 161.149 304.327 173.386 301.122 186.828C296.528 206.127 289.31 225.482 284.376 244.752C281.185 253.246 270.635 263.81 264.24 270.488C256.271 278.812 247.366 287.603 238.744 295.203C228.137 304.562 212.001 308.688 198.26 311.297C154.826 319.55 113.109 312.29 72.7662 295.771C32.4239 279.251 9.45214 241.264 2.05014 198.54C0.135826 187.452 -0.89929 177.526 1.0292 166.324C9.92012 114.568 49.6952 84.6492 80.2108 45.9528C88.8606 34.9919 94.9155 19.9756 105.834 11.1842C126.239 -5.23585 147.297 0.577846 171.077 3.01675C190.489 5.01609 210.951 6.36315 230.165 9.17073C238.361 10.3618 245.465 13.4104 251.095 19.5786C258.001 27.1506 264.523 36.1972 271.103 44.1662C278.789 53.4681 288.545 63.7342 295.266 73.5323C302.342 83.8551 301.86 97.8221 292.926 106.911H292.94ZM263.063 54.1345C255.576 45.1021 248.287 35.8994 240.673 26.9662C238.673 25.2788 236.546 23.79 234.107 22.8258C222.012 20.6563 209.59 19.6211 197.324 18.3166C178.053 16.2747 158.74 14.5732 139.484 12.4462C132.521 12.191 121.773 14.9135 116.327 19.3801C116.016 19.6353 114.739 20.557 115.76 20.5995C118.469 19.5786 121.248 18.4159 124.056 17.6785C135.697 14.6441 147.665 17.4091 159.364 18.5719C172.183 19.8339 185.044 20.7555 197.849 22.1452C209.675 23.4213 220.821 25.1229 231.371 30.9366C251.506 42.0109 260.964 63.3513 273.712 81.3595C276.421 86.3508 277.13 92.1077 275.584 97.5811C275.3 98.5737 272.876 103.622 273.159 103.948C279.37 101.707 286.786 98.3468 287.821 90.9592C288.502 86.1523 287.524 83.7133 284.73 80.0125C278.151 71.3345 270.096 62.614 263.077 54.1345H263.063ZM213.858 99.7647C225.741 108.528 246.416 110.626 257.986 100.374C263.063 95.8795 264.85 91.8099 261.376 85.5142C257.107 77.772 250.443 67.8605 245.324 60.5437C234.632 45.2297 221.629 36.7928 202.911 34.4106C185.2 32.156 165.972 30.3552 148.148 29.0365C140.476 28.4693 132.663 27.8312 125.204 30.0432C114.853 33.1202 97.3545 45.4849 90.0376 53.4964C86.8045 57.0272 83.7842 61.0826 80.622 64.7126C69.3063 77.6728 57.7779 90.5196 46.7174 103.693C32.041 121.176 20.782 138.589 15.1667 161.078C12.1889 173.003 12.2456 179.852 14.0039 191.961C20.0447 233.536 40.6767 269.921 81.1892 285.59C118.752 300.11 154.812 305.455 194.97 298.564C207.108 296.48 220.806 293.388 230.094 285.008C242.403 273.906 257.504 259.853 267.799 247.021C271.642 242.228 272.323 239.973 274.053 234.16C279.484 215.911 284.461 197.406 289.225 179.001C288.672 173.045 284.532 169.997 279.072 168.749C267.076 165.998 255.831 167.274 245.919 174.931C234.519 183.751 232.448 198.838 223.713 209.558C214.978 220.278 200.486 225.056 187.483 223.114C164.838 219.753 135.329 210.48 125.048 188.203C112.754 161.588 121.276 142.134 130.437 116.795C135.527 102.714 142.008 92.916 157.01 88.0665C165.688 85.2589 185.668 84.791 194.417 87.2441C204.187 89.9808 206.513 94.3339 213.887 99.7647H213.858Z" fill="black"/>
</svg>
