<svg width="323" height="437" viewBox="0 0 323 437" fill="none" xmlns="http://www.w3.org/2000/svg">
<path d="M23.1035 283.541C14.7089 279.315 8.14364 271.914 4.71206 263.165C-2.25036 245.398 -0.0809426 205.723 2.28713 186.325C4.34324 169.48 6.08738 146.976 24.0961 139.674C33.8662 135.704 47.7485 140.34 56.7387 145.048C57.8164 145.615 62.2973 149.217 63.0772 148.465C65.4311 136.923 66.8207 124.374 75.9102 115.895C88.4454 104.196 101.548 108.989 115.629 114.221C123.385 117.114 124.449 118.362 130.83 122.8C131.227 123.084 131.298 123.466 132.021 123.268C134.63 110.364 144.584 99.9424 157.999 98.6095C166.79 97.7304 188.614 105.161 195.491 110.932L200.496 116.618C200.454 115.086 200.922 113.668 200.993 112.123C202.368 86.4575 198.965 58.5093 200.95 33.1561C202.156 17.8562 215.683 3.30783 230.729 0.65623C255.714 -3.73947 276.005 14.4814 276.105 39.3384V256.146C276.473 258.145 281.011 259.847 282.698 260.953C299.927 272.197 325.579 288.844 322.601 312.184C316.943 356.467 286.896 399.46 246.78 418.929C205.573 438.922 143.209 442.623 100.952 424.161C53.2221 403.303 28.889 353.05 23.6282 303.222C22.9617 296.884 22.3096 289.808 23.1178 283.555L23.1035 283.541ZM200.482 180.54C200.27 178.342 200.638 175.875 200.482 173.648L199.532 180.072C199.164 192.763 198.44 205.879 200.043 218.555C200.099 219.023 200.256 219.846 200.596 220.129C221.1 224.681 239.165 236.507 257.529 246.163C258.521 246.688 264.193 249.722 264.661 249.24L264.69 40.728C266.179 6.89529 219.569 0.599506 213.301 34.0778V181.008C213.074 185.885 209.302 189.558 204.424 187.53C201.432 186.283 200.78 183.574 200.482 180.54ZM188.117 219.293C187.295 200.335 187.111 181.419 189.606 162.546C190.698 154.222 194.598 141.858 194.782 134.399C195.165 118.83 178.078 113.484 165.684 110.733C153.291 107.982 146.286 116.051 143.578 126.969C135.282 160.348 133.949 200.122 137.721 234.267C139.196 247.553 142.727 259.421 155.787 265.405C151.391 244.292 165.075 219.86 188.117 219.293ZM92.4301 119.567C80.8166 121.325 77.5552 135.108 75.5841 144.566C73.4429 154.804 73.3011 162.276 72.5779 172.457C72.0249 180.299 70.0113 187.913 69.7135 196.208C69.1747 211.04 69.6285 243.795 75.0736 256.982C83.7093 277.855 107.915 281.258 119.429 260.669C126.391 248.219 122.081 234.848 121.542 221.448C120.847 204.007 121.641 185.517 124.009 168.246C125.612 156.534 132.078 139.532 122.534 130.117C118.649 126.288 103.93 121.496 98.2581 120.148C96.0743 119.624 94.7981 119.184 92.4301 119.553V119.567ZM31.5833 149.5C18.1264 150.564 16.2121 168.317 14.6381 178.711C11.5185 199.243 9.27796 234.749 14.1559 254.657C18.4383 272.126 37.2411 282.35 50.7122 266.61C60.6099 255.054 55.5334 241.668 54.9804 228.084C54.2997 211.295 56.7672 197.272 58.724 180.965C59.8726 171.408 61.6025 162.248 52.0877 156.349C49.4218 154.704 34.2066 149.302 31.5833 149.515V149.5ZM132.971 260.655C129.1 272.906 115.841 285.214 102.767 286.32C86.9707 287.667 73.372 279.315 65.6864 265.887C59.8726 277.316 48.5568 286.292 35.3268 286.391L34.6178 287.1C35.6813 330.348 51.1234 378.361 88.1193 403.671C117.316 423.651 150.398 426.798 185.026 423.721C242.299 418.645 289.377 388.683 306.266 331.965C309.059 322.606 313.37 308.455 308.648 299.621C298.935 281.4 254.097 257.351 235.195 247.553C220.434 239.91 192.329 223.348 176.958 235.443C165.344 244.589 163.529 263.051 173.37 274.197L231.594 331.979C235.734 337.154 229.509 343.918 223.823 340.714C223.114 340.316 221.029 338.388 220.207 337.679C202.453 322.294 185.111 302.343 167.939 285.824C166.592 284.519 162.749 280.237 161.756 279.642C160.126 278.663 156.099 278.238 153.915 277.5C145.889 274.764 138.005 268.397 133.964 260.939L132.985 260.641L132.971 260.655Z" fill="black"/>
</svg>
