<svg width="315" height="451" viewBox="0 0 315 451" fill="none" xmlns="http://www.w3.org/2000/svg">
<path d="M55.945 54.422C58.3273 28.6008 85.8792 14.1092 109.135 24.3611C112.977 26.0627 115.799 28.7284 119.188 31.0539C126.76 -10.4926 185.891 -10.365 192.825 31.5218C216.52 10.5359 253.686 24.4178 256.083 56.2938L256.168 248.343L305.146 301.801C323.637 325.552 310.293 350.622 296.383 372.316C260.379 428.525 197.434 453.85 131.681 450.744C42.9561 446.561 9.37759 365.936 2.14574 288.557C-0.619374 258.936 2.0465 229.428 0.699393 199.835C2.42936 167.448 -1.52688 132.779 0.699393 100.648C2.27338 77.8327 26.8758 63.4403 47.7631 72.5011L55.945 77.3081C56.4413 69.9204 55.2785 61.6962 55.945 54.4079V54.422ZM245.207 56.3079C245.207 49.3741 239.038 40.6394 233.267 37.0945C216.733 26.9702 195.463 37.9736 194.215 57.2296L194.258 217.772C193.322 225.784 183.594 226.223 181.963 218.24V35.0809C178.333 3.60204 133.964 3.98489 130.972 35.5205L130.674 215.092C128.263 221.728 119.529 220.608 118.72 213.518V57.7117C116.522 25.2119 71.0184 24.5738 67.7287 56.2938L67.757 217.772C66.1831 225.472 56.6824 225.585 55.4771 217.772V102.562C53.4493 74.7557 15.4892 74.0751 12.0293 101.144C12.3412 147.412 12.2278 193.737 12.0293 239.935C11.6748 319.398 29.9387 433.417 129.809 438.933C195.477 442.563 257.274 416.273 290.597 358.534C302.055 338.682 309.102 324.233 292.171 304.864C277.055 287.579 259.798 269.23 243.803 252.697C236.458 245.11 231.821 239.609 220.448 238.758C196.271 236.971 169.854 240.091 145.45 238.843C131.241 240.956 125.385 253.718 131.851 266.479C138.289 279.17 145.138 289.947 159.687 293.874C178.971 299.093 200.823 300.44 220.335 305.445C226.248 307.827 225.752 315.952 219.498 316.69C216.464 317.044 211.501 315.697 208.296 315.13C192.244 312.294 174.051 309.103 158.354 305.119C150.484 303.12 143.961 300.383 137.821 294.98C130.66 288.685 118.791 269.656 117.827 260.212C116.111 243.31 127.796 228.279 144.911 226.989C171.002 225.032 200.142 227.967 226.432 227.584C230.757 228.265 234.77 229.896 238.613 231.938L245.207 235.965V56.3079Z" fill="black"/>
</svg>
