<svg width="304" height="313" viewBox="0 0 304 313" fill="none" xmlns="http://www.w3.org/2000/svg">
<path d="M179.406 13.9681C179.676 14.1667 184.1 10.7068 184.809 10.2814C189.12 7.67236 192.863 6.79321 197.897 6.55215C203.839 6.26856 211.269 6.26856 217.196 6.55215C223.833 6.86411 229.108 8.56568 234.127 12.9472C245.883 23.2275 242.635 37.8751 243.103 51.8563C243.458 52.2249 246.535 49.5733 247.074 49.2047C262.431 38.5699 282.099 39.4207 295.031 53.416C305.085 64.306 303.028 76.8692 303.199 90.5385C303.539 116.913 303.525 143.344 302.972 169.675C302.83 176.453 303.454 184.564 301.979 191.101C300.504 197.638 297.427 205.38 294.79 211.491C273.647 260.581 232.965 294.868 180.754 306.921C146.948 314.719 106.464 315.726 75.197 298.994C34.3867 277.157 15.1018 232.591 6.3385 189.116C3.91371 177.063 2.8502 164.783 0 152.844V55.9542C0.751545 43.0365 10.8478 33.2242 23.6666 32.3025C28.899 31.9196 36.4428 31.6644 41.576 32.3308C45.5323 32.8413 49.0631 34.8265 52.7216 36.2303C53.232 35.9892 53.9411 32.7137 54.2388 31.9196C58.3794 21.058 67.4547 14.7764 79.054 14.1241C88.0016 13.6136 101.969 13.2733 109.91 17.3854C110.463 17.669 113.228 19.5266 113.497 19.2997C115.851 11.1322 122.346 4.22669 130.428 1.57509C137.051 -0.594404 145.899 0.0436796 152.861 0.242195C156.647 0.355633 159.767 0.00114202 163.525 1.02208C170.133 2.80872 176.5 7.75745 179.449 13.9256L179.406 13.9681ZM140.794 11.118C137.008 11.3165 134.909 11.6001 131.662 13.6562C127.295 16.4212 123.211 22.4618 124.7 27.7508L124.671 199.552C126.898 230.889 171.551 230.648 173.139 198.659V26.8575C173.139 19.6684 166.8 11.9546 159.554 11.2882C153.868 10.7635 146.537 10.8344 140.78 11.1322L140.794 11.118ZM196.862 17.8534C190.042 18.5482 184.299 24.532 183.902 31.3524V180.253C187.943 210.328 230.356 208.485 232.355 178.467V32.4726C232.142 24.9716 225.804 18.2788 218.331 17.7683C212.616 17.3713 202.477 17.272 196.862 17.8392V17.8534ZM78.4442 24.5745C70.3332 25.2126 62.676 32.7988 64.5903 41.2073C64.7605 88.1279 64.2075 135.105 64.8597 181.983C70.4041 210.541 111.427 207.776 113.029 178.24V39.1938C111.952 30.4308 105.996 24.929 97.2187 24.4895C91.6743 24.2059 83.9319 24.135 78.4301 24.5604L78.4442 24.5745ZM47.1772 164.982C50.6371 161.352 52.6081 156.828 52.9343 151.795V55.7982C52.7358 49.4883 47.1913 43.3059 40.9237 42.6962C36.8824 42.2992 31.7634 42.2992 27.6795 42.4551C18.4058 42.8096 12.2232 46.865 11.656 56.7057C10.8052 71.3533 11.6419 87.9152 11.8971 102.676C11.8971 103.314 11.5993 103.952 11.6419 104.704C11.6844 105.555 12.2091 106.037 12.2374 106.491C12.2658 106.916 11.9113 107.54 11.8829 108.065C11.3299 121.308 12.0814 134.538 13.0031 147.753C13.5987 156.375 12.365 160.756 19.5118 166.811C27.7788 173.816 39.8602 172.681 47.1913 164.982H47.1772ZM252.221 255.859C269.223 238.702 283.12 216.596 290.04 193.313C293.032 183.259 291.883 173.376 291.982 162.968C292.152 144.818 292.096 126.64 291.982 108.49C291.911 97.5857 292.521 86.086 291.996 75.2811C291.727 69.6234 290.578 65.2844 286.821 60.9454C272.754 44.7097 245.443 55.8549 243.529 76.1744C243.245 112.035 244.153 147.98 243.047 183.784C239.204 207.578 213.666 220.524 191.871 209.917C188.808 208.428 186.142 206.287 183.547 204.118C183.107 204.217 183.207 205.465 183.107 205.919C177.407 231.002 149.387 242.757 127.833 227.968C119.921 222.537 114.901 213.519 113.455 204.104C113.058 203.777 111.541 205.55 111.101 205.89C86.8389 224.82 52.4238 207.393 53.5298 176.567C53.5298 176.326 53.5582 175.872 53.2462 175.858C53.0335 175.858 50.3251 178.055 49.7438 178.41C41.2924 183.742 31.7067 184.564 22.2911 181.232C20.4193 180.565 18.6894 179.502 16.8034 178.991C18.5759 190.278 21.185 201.707 24.5457 212.626C39.7184 261.943 72.3326 298.611 126.798 300.54C172.387 302.156 219.72 288.615 252.207 255.831L252.221 255.859Z" fill="black"/>
</svg>
