<svg width="302" height="391" viewBox="0 0 302 391" fill="none" xmlns="http://www.w3.org/2000/svg">
<path d="M193.124 364.635L193.187 364.66L193.251 364.684L250.323 386H77.3778L153.205 348.477L193.124 364.635Z" stroke="#1A3169" stroke-width="10"/>
<circle cx="151" cy="151" r="145" transform="rotate(15.6796 151 151)" stroke="#1A3169" stroke-width="10"/>
<path d="M199.004 164.994C183.36 220.726 132.237 253.753 85.8258 240.725C39.4147 227.697 12.9467 172.89 28.5907 117.159C44.2346 61.4272 95.3579 28.4002 141.769 41.4279C188.18 54.4556 214.648 109.263 199.004 164.994Z" stroke="#FFE6C1" stroke-width="10"/>
<path d="M174.799 158.719C162.52 202.466 124.274 226.59 91.8307 217.483C59.387 208.376 39.2827 167.873 51.5626 124.126C63.8424 80.3794 102.088 56.2555 134.531 65.3625C166.975 74.4695 187.079 114.972 174.799 158.719Z" stroke="#1A3169" stroke-width="20"/>
<path d="M152.326 155.527C144.665 182.818 120.389 199.014 98.7224 192.932C77.0554 186.85 64.7539 160.387 72.4147 133.095C80.0754 105.804 104.351 89.6083 126.018 95.6903C147.685 101.772 159.987 128.236 152.326 155.527Z" stroke="#F0A868" stroke-width="5"/>
<path d="M139.117 150.78C133.996 169.023 117.817 179.596 103.587 175.602C89.3565 171.607 81.0431 154.159 86.1638 135.916C91.2845 117.674 107.464 107.1 121.694 111.095C135.924 115.089 144.238 132.538 139.117 150.78Z" stroke="#1A3169" stroke-width="5"/>
<ellipse cx="139.632" cy="128.594" rx="11" ry="14.5" transform="rotate(15.6796 139.632 128.594)" fill="#FFE6C1"/>
<rect x="98" y="301" width="109" height="43" rx="17" stroke="#1A3169" stroke-width="10"/>
</svg>
