<svg width="302" height="391" viewBox="0 0 302 391" fill="none" xmlns="http://www.w3.org/2000/svg">
<path d="M108.876 364.635L108.813 364.66L108.749 364.684L51.6775 386H224.622L148.795 348.477L108.876 364.635Z" stroke="#1A3169" stroke-width="10"/>
<circle cx="150" cy="150" r="145" transform="matrix(-0.962788 0.270257 0.270257 0.962788 254.88 -33.9568)" stroke="#1A3169" stroke-width="10"/>
<path d="M102.996 164.994C118.64 220.726 169.763 253.753 216.174 240.725C262.585 227.697 289.053 172.89 273.409 117.159C257.765 61.4273 206.642 28.4002 160.231 41.4279C113.82 54.4556 87.3518 109.263 102.996 164.994Z" stroke="#FFE6C1" stroke-width="10"/>
<path d="M127.201 158.719C139.48 202.466 177.726 226.59 210.169 217.483C242.613 208.376 262.717 167.873 250.437 124.126C238.158 80.3794 199.912 56.2555 167.469 65.3625C135.025 74.4695 114.921 114.972 127.201 158.719Z" stroke="#1A3169" stroke-width="20"/>
<path d="M149.674 155.527C157.335 182.818 181.611 199.014 203.278 192.932C224.945 186.85 237.246 160.387 229.585 133.095C221.925 105.804 197.649 89.6083 175.982 95.6903C154.315 101.772 142.013 128.236 149.674 155.527Z" stroke="#F0A868" stroke-width="5"/>
<path d="M162.883 150.78C168.004 169.023 184.183 179.596 198.413 175.602C212.644 171.607 220.957 154.159 215.836 135.916C210.715 117.674 194.536 107.1 180.306 111.095C166.076 115.089 157.762 132.538 162.883 150.78Z" stroke="#1A3169" stroke-width="5"/>
<ellipse cx="11" cy="14.5" rx="11" ry="14.5" transform="matrix(-0.962788 0.270257 0.270257 0.962788 169.04 111.661)" fill="#FFE6C1"/>
<rect x="-5" y="5" width="109" height="43" rx="17" transform="matrix(-1 0 0 1 199 296)" stroke="#1A3169" stroke-width="10"/>
</svg>
