<svg width="466" height="604" viewBox="0 0 466 604" fill="none" xmlns="http://www.w3.org/2000/svg">
<path d="M166.82 559.865L166.757 559.891L166.693 559.914L64.2987 598.088H358.52L229.702 534.46L166.82 559.865Z" stroke="#1A3169" stroke-width="10"/>
<path d="M14.4477 293.807C48.3261 414.276 173.636 484.535 294.346 450.714C415.056 416.893 485.431 291.806 451.552 171.337C417.674 50.868 292.364 -19.3907 171.654 14.4305C50.9437 48.2516 -19.4308 173.338 14.4477 293.807Z" fill="#5CBEE9" stroke="#1A3169" stroke-width="10"/>
<path d="M156.123 254.914C180.617 342.012 260.943 394.33 334.539 373.71C408.135 353.089 449.451 266.689 424.958 179.59C400.464 92.4919 320.137 40.1742 246.541 60.7947C172.945 81.4151 131.629 167.815 156.123 254.914Z" stroke="#FFE6C1" stroke-width="10"/>
<path d="M190.928 245.963C210.464 315.431 272.022 355.567 325.988 340.447C379.954 325.326 411.594 259.078 392.058 189.61C372.523 120.142 310.965 80.0062 256.999 95.1267C203.033 110.247 171.392 176.496 190.928 245.963Z" stroke="#1A3169" stroke-width="20"/>
<path d="M229.634 239.929C241.617 282.543 279.764 308.272 314.224 298.617C348.684 288.961 367.845 247.176 355.861 204.562C343.877 161.949 305.73 136.22 271.27 145.875C236.81 155.53 217.65 197.316 229.634 239.929Z" stroke="#F0A868" stroke-width="5"/>
<path d="M250.063 232.602C258.12 261.251 283.747 278.293 306.7 271.862C329.654 265.431 342.652 237.566 334.595 208.917C326.539 180.268 300.912 163.226 277.958 169.657C255.004 176.088 242.007 203.953 250.063 232.602Z" stroke="#1A3169" stroke-width="5"/>
<ellipse cx="17.011" cy="22.3883" rx="17.011" ry="22.3883" transform="matrix(-0.962918 0.269795 0.27072 0.962658 260.901 171.84)" fill="#FFE6C1"/>
<rect x="-5" y="5" width="174.053" height="71.8222" rx="17" transform="matrix(-1 0 0 1 312.707 456.425)" stroke="#1A3169" stroke-width="10"/>
</svg>
